{
.appVersion = "1361";
DisplayStrings = (
"Ê",
"ä",
"/dieresiscomb ë",
"/dieresiscomb ï",
"/ij",
"/dotaccentcomb ö",
"ü",
"/ydieresis",
V,
n,
"/nine.lf",
"o8/one.osf 8o",
"/seven.lf",
"/five.lf",
"/acutecomb",
"/gravecomb",
"/dieresiscomb",
"/circumflexcomb",
"/caroncomb",
"/brevecomb",
o,
"/breve",
"°",
"/ringcomb o",
"/tildecomb",
"/macroncomb",
"/macronbelowcomb",
"¯/omacron",
"ò",
"/caroncomb/ncaron",
"/jdotless",
k,
"/idotless",
"/acutecomb/idieresisacute",
g,
"/macroncomb/imacron",
e,
"o/schwa o",
"'",
"/caroncomb.alt",
d,
"/caroncomb.alt/dcaron",
"d/dcaron",
c,
b,
"æ",
a,
"/ringcomb å",
"/brevecomb/obreve",
u,
"/ringcomb/uring",
r,
s,
w,
y,
"on/vturned o",
z,
"j/dotaccentcomb/zdotaccent",
"/dotbelowcomb",
"/circumflexbelowcomb",
"/brevebelowcomb",
"t/tcaron",
"/tcedilla",
"/cedillacomb",
l,
"/commaaccentcomb/lcommaaccent",
m,
"¸/ogonek",
"/ogonekcomb",
"e/eogonek",
i,
"/iogonek",
"/dotbelowcomb/ndotbelow",
"u/uogonek",
"/hbar",
"/acutecomb/commaturnedabovecomb",
"/idotless/idotbelow",
"ø",
"/dotbelowcomb/sdotbelow",
"/lcstrokeshort_part.",
"d/dcroat",
"/dcroat",
"/tbar",
"/eng",
"/dotaccentcomb",
"/ringcomb",
"­",
"/.notdef",
"/hungarumlaut",
"/dotaccent",
"/dotbelowcomb.case",
O,
"Æ",
A,
B,
C,
"Ø",
"Õ",
"/hungarumlautcomb.case",
"/tildecomb.case/caroncomb.case",
"/dieresiscomb.case",
"/acutecomb.case",
"/ringcomb.case",
"/brevecomb.case",
"/tildecomb.case",
"/macroncomb.case",
"/ringcomb Å",
E,
"E/Eogonek",
"Ð",
D,
"Ð",
"/Dafrican",
"/Eogonek",
G,
H,
I,
N,
M,
R,
Q,
T,
S,
U,
W,
"/dieresiscomb/Wdieresis",
"/circumflexcomb/Wcircumflex",
"/acutecomb/Wacute",
"/Wacute/Wcircumflex/Wdieresis/gravecomb.case/Wgrave",
"/tildecomb Ñ",
"/dotaccentcomb/Ndotaccent",
"/dotaccentcomb.case",
"/dotaccentcomb.case/Edotaccent",
"G/Gdotaccent",
"/commaaccentcomb/Gcommaaccent",
Z,
Y,
J,
K,
L
);
copyright = "Copyright (c) 2021 by Sorkin Type Co with Reserved Font Name Pinyon Script.


glyphs = (
{
color = 4;
glyphname = A;
lastChange = "2022-05-08 20:48:37 +0000";
layers = (
{
anchors = (
{
name = bottom;
position = "{936, 0}";
},
{
name = ogonek;
position = "{1786, 10}";
},
{
name = top;
position = "{2098, 1447}";
}
);
layerId = master01;
paths = (
{
closed = 1;
nodes = (
"300 -5 OFFCURVE",
"385 19 OFFCURVE",
"470 73 CURVE SMOOTH",
"522 105 OFFCURVE",
"592 157 OFFCURVE",
"687 237 CURVE",
"764 213 OFFCURVE",
"853 199 OFFCURVE",
"951 199 CURVE SMOOTH",
"972 199 OFFCURVE",
"993 200 OFFCURVE",
"1014 201 CURVE",
"1011 194 OFFCURVE",
"1007 188 OFFCURVE",
"1003 182 CURVE SMOOTH",
"955 123 OFFCURVE",
"906 63 OFFCURVE",
"855 -1 CURVE {name = hr03;}",
"874 1 OFFCURVE",
"890 5 OFFCURVE",
"913 5 CURVE SMOOTH",
"939 5 OFFCURVE",
"988 1 OFFCURVE",
"1029 -1 CURVE",
"1200 225 LINE",
"1365 260 OFFCURVE",
"1519 330 OFFCURVE",
"1626 434 CURVE SMOOTH",
"1706 512 OFFCURVE",
"1770 595 OFFCURVE",
"1778 710 CURVE",
"1778 726 OFFCURVE",
"1766 739 OFFCURVE",
"1762 739 CURVE SMOOTH {name = hr04;}",
"1758 739 OFFCURVE",
"1753 727 OFFCURVE",
"1746 709 CURVE SMOOTH",
"1668 503 OFFCURVE",
"1474 339 OFFCURVE",
"1232 267 CURVE",
"1934 1195 OFFCURVE",
"2047 1367 OFFCURVE",
"2098 1383 CURVE",
"2114 1389 OFFCURVE",
"2118 1393 OFFCURVE",
"2118 1395 CURVE SMOOTH",
"2118 1403 OFFCURVE",
"2113 1404 OFFCURVE",
"2100 1404 CURVE SMOOTH",
"2066 1404 OFFCURVE",
"2003 1389 OFFCURVE",
"1905 1337 CURVE SMOOTH",
"1757 1259 OFFCURVE",
"1547 1113 OFFCURVE",
"1054 620 CURVE SMOOTH",
"1027 593 LINE",
"953 749 OFFCURVE",
"811 869 OFFCURVE",
"631 869 CURVE SMOOTH",
"437 869 OFFCURVE",
"330 741 OFFCURVE",
"337 602 CURVE SMOOTH",
"344 460 OFFCURVE",
"459 321 OFFCURVE",
"652 249 CURVE",
"600 206 OFFCURVE",
"552 168 OFFCURVE",
"503 132 CURVE",
"402 62 OFFCURVE",
"309 22 OFFCURVE",
"220 22 CURVE SMOOTH",
"90 22 OFFCURVE",
"40 68 OFFCURVE",
"40 132 CURVE SMOOTH",
"40 139 LINE",
"53 130 OFFCURVE",
"70 129 OFFCURVE",
"88 129 CURVE SMOOTH",
"118 129 OFFCURVE",
"144 152 OFFCURVE",
"144 178 CURVE SMOOTH",
"144 211 OFFCURVE",
"116 223 OFFCURVE",
"94 223 CURVE SMOOTH",
"53 223 OFFCURVE",
"0 201 OFFCURVE",
"0 141 CURVE SMOOTH",
"0 60 OFFCURVE",
"71 -5 OFFCURVE",
"212 -5 CURVE SMOOTH {name = hr01;}"
);
},
{
closed = 1;
nodes = (
"491 334 OFFCURVE",
"399 465 OFFCURVE",
"399 604 CURVE",
"398 728 OFFCURVE",
"505 839 OFFCURVE",
"633 839 CURVE SMOOTH",
"797 839 OFFCURVE",
"936 730 OFFCURVE",
"1004 572 CURVE",
"871 443 OFFCURVE",
"768 347 OFFCURVE",
"676 269 CURVE"
);
},
{
closed = 1;
nodes = (
"863 227 OFFCURVE",
"781 238 OFFCURVE",
"711 258 CURVE",
"794 330 OFFCURVE",
"895 422 OFFCURVE",
"1017 539 CURVE",
"1038 480 OFFCURVE",
"1050 415 OFFCURVE",
"1050 347 CURVE SMOOTH",
"1050 317 OFFCURVE",
"1043 271 OFFCURVE",
"1027 230 CURVE",
"1004 228 OFFCURVE",
"980 227 OFFCURVE",
"957 227 CURVE SMOOTH"
);
},
{
closed = 1;
nodes = (
"1078 293 OFFCURVE",
"1082 323 OFFCURVE",
"1082 353 CURVE SMOOTH",
"1082 424 OFFCURVE",
"1067 495 OFFCURVE",
"1041 562 CURVE",
"1105 624 LINE SMOOTH",
"1487 995 OFFCURVE",
"1715 1195 OFFCURVE",
"1877 1294 CURVE SMOOTH",
"1941 1332 OFFCURVE",
"1983 1349 OFFCURVE",
"2026 1366 CURVE",
"1915 1263 OFFCURVE",
"1634 955 OFFCURVE",
"1070 264 CURVE"
);
}
);
width = 2118;
}
);
unicode = 0041;
},
{
color = 4;
glyphname = AE;
lastChange = "2022-05-08 20:48:23 +0000";
layers = (
{
anchors = (
{
name = bottom;
position = "{1232, 0}";
},
{
name = top;
position = "{2362, 1447}";
}
);
layerId = master01;
paths = (
{
closed = 1;
nodes = (
"1597 -290 OFFCURVE",
"1604 -285 OFFCURVE",
"1604 -279 CURVE SMOOTH",
"1604 -276 OFFCURVE",
"1601 -272 OFFCURVE",
"1593 -266 CURVE SMOOTH",
"1547 -228 OFFCURVE",
"1515 -158 OFFCURVE",
"1515 -54 CURVE SMOOTH",
"1515 -39 OFFCURVE",
"1516 -23 OFFCURVE",
"1518 -7 CURVE",
"1533 -8 OFFCURVE",
"1548 -9 OFFCURVE",
"1564 -9 CURVE SMOOTH {name = hr02;}",
"1839 -9 OFFCURVE",
"2080 187 OFFCURVE",
"2080 381 CURVE SMOOTH",
"2080 456 OFFCURVE",
"2037 505 OFFCURVE",
"1945 505 CURVE SMOOTH",
"1775 505 OFFCURVE",
"1626 375 OFFCURVE",
"1540 182 CURVE SMOOTH",
"1517 131 OFFCURVE",
"1503 76 OFFCURVE",
"1495 24 CURVE",
"1374 45 OFFCURVE",
"1309 118 OFFCURVE",
"1309 223 CURVE SMOOTH",
"1309 392 OFFCURVE",
"1646 714 OFFCURVE",
"1881 714 CURVE SMOOTH",
"1888 714 LINE",
"1920 646 OFFCURVE",
"1979 613 OFFCURVE",
"2037 613 CURVE SMOOTH",
"2078 613 OFFCURVE",
"2091 629 OFFCURVE",
"2091 645 CURVE SMOOTH",
"2091 682 OFFCURVE",
"2041 722 OFFCURVE",
"1937 740 CURVE {name = hr03;}",
"1937 760 LINE SMOOTH",
"1937 906 OFFCURVE",
"2080 1137 OFFCURVE",
"2312 1285 CURVE",
"2372 1322 OFFCURVE",
"2456 1350 OFFCURVE",
"2522 1350 CURVE SMOOTH",
"2620 1350 OFFCURVE",
"2668 1304 OFFCURVE",
"2668 1232 CURVE SMOOTH",
"2668 1040 OFFCURVE",
"2369 807 OFFCURVE",
"2188 807 CURVE SMOOTH",
"2129 807 OFFCURVE",
"2101 832 OFFCURVE",
"2101 870 CURVE SMOOTH",
"2101 994 OFFCURVE",
"2314 1197 OFFCURVE",
"2523 1197 CURVE SMOOTH",
"2541 1197 OFFCURVE",
"2555 1199 OFFCURVE",
"2555 1211 CURVE SMOOTH",
"2555 1216 OFFCURVE",
"2547 1222 OFFCURVE",
"2532 1222 CURVE SMOOTH {name = hr04;}",
"2283 1222 OFFCURVE",
"2069 1001 OFFCURVE",
"2069 872 CURVE SMOOTH",
"2069 819 OFFCURVE",
"2111 779 OFFCURVE",
"2185 779 CURVE SMOOTH",
"2464 779 OFFCURVE",
"2710 1034 OFFCURVE",
"2710 1230 CURVE SMOOTH",
"2710 1303 OFFCURVE",
"2658 1378 OFFCURVE",
"2501 1378 CURVE SMOOTH {name = hr05;}",
"2208 1378 OFFCURVE",
"1864 1085 OFFCURVE",
"1864 832 CURVE SMOOTH",
"1864 800 OFFCURVE",
"1868 772 OFFCURVE",
"1875 747 CURVE",
"1858 748 OFFCURVE",
"1839 749 OFFCURVE",
"1819 749 CURVE SMOOTH",
"1714 749 OFFCURVE",
"1613 722 OFFCURVE",
"1525 677 CURVE",
"1965 1248 OFFCURVE",
"2075 1370 OFFCURVE",
"2117 1383 CURVE",
"2133 1389 OFFCURVE",
"2137 1393 OFFCURVE",
"2137 1395 CURVE SMOOTH",
"2137 1403 OFFCURVE",
"2132 1404 OFFCURVE",
"2119 1404 CURVE SMOOTH",
"2085 1404 OFFCURVE",
"2022 1389 OFFCURVE",
"1924 1337 CURVE SMOOTH",
"1776 1259 OFFCURVE",
"1573 1105 OFFCURVE",
"1073 620 CURVE SMOOTH",
"1037 585 OFFCURVE",
"1003 552 OFFCURVE",
"971 522 CURVE",
"891 677 OFFCURVE",
"740 797 OFFCURVE",
"561 797 CURVE SMOOTH",
"391 797 OFFCURVE",
"299 669 OFFCURVE",
"299 561 CURVE SMOOTH",
"299 411 OFFCURVE",
"411 271 OFFCURVE",
"603 194 CURVE",
"576 172 OFFCURVE",
"549 152 OFFCURVE",
"522 132 CURVE",
"421 62 OFFCURVE",
"331 26 OFFCURVE",
"242 26 CURVE SMOOTH",
"132 26 OFFCURVE",
"61 83 OFFCURVE",
"48 147 CURVE",
"56 143 OFFCURVE",
"65 142 OFFCURVE",
"71 142 CURVE SMOOTH",
"104 142 OFFCURVE",
"125 161 OFFCURVE",
"125 189 CURVE SMOOTH",
"125 217 OFFCURVE",
"99 242 OFFCURVE",
"67 242 CURVE SMOOTH",
"27 242 OFFCURVE",
"0 212 OFFCURVE",
"0 172 CURVE SMOOTH",
"0 93 OFFCURVE",
"83 -5 OFFCURVE",
"231 -5 CURVE SMOOTH {name = hr01;}",
"319 -5 OFFCURVE",
"404 19 OFFCURVE",
"489 73 CURVE SMOOTH",
"528 97 OFFCURVE",
"577 132 OFFCURVE",
"638 181 CURVE",
"728 150 OFFCURVE",
"835 132 OFFCURVE",
"954 132 CURVE",
"918 89 OFFCURVE",
"882 44 OFFCURVE",
"844 -1 CURVE",
"862 1 OFFCURVE",
"878 5 OFFCURVE",
"902 5 CURVE SMOOTH",
"927 5 OFFCURVE",
"966 1 OFFCURVE",
"1007 -1 CURVE",
"1238 302 LINE",
"1236 286 OFFCURVE",
"1235 270 OFFCURVE",
"1235 254 CURVE SMOOTH",
"1235 131 OFFCURVE",
"1330 22 OFFCURVE",
"1491 -3 CURVE",
"1488 -24 OFFCURVE",
"1488 -44 OFFCURVE",
"1488 -63 CURVE SMOOTH",
"1488 -164 OFFCURVE",
"1518 -231 OFFCURVE",
"1566 -276 CURVE SMOOTH",
"1580 -288 OFFCURVE",
"1586 -290 OFFCURVE",
"1591 -290 CURVE SMOOTH"
);
},
{
closed = 1;
nodes = (
"473 290 OFFCURVE",
"369 408 OFFCURVE",
"369 549 CURVE SMOOTH",
"369 674 OFFCURVE",
"435 763 OFFCURVE",
"572 763 CURVE SMOOTH",
"719 763 OFFCURVE",
"870 656 OFFCURVE",
"948 499 CURVE",
"825 382 OFFCURVE",
"728 296 OFFCURVE",
"640 223 CURVE"
);
},
{
closed = 1;
nodes = (
"866 163 OFFCURVE",
"762 180 OFFCURVE",
"674 210 CURVE",
"751 274 OFFCURVE",
"845 359 OFFCURVE",
"962 469 CURVE",
"987 409 OFFCURVE",
"1001 344 OFFCURVE",
"1001 275 CURVE SMOOTH",
"1001 247 OFFCURVE",
"995 203 OFFCURVE",
"981 164 CURVE",
"981 163 OFFCURVE",
"981 163 OFFCURVE",
"980 163 CURVE SMOOTH"
);
},
{
closed = 1;
nodes = (
"1552 19 OFFCURVE",
"1537 19 OFFCURVE",
"1523 21 CURVE",
"1534 70 OFFCURVE",
"1554 124 OFFCURVE",
"1582 178 CURVE SMOOTH",
"1675 357 OFFCURVE",
"1851 474 OFFCURVE",
"1951 474 CURVE SMOOTH",
"2020 474 OFFCURVE",
"2046 453 OFFCURVE",
"2046 406 CURVE SMOOTH",
"2046 295 OFFCURVE",
"1759 19 OFFCURVE",
"1567 19 CURVE SMOOTH"
);
},
{
closed = 1;
nodes = (
"1033 239 OFFCURVE",
"1034 257 OFFCURVE",
"1034 275 CURVE SMOOTH",
"1034 348 OFFCURVE",
"1017 422 OFFCURVE",
"986 491 CURVE",
"1029 532 OFFCURVE",
"1075 576 OFFCURVE",
"1124 624 CURVE SMOOTH",
"1505 996 OFFCURVE",
"1734 1195 OFFCURVE",
"1896 1294 CURVE SMOOTH",
"1955 1329 OFFCURVE",
"1995 1341 OFFCURVE",
"2035 1355 CURVE",
"1920 1241 OFFCURVE",
"1617 922 OFFCURVE",
"1030 222 CURVE"
);
},
{
closed = 1;
nodes = (
"1987 642 OFFCURVE",
"1955 662 OFFCURVE",
"1942 709 CURVE",
"2010 699 OFFCURVE",
"2050 672 OFFCURVE",
"2050 654 CURVE SMOOTH",
"2050 645 OFFCURVE",
"2045 642 OFFCURVE",
"2037 642 CURVE SMOOTH {name = hr06;}"
);
}
);
width = 2710;
}
);
unicode = 00C6;
},
{
color = 4;
glyphname = B;
lastChange = "2022-05-08 20:48:58 +0000";
layers = (
{
anchors = (
{
name = bottom;
position = "{672, 0}";
},
{
name = top;
position = "{1616, 1446}";
}
);
layerId = master01;
paths = (
{
closed = 1;
nodes = (
"286 -2 OFFCURVE",
"358 3 OFFCURVE",
"432 32 CURVE",
"645 120 OFFCURVE",
"882 316 OFFCURVE",
"1133 652 CURVE SMOOTH",
"1341 931 OFFCURVE",
"1492 1090 OFFCURVE",
"1658 1214 CURVE SMOOTH",
"1691 1238 OFFCURVE",
"1722 1260 OFFCURVE",
"1752 1277 CURVE",
"1779 1242 OFFCURVE",
"1794 1200 OFFCURVE",
"1794 1153 CURVE SMOOTH",
"1794 928 OFFCURVE",
"1622 753 OFFCURVE",
"1454 671 CURVE",
"1420 688 OFFCURVE",
"1379 698 OFFCURVE",
"1332 698 CURVE SMOOTH",
"1247 698 OFFCURVE",
"1168 666 OFFCURVE",
"1168 634 CURVE SMOOTH",
"1168 613 OFFCURVE",
"1200 588 OFFCURVE",
"1262 588 CURVE SMOOTH {name = hr03;}",
"1326 588 OFFCURVE",
"1393 601 OFFCURVE",
"1459 623 CURVE",
"1469 607 OFFCURVE",
"1474 585 OFFCURVE",
"1474 559 CURVE SMOOTH",
"1474 261 OFFCURVE",
"1210 26 OFFCURVE",
"1020 26 CURVE SMOOTH",
"912 26 OFFCURVE",
"883 68 OFFCURVE",
"883 108 CURVE SMOOTH",
"883 246 OFFCURVE",
"1149 443 OFFCURVE",
"1358 443 CURVE SMOOTH",
"1376 443 OFFCURVE",
"1389 447 OFFCURVE",
"1389 457 CURVE SMOOTH",
"1389 462 OFFCURVE",
"1381 469 OFFCURVE",
"1368 469 CURVE SMOOTH",
"1117 469 OFFCURVE",
"850 247 OFFCURVE",
"850 109 CURVE SMOOTH",
"850 59 OFFCURVE",
"888 -2 OFFCURVE",
"1016 -2 CURVE SMOOTH",
"1303 -2 OFFCURVE",
"1582 212 OFFCURVE",
"1582 439 CURVE SMOOTH",
"1582 524 OFFCURVE",
"1554 594 OFFCURVE",
"1502 640 CURVE",
"1712 725 OFFCURVE",
"1898 905 OFFCURVE",
"1898 1083 CURVE SMOOTH",
"1898 1173 OFFCURVE",
"1864 1248 OFFCURVE",
"1804 1305 CURVE",
"1960 1384 OFFCURVE",
"2061 1377 OFFCURVE",
"2061 1390 CURVE SMOOTH",
"2061 1398 OFFCURVE",
"2049 1400 OFFCURVE",
"2028 1400 CURVE SMOOTH",
"1968 1400 OFFCURVE",
"1883 1378 OFFCURVE",
"1778 1328 CURVE",
"1683 1401 OFFCURVE",
"1538 1440 OFFCURVE",
"1362 1440 CURVE SMOOTH",
"868 1440 OFFCURVE",
"374 1066 OFFCURVE",
"374 741 CURVE SMOOTH",
"374 642 OFFCURVE",
"451 600 OFFCURVE",
"531 600 CURVE SMOOTH {name = hr04;}",
"844 600 OFFCURVE",
"1209 883 OFFCURVE",
"1209 1270 CURVE SMOOTH",
"1209 1282 OFFCURVE",
"1205 1292 OFFCURVE",
"1198 1292 CURVE SMOOTH",
"1190 1292 OFFCURVE",
"1189 1287 OFFCURVE",
"1184 1260 CURVE",
"1137 911 OFFCURVE",
"768 622 OFFCURVE",
"541 622 CURVE SMOOTH",
"465 622 OFFCURVE",
"404 658 OFFCURVE",
"404 738 CURVE SMOOTH",
"404 926 OFFCURVE",
"730 1246 OFFCURVE",
"1051 1363 CURVE",
"1144 1398 OFFCURVE",
"1257 1418 OFFCURVE",
"1350 1418 CURVE SMOOTH",
"1521 1418 OFFCURVE",
"1656 1377 OFFCURVE",
"1730 1303 CURVE",
"1550 1207 OFFCURVE",
"1319 1030 OFFCURVE",
"1064 738 CURVE",
"499 111 OFFCURVE",
"388 24 OFFCURVE",
"220 24 CURVE SMOOTH",
"109 24 OFFCURVE",
"39 70 OFFCURVE",
"39 135 CURVE SMOOTH",
"39 141 LINE",
"52 132 OFFCURVE",
"70 131 OFFCURVE",
"87 131 CURVE SMOOTH",
"117 131 OFFCURVE",
"143 154 OFFCURVE",
"143 180 CURVE SMOOTH",
"143 213 OFFCURVE",
"115 226 OFFCURVE",
"93 226 CURVE SMOOTH",
"52 226 OFFCURVE",
"0 203 OFFCURVE",
"0 142 CURVE SMOOTH",
"0 63 OFFCURVE",
"95 -2 OFFCURVE",
"212 -2 CURVE SMOOTH {name = hr01;}"
);
},
{
closed = 1;
nodes = (
"1238 620 OFFCURVE",
"1219 632 OFFCURVE",
"1219 642 CURVE SMOOTH {name = hr06;}",
"1219 658 OFFCURVE",
"1270 675 OFFCURVE",
"1333 675 CURVE SMOOTH",
"1369 675 OFFCURVE",
"1400 670 OFFCURVE",
"1423 657 CURVE",
"1366 633 OFFCURVE",
"1310 620 OFFCURVE",
"1263 620 CURVE SMOOTH"
);
}
);
width = 2061;
}
);
unicode = 0042;
},
{
color = 4;
glyphname = C;
lastChange = "2022-05-08 20:49:05 +0000";
layers = (
{
anchors = (
{
name = bottom;
position = "{585, 0}";
},
{
name = top;
position = "{1314, 1446}";
}
);
layerId = master01;
paths = (
{
closed = 1;
nodes = (
"316 -262 OFFCURVE",
"320 -260 OFFCURVE",
"320 -257 CURVE SMOOTH",
"320 -254 OFFCURVE",
"321 -251 OFFCURVE",
"316 -244 CURVE SMOOTH",
"273 -188 OFFCURVE",
"260 -73 OFFCURVE",
"257 -1 CURVE {name = hr03;}",
"263 -2 OFFCURVE",
"269 -2 OFFCURVE",
"275 -2 CURVE SMOOTH",
"677 -2 OFFCURVE",
"994 364 OFFCURVE",
"994 593 CURVE SMOOTH",
"994 677 OFFCURVE",
"933 733 OFFCURVE",
"821 733 CURVE SMOOTH",
"525 733 OFFCURVE",
"229 395 OFFCURVE",
"228 29 CURVE",
"138 47 OFFCURVE",
"82 108 OFFCURVE",
"82 213 CURVE SMOOTH",
"82 351 OFFCURVE",
"212 552 OFFCURVE",
"391 748 CURVE",
"822 769 OFFCURVE",
"1416 1099 OFFCURVE",
"1416 1327 CURVE SMOOTH",
"1416 1381 OFFCURVE",
"1373 1401 OFFCURVE",
"1316 1401 CURVE SMOOTH",
"975 1401 OFFCURVE",
"518 1118 OFFCURVE",
"246 782 CURVE",
"115 811 OFFCURVE",
"43 894 OFFCURVE",
"43 979 CURVE SMOOTH {name = hr04;}",
"43 1225 OFFCURVE",
"422 1446 OFFCURVE",
"688 1446 CURVE SMOOTH",
"721 1446 OFFCURVE",
"746 1442 OFFCURVE",
"761 1442 CURVE SMOOTH",
"769 1442 OFFCURVE",
"774 1444 OFFCURVE",
"774 1450 CURVE SMOOTH",
"774 1460 OFFCURVE",
"737 1467 OFFCURVE",
"693 1467 CURVE SMOOTH",
"328 1467 OFFCURVE",
"0 1219 OFFCURVE",
"0 1020 CURVE SMOOTH",
"0 897 OFFCURVE",
"75 794 OFFCURVE",
"228 759 CURVE",
"98 592 OFFCURVE",
"15 414 OFFCURVE",
"15 251 CURVE SMOOTH {name = hr01;}",
"15 102 OFFCURVE",
"107 18 OFFCURVE",
"228 1 CURVE",
"234 -150 OFFCURVE",
"287 -262 OFFCURVE",
"311 -262 CURVE SMOOTH"
);
},
{
closed = 1;
nodes = (
"276 24 OFFCURVE",
"266 24 OFFCURVE",
"257 25 CURVE",
"257 26 LINE",
"257 404 OFFCURVE",
"583 706 OFFCURVE",
"810 706 CURVE SMOOTH",
"873 706 OFFCURVE",
"902 683 OFFCURVE",
"902 628 CURVE SMOOTH",
"902 440 OFFCURVE",
"556 24 OFFCURVE",
"286 24 CURVE SMOOTH"
);
},
{
closed = 1;
nodes = (
"708 1086 OFFCURVE",
"1116 1377 OFFCURVE",
"1314 1377 CURVE SMOOTH",
"1361 1377 OFFCURVE",
"1392 1362 OFFCURVE",
"1392 1324 CURVE SMOOTH",
"1392 1160 OFFCURVE",
"783 813 OFFCURVE",
"416 775 CURVE {name = hr06;}"
);
}
);
width = 1416;
}
);
unicode = 0043;
},
{
color = 4;
glyphname = D;
lastChange = "2022-05-08 20:58:23 +0000";
layers = (
{
anchors = (
{
name = bottom;
position = "{580, 0}";
},
{
name = center;
position = "{1111, 694}";
},
{
name = top;
position = "{1536, 1446}";
}
);
layerId = master01;
paths = (
{
closed = 1;
nodes = (
"314 -6 OFFCURVE",
"432 13 OFFCURVE",
"538 49 CURVE",
"663 13 OFFCURVE",
"745 -2 OFFCURVE",
"845 -2 CURVE SMOOTH",
"1287 -2 OFFCURVE",
"1702 350 OFFCURVE",
"1702 840 CURVE SMOOTH",
"1702 951 OFFCURVE",
"1676 1048 OFFCURVE",
"1628 1128 CURVE",
"1743 1227 OFFCURVE",
"1865 1290 OFFCURVE",
"1985 1305 CURVE",
"2015 1310 OFFCURVE",
"2018 1312 OFFCURVE",
"2018 1320 CURVE SMOOTH",
"2018 1326 OFFCURVE",
"2012 1330 OFFCURVE",
"2003 1330 CURVE SMOOTH",
"1877 1324 OFFCURVE",
"1725 1260 OFFCURVE",
"1594 1178 CURVE",
"1489 1309 OFFCURVE",
"1313 1384 OFFCURVE",
"1082 1384 CURVE SMOOTH",
"631 1384 OFFCURVE",
"267 1078 OFFCURVE",
"267 780 CURVE SMOOTH",
"267 654 OFFCURVE",
"389 569 OFFCURVE",
"512 569 CURVE SMOOTH",
"855 569 OFFCURVE",
"1179 887 OFFCURVE",
"1179 1175 CURVE SMOOTH",
"1179 1192 OFFCURVE",
"1173 1196 OFFCURVE",
"1167 1196 CURVE SMOOTH",
"1161 1196 OFFCURVE",
"1158 1191 OFFCURVE",
"1156 1173 CURVE",
"1138 903 OFFCURVE",
"721 597 OFFCURVE",
"515 597 CURVE SMOOTH",
"394 597 OFFCURVE",
"325 661 OFFCURVE",
"325 757 CURVE SMOOTH",
"325 991 OFFCURVE",
"691 1360 OFFCURVE",
"1088 1360 CURVE SMOOTH",
"1295 1360 OFFCURVE",
"1464 1298 OFFCURVE",
"1557 1154 CURVE",
"1502 1117 OFFCURVE",
"1452 1077 OFFCURVE",
"1410 1037 CURVE SMOOTH",
"1262 899 OFFCURVE",
"1164 773 OFFCURVE",
"1049 634 CURVE SMOOTH",
"796 327 OFFCURVE",
"635 171 OFFCURVE",
"496 95 CURVE",
"491 97 OFFCURVE",
"487 97 OFFCURVE",
"483 99 CURVE {name = hr03;}",
"344 140 OFFCURVE",
"275 154 OFFCURVE",
"206 154 CURVE SMOOTH",
"72 154 OFFCURVE",
"0 107 OFFCURVE",
"0 68 CURVE SMOOTH {name = hr01;}",
"0 31 OFFCURVE",
"50 -6 OFFCURVE",
"180 -6 CURVE SMOOTH"
);
},
{
closed = 1;
nodes = (
"80 26 OFFCURVE",
"28 39 OFFCURVE",
"28 68 CURVE SMOOTH {name = hr05;}",
"28 90 OFFCURVE",
"85 111 OFFCURVE",
"199 111 CURVE SMOOTH",
"285 111 OFFCURVE",
"363 96 OFFCURVE",
"451 73 CURVE",
"367 36 OFFCURVE",
"287 26 OFFCURVE",
"197 26 CURVE SMOOTH"
);
},
{
closed = 1;
nodes = (
"733 28 OFFCURVE",
"654 46 OFFCURVE",
"585 67 CURVE",
"923 200 OFFCURVE",
"1138 501 OFFCURVE",
"1369 834 CURVE SMOOTH",
"1438 934 OFFCURVE",
"1512 1022 OFFCURVE",
"1589 1094 CURVE",
"1621 1024 OFFCURVE",
"1638 938 OFFCURVE",
"1638 836 CURVE SMOOTH",
"1638 368 OFFCURVE",
"1242 28 OFFCURVE",
"850 28 CURVE SMOOTH"
);
}
);
width = 2018;
}
);
unicode = 0044;
},
{
color = 1;
glyphname = Eth;
lastChange = "2022-05-08 20:58:39 +0000";
layers = (
{
layerId = master01;
paths = (
{
closed = 1;
nodes = (
"313 -6 OFFCURVE",
"431 14 OFFCURVE",
"537 49 CURVE",
"663 13 OFFCURVE",
"745 -2 OFFCURVE",
"845 -2 CURVE SMOOTH",
"1287 -2 OFFCURVE",
"1702 350 OFFCURVE",
"1702 840 CURVE SMOOTH",
"1702 951 OFFCURVE",
"1676 1048 OFFCURVE",
"1628 1128 CURVE",
"1743 1227 OFFCURVE",
"1865 1290 OFFCURVE",
"1985 1305 CURVE {name = hr03;}",
"2015 1310 OFFCURVE",
"2018 1312 OFFCURVE",
"2018 1320 CURVE SMOOTH",
"2018 1326 OFFCURVE",
"2012 1330 OFFCURVE",
"2003 1330 CURVE SMOOTH {name = hr04;}",
"1877 1324 OFFCURVE",
"1725 1260 OFFCURVE",
"1594 1178 CURVE",
"1489 1309 OFFCURVE",
"1313 1384 OFFCURVE",
"1082 1384 CURVE SMOOTH",
"631 1384 OFFCURVE",
"267 1078 OFFCURVE",
"267 780 CURVE SMOOTH",
"267 654 OFFCURVE",
"389 569 OFFCURVE",
"512 569 CURVE SMOOTH",
"855 569 OFFCURVE",
"1179 887 OFFCURVE",
"1179 1175 CURVE SMOOTH",
"1179 1192 OFFCURVE",
"1173 1196 OFFCURVE",
"1167 1196 CURVE SMOOTH",
"1161 1196 OFFCURVE",
"1158 1191 OFFCURVE",
"1156 1173 CURVE",
"1138 903 OFFCURVE",
"721 597 OFFCURVE",
"515 597 CURVE SMOOTH",
"394 597 OFFCURVE",
"325 661 OFFCURVE",
"325 757 CURVE SMOOTH",
"325 991 OFFCURVE",
"691 1360 OFFCURVE",
"1088 1360 CURVE SMOOTH",
"1295 1360 OFFCURVE",
"1464 1298 OFFCURVE",
"1557 1154 CURVE",
"1502 1117 OFFCURVE",
"1452 1077 OFFCURVE",
"1410 1037 CURVE SMOOTH",
"1262 899 OFFCURVE",
"1164 773 OFFCURVE",
"1049 634 CURVE SMOOTH",
"1009 585 OFFCURVE",
"971 541 OFFCURVE",
"936 500 CURVE",
"816 500 LINE",
"813 492 OFFCURVE",
"798 474 OFFCURVE",
"788 466 CURVE",
"906 466 LINE",
"731 267 OFFCURVE",
"607 156 OFFCURVE",
"496 95 CURVE",
"491 97 OFFCURVE",
"487 97 OFFCURVE",
"483 99 CURVE",
"344 140 OFFCURVE",
"275 154 OFFCURVE",
"206 154 CURVE SMOOTH",
"72 154 OFFCURVE",
"0 107 OFFCURVE",
"0 68 CURVE SMOOTH {name = hr01;}",
"0 31 OFFCURVE",
"50 -6 OFFCURVE",
"180 -6 CURVE SMOOTH"
);
},
{
closed = 1;
nodes = (
"80 26 OFFCURVE",
"28 39 OFFCURVE",
"28 68 CURVE SMOOTH {name = hr05;}",
"28 90 OFFCURVE",
"85 111 OFFCURVE",
"199 111 CURVE SMOOTH",
"285 111 OFFCURVE",
"363 96 OFFCURVE",
"451 73 CURVE",
"367 36 OFFCURVE",
"287 26 OFFCURVE",
"197 26 CURVE SMOOTH"
);
},
{
closed = 1;
nodes = (
"733 28 OFFCURVE",
"654 46 OFFCURVE",
"585 67 CURVE",
"790 148 OFFCURVE",
"950 291 OFFCURVE",
"1096 466 CURVE",
"1361 466 LINE",
"1363 474 OFFCURVE",
"1369 492 OFFCURVE",
"1377 500 CURVE",
"1124 500 LINE",
"1208 603 OFFCURVE",
"1287 716 OFFCURVE",
"1369 834 CURVE SMOOTH",
"1438 934 OFFCURVE",
"1512 1022 OFFCURVE",
"1589 1094 CURVE",
"1621 1024 OFFCURVE",
"1638 938 OFFCURVE",
"1638 836 CURVE SMOOTH",
"1638 368 OFFCURVE",
"1242 28 OFFCURVE",
"850 28 CURVE SMOOTH"
);
}
);
width = 2018;
}
);
unicode = 00D0;
},
{
color = 4;
glyphname = E;
lastChange = "2022-05-08 20:59:07 +0000";
layers = (
{
anchors = (
{
name = bottom;
position = "{188, 0}";
},
{
name = ogonek;
position = "{319, 10}";
},
{
name = top;
position = "{1264, 1446}";
},
{
name = topleft;
position = "{348, 1388}";
}
);
layerId = master01;
paths = (
{
closed = 1;
nodes = (
"390 -285 OFFCURVE",
"396 -280 OFFCURVE",
"396 -276 CURVE SMOOTH",
"396 -271 OFFCURVE",
"393 -269 OFFCURVE",
"386 -261 CURVE SMOOTH",
"351 -222 OFFCURVE",
"329 -105 OFFCURVE",
"329 -31 CURVE SMOOTH {name = hr04;}",
"329 -21 OFFCURVE",
"329 -11 OFFCURVE",
"330 -1 CURVE",
"342 -1 OFFCURVE",
"353 -2 OFFCURVE",
"366 -2 CURVE SMOOTH",
"664 -2 OFFCURVE",
"898 158 OFFCURVE",
"898 367 CURVE SMOOTH",
"898 441 OFFCURVE",
"825 505 OFFCURVE",
"742 505 CURVE SMOOTH",
"523 505 OFFCURVE",
"324 267 OFFCURVE",
"302 27 CURVE",
"175 47 OFFCURVE",
"107 123 OFFCURVE",
"105 230 CURVE SMOOTH {name = hr01;}",
"102 436 OFFCURVE",
"376 687 OFFCURVE",
"637 716 CURVE",
"695 654 OFFCURVE",
"775 617 OFFCURVE",
"834 617 CURVE SMOOTH {name = hr03;}",
"867 617 OFFCURVE",
"886 626 OFFCURVE",
"886 649 CURVE SMOOTH",
"885 690 OFFCURVE",
"816 734 OFFCURVE",
"686 748 CURVE",
"671 771 OFFCURVE",
"659 796 OFFCURVE",
"653 823 CURVE",
"704 816 OFFCURVE",
"758 813 OFFCURVE",
"817 813 CURVE SMOOTH",
"1193 813 OFFCURVE",
"1514 977 OFFCURVE",
"1514 1183 CURVE SMOOTH",
"1514 1320 OFFCURVE",
"1388 1401 OFFCURVE",
"1172 1401 CURVE SMOOTH",
"894 1401 OFFCURVE",
"559 1199 OFFCURVE",
"563 887 CURVE SMOOTH",
"563 879 OFFCURVE",
"563 871 OFFCURVE",
"564 864 CURVE",
"378 902 OFFCURVE",
"254 992 OFFCURVE",
"195 1126 CURVE SMOOTH",
"188 1143 OFFCURVE",
"181 1150 OFFCURVE",
"174 1150 CURVE SMOOTH",
"169 1150 OFFCURVE",
"166 1147 OFFCURVE",
"166 1138 CURVE SMOOTH",
"166 1134 OFFCURVE",
"167 1122 OFFCURVE",
"172 1113 CURVE",
"229 985 OFFCURVE",
"361 882 OFFCURVE",
"569 837 CURVE",
"577 806 OFFCURVE",
"590 777 OFFCURVE",
"608 752 CURVE",
"602 752 LINE SMOOTH",
"259 752 OFFCURVE",
"-5 521 OFFCURVE",
"1 262 CURVE",
"3 126 OFFCURVE",
"117 21 OFFCURVE",
"300 1 CURVE",
"300 -28 LINE",
"303 -105 OFFCURVE",
"321 -228 OFFCURVE",
"360 -271 CURVE SMOOTH",
"372 -284 OFFCURVE",
"378 -285 OFFCURVE",
"384 -285 CURVE SMOOTH"
);
},
{
closed = 1;
nodes = (
"358 22 OFFCURVE",
"344 23 OFFCURVE",
"331 24 CURVE {name = hr05;}",
"358 299 OFFCURVE",
"578 480 OFFCURVE",
"744 480 CURVE SMOOTH",
"805 480 OFFCURVE",
"852 449 OFFCURVE",
"852 394 CURVE SMOOTH",
"852 254 OFFCURVE",
"583 22 OFFCURVE",
"372 22 CURVE SMOOTH"
);
},
{
closed = 1;
nodes = (
"803 640 OFFCURVE",
"749 671 OFFCURVE",
"708 718 CURVE",
"796 712 OFFCURVE",
"864 674 OFFCURVE",
"865 652 CURVE SMOOTH",
"865 644 OFFCURVE",
"859 640 OFFCURVE",
"849 640 CURVE SMOOTH"
);
},
{
closed = 1;
nodes = (
"746 842 OFFCURVE",
"696 844 OFFCURVE",
"649 850 CURVE",
"649 864 LINE SMOOTH",
"649 1067 OFFCURVE",
"932 1376 OFFCURVE",
"1208 1376 CURVE SMOOTH",
"1375 1376 OFFCURVE",
"1477 1304 OFFCURVE",
"1477 1213 CURVE SMOOTH",
"1477 983 OFFCURVE",
"1098 842 OFFCURVE",
"799 842 CURVE SMOOTH"
);
}
);
width = 1514;
}
);
unicode = 0045;
},
{
color = 4;
glyphname = F;
lastChange = "2022-05-08 20:47:39 +0000";
layers = (
{
anchors = (
{
name = bottom;
position = "{996, 0}";
},
{
name = top;
position = "{1447, 1388}";
}
);
layerId = master01;
paths = (
{
closed = 1;
nodes = (
"534 -1 OFFCURVE",
"769 153 OFFCURVE",
"1081 662 CURVE SMOOTH",
"1085 669 LINE",
"1173 688 OFFCURVE",
"1263 707 OFFCURVE",
"1316 724 CURVE",
"1283 673 OFFCURVE",
"1259 621 OFFCURVE",
"1229 541 CURVE SMOOTH",
"1223 523 OFFCURVE",
"1221 516 OFFCURVE",
"1221 511 CURVE SMOOTH",
"1221 500 OFFCURVE",
"1226 497 OFFCURVE",
"1233 497 CURVE SMOOTH",
"1240 497 OFFCURVE",
"1243 500 OFFCURVE",
"1250 513 CURVE",
"1299 641 OFFCURVE",
"1419 758 OFFCURVE",
"1511 801 CURVE",
"1486 809 OFFCURVE",
"1383 816 OFFCURVE",
"1359 816 CURVE",
"1349 795 OFFCURVE",
"1337 784 OFFCURVE",
"1325 776 CURVE",
"1276 759 OFFCURVE",
"1196 736 OFFCURVE",
"1114 715 CURVE",
"1282 971 OFFCURVE",
"1475 1149 OFFCURVE",
"1631 1194 CURVE SMOOTH",
"1666 1204 OFFCURVE",
"1673 1204 OFFCURVE",
"1673 1210 CURVE SMOOTH",
"1673 1216 OFFCURVE",
"1666 1219 OFFCURVE",
"1650 1219 CURVE SMOOTH",
"1512 1219 OFFCURVE",
"1200 1057 OFFCURVE",
"957 677 CURVE",
"955 676 OFFCURVE",
"954 676 OFFCURVE",
"952 676 CURVE SMOOTH",
"647 613 OFFCURVE",
"412 472 OFFCURVE",
"360 353 CURVE",
"354 345 OFFCURVE",
"353 339 OFFCURVE",
"353 336 CURVE SMOOTH",
"353 329 OFFCURVE",
"356 328 OFFCURVE",
"360 328 CURVE SMOOTH",
"366 328 OFFCURVE",
"370 332 OFFCURVE",
"379 348 CURVE SMOOTH",
"439 451 OFFCURVE",
"610 564 OFFCURVE",
"932 636 CURVE",
"930 633 OFFCURVE",
"928 631 OFFCURVE",
"927 628 CURVE SMOOTH",
"624 115 OFFCURVE",
"418 26 OFFCURVE",
"240 26 CURVE SMOOTH",
"129 26 OFFCURVE",
"40 72 OFFCURVE",
"40 137 CURVE SMOOTH",
"40 142 LINE",
"53 134 OFFCURVE",
"70 132 OFFCURVE",
"87 132 CURVE SMOOTH",
"117 132 OFFCURVE",
"144 156 OFFCURVE",
"144 182 CURVE SMOOTH",
"144 214 OFFCURVE",
"115 228 OFFCURVE",
"93 228 CURVE SMOOTH",
"52 228 OFFCURVE",
"0 204 OFFCURVE",
"0 145 CURVE SMOOTH",
"0 65 OFFCURVE",
"116 -1 OFFCURVE",
"232 -1 CURVE SMOOTH"
);
},
{
closed = 1;
nodes = (
"875 814 OFFCURVE",
"1107 1011 OFFCURVE",
"1107 1210 CURVE SMOOTH",
"1107 1223 OFFCURVE",
"1104 1231 OFFCURVE",
"1097 1231 CURVE SMOOTH",
"1091 1231 OFFCURVE",
"1091 1224 OFFCURVE",
"1088 1210 CURVE",
"1071 1074 OFFCURVE",
"833 852 OFFCURVE",
"647 852 CURVE SMOOTH",
"573 852 OFFCURVE",
"541 895 OFFCURVE",
"541 961 CURVE SMOOTH",
"541 1138 OFFCURVE",
"855 1337 OFFCURVE",
"1160 1337 CURVE SMOOTH",
"1343 1337 OFFCURVE",
"1530 1290 OFFCURVE",
"1714 1290 CURVE SMOOTH",
"1966 1290 OFFCURVE",
"2129 1390 OFFCURVE",
"2228 1547 CURVE",
"2237 1557 OFFCURVE",
"2237 1562 OFFCURVE",
"2237 1567 CURVE SMOOTH",
"2237 1571 OFFCURVE",
"2234 1574 OFFCURVE",
"2228 1574 CURVE SMOOTH",
"2223 1574 OFFCURVE",
"2217 1573 OFFCURVE",
"2206 1557 CURVE",
"2145 1453 OFFCURVE",
"2029 1379 OFFCURVE",
"1839 1379 CURVE SMOOTH",
"1701 1379 OFFCURVE",
"1550 1414 OFFCURVE",
"1406 1414 CURVE SMOOTH",
"1284 1414 OFFCURVE",
"1162 1409 OFFCURVE",
"1045 1382 CURVE",
"720 1304 OFFCURVE",
"512 1119 OFFCURVE",
"512 951 CURVE SMOOTH",
"512 863 OFFCURVE",
"577 814 OFFCURVE",
"679 814 CURVE SMOOTH {name = hr00;}"
);
}
);
width = 2237;
}
);
unicode = 0046;
},
{
color = 4;
glyphname = G;
lastChange = "2022-05-08 21:08:15 +0000";
layers = (
{
anchors = (
{
name = bottom;
position = "{242, -3}";
},
{
name = top;
position = "{1418, 1446}";
}
);
layerId = master01;
paths = (
{
closed = 1;
nodes = (
"534 -3 OFFCURVE",
"794 182 OFFCURVE",
"1028 548 CURVE SMOOTH",
"1190 800 OFFCURVE",
"1276 898 OFFCURVE",
"1350 933 CURVE SMOOTH",
"1365 940 OFFCURVE",
"1367 944 OFFCURVE",
"1367 950 CURVE SMOOTH",
"1367 956 OFFCURVE",
"1354 961 OFFCURVE",
"1343 961 CURVE SMOOTH",
"1323 961 OFFCURVE",
"1260 923 OFFCURVE",
"1190 868 CURVE SMOOTH",
"891 637 OFFCURVE",
"724 555 OFFCURVE",
"604 555 CURVE SMOOTH",
"542 555 OFFCURVE",
"524 583 OFFCURVE",
"524 608 CURVE SMOOTH",
"524 635 OFFCURVE",
"535 671 OFFCURVE",
"556 712 CURVE",
"664 732 OFFCURVE",
"772 767 OFFCURVE",
"873 812 CURVE",
"1242 984 OFFCURVE",
"1497 1198 OFFCURVE",
"1497 1353 CURVE SMOOTH",
"1497 1412 OFFCURVE",
"1463 1440 OFFCURVE",
"1376 1440 CURVE SMOOTH",
"1056 1440 OFFCURVE",
"526 1040 OFFCURVE",
"451 718 CURVE",
"429 716 OFFCURVE",
"408 715 OFFCURVE",
"388 715 CURVE SMOOTH",
"287 715 OFFCURVE",
"230 732 OFFCURVE",
"162 768 CURVE SMOOTH",
"154 773 OFFCURVE",
"152 774 OFFCURVE",
"149 774 CURVE SMOOTH",
"142 774 OFFCURVE",
"138 768 OFFCURVE",
"138 764 CURVE SMOOTH",
"138 757 OFFCURVE",
"144 754 OFFCURVE",
"165 743 CURVE SMOOTH",
"213 716 OFFCURVE",
"287 695 OFFCURVE",
"373 695 CURVE SMOOTH",
"397 695 OFFCURVE",
"422 696 OFFCURVE",
"447 698 CURVE",
"444 680 OFFCURVE",
"442 662 OFFCURVE",
"442 645 CURVE SMOOTH",
"442 553 OFFCURVE",
"499 529 OFFCURVE",
"589 529 CURVE SMOOTH",
"696 529 OFFCURVE",
"836 582 OFFCURVE",
"1053 736 CURVE",
"979 656 OFFCURVE",
"877 538 OFFCURVE",
"820 462 CURVE SMOOTH",
"572 131 OFFCURVE",
"413 23 OFFCURVE",
"250 23 CURVE SMOOTH",
"121 23 OFFCURVE",
"40 70 OFFCURVE",
"40 133 CURVE SMOOTH",
"40 139 LINE",
"53 131 OFFCURVE",
"70 130 OFFCURVE",
"87 130 CURVE SMOOTH",
"117 130 OFFCURVE",
"144 153 OFFCURVE",
"144 179 CURVE SMOOTH",
"144 212 OFFCURVE",
"115 225 OFFCURVE",
"93 225 CURVE SMOOTH",
"52 225 OFFCURVE",
"0 202 OFFCURVE",
"0 141 CURVE SMOOTH",
"0 62 OFFCURVE",
"111 -3 OFFCURVE",
"242 -3 CURVE SMOOTH {name = hr00;}"
);
},
{
closed = 1;
nodes = (
"712 993 OFFCURVE",
"1146 1417 OFFCURVE",
"1395 1417 CURVE SMOOTH",
"1441 1417 OFFCURVE",
"1473 1400 OFFCURVE",
"1473 1363 CURVE SMOOTH",
"1473 1282 OFFCURVE",
"1226 1042 OFFCURVE",
"885 862 CURVE",
"768 803 OFFCURVE",
"665 762 OFFCURVE",
"570 739 CURVE"
);
}
);
width = 1497;
}
);
unicode = 0047;
},
{
color = 5;
glyphname = H;
lastChange = "2022-05-08 21:00:04 +0000";
layers = (
{
anchors = (
{
name = bottom;
position = "{821, 0}";
},
{
name = center;
position = "{1314, 694}";
},
{
name = top;
position = "{1974, 1446}";
},
{
name = topleft;
position = "{348, 1388}";
}
);
layerId = master01;
paths = (
{
closed = 1;
nodes = (
"271 -2 OFFCURVE",
"371 18 OFFCURVE",
"461 70 CURVE",
"619 159 OFFCURVE",
"782 318 OFFCURVE",
"989 568 CURVE",
"1119 601 OFFCURVE",
"1258 633 OFFCURVE",
"1379 667 CURVE",
"1184 419 OFFCURVE",
"1126 254 OFFCURVE",
"1126 127 CURVE SMOOTH",
"1126 65 OFFCURVE",
"1171 -2 OFFCURVE",
"1255 -2 CURVE SMOOTH",
"1491 -2 OFFCURVE",
"1729 336 OFFCURVE",
"1714 481 CURVE SMOOTH",
"1712 499 OFFCURVE",
"1707 510 OFFCURVE",
"1703 510 CURVE SMOOTH",
"1697 510 OFFCURVE",
"1684 498 OFFCURVE",
"1679 480 CURVE SMOOTH",
"1596 205 OFFCURVE",
"1410 23 OFFCURVE",
"1263 23 CURVE SMOOTH",
"1202 23 OFFCURVE",
"1179 50 OFFCURVE",
"1179 115 CURVE SMOOTH",
"1179 209 OFFCURVE",
"1345 462 OFFCURVE",
"1555 718 CURVE",
"2082 892 OFFCURVE",
"2423 1206 OFFCURVE",
"2423 1339 CURVE SMOOTH {name = hr03;}",
"2423 1379 OFFCURVE",
"2392 1410 OFFCURVE",
"2333 1410 CURVE SMOOTH",
"2169 1410 OFFCURVE",
"1752 1108 OFFCURVE",
"1455 759 CURVE SMOOTH",
"1437 738 OFFCURVE",
"1420 718 OFFCURVE",
"1404 698 CURVE",
"1251 661 OFFCURVE",
"1123 630 OFFCURVE",
"1017 602 CURVE",
"1052 646 OFFCURVE",
"1089 692 OFFCURVE",
"1127 741 CURVE",
"1326 1020 OFFCURVE",
"1476 1220 OFFCURVE",
"1610 1330 CURVE",
"1657 1365 OFFCURVE",
"1672 1373 OFFCURVE",
"1683 1379 CURVE SMOOTH",
"1699 1389 OFFCURVE",
"1704 1392 OFFCURVE",
"1704 1394 CURVE SMOOTH",
"1704 1398 OFFCURVE",
"1695 1401 OFFCURVE",
"1690 1401 CURVE SMOOTH",
"1684 1401 OFFCURVE",
"1672 1395 OFFCURVE",
"1654 1387 CURVE",
"1582 1350 OFFCURVE",
"1503 1288 OFFCURVE",
"1319 1124 CURVE",
"1192 1013 OFFCURVE",
"1054 947 OFFCURVE",
"970 947 CURVE SMOOTH",
"899 947 OFFCURVE",
"876 977 OFFCURVE",
"876 996 CURVE SMOOTH",
"876 1015 OFFCURVE",
"883 1024 OFFCURVE",
"926 1051 CURVE SMOOTH",
"1047 1129 OFFCURVE",
"1080 1198 OFFCURVE",
"1080 1273 CURVE SMOOTH",
"1080 1343 OFFCURVE",
"1016 1387 OFFCURVE",
"905 1387 CURVE SMOOTH {name = hr04;}",
"793 1387 OFFCURVE",
"680 1344 OFFCURVE",
"605 1278 CURVE",
"595 1267 OFFCURVE",
"587 1260 OFFCURVE",
"587 1253 CURVE SMOOTH {name = hr05;}",
"587 1246 OFFCURVE",
"592 1243 OFFCURVE",
"598 1243 CURVE SMOOTH",
"604 1243 OFFCURVE",
"611 1246 OFFCURVE",
"623 1257 CURVE SMOOTH",
"701 1329 OFFCURVE",
"806 1366 OFFCURVE",
"905 1366 CURVE SMOOTH {name = hr06;}",
"995 1366 OFFCURVE",
"1036 1338 OFFCURVE",
"1036 1298 CURVE SMOOTH",
"1036 1284 OFFCURVE",
"1028 1272 OFFCURVE",
"977 1231 CURVE SMOOTH",
"867 1145 OFFCURVE",
"839 1085 OFFCURVE",
"839 1019 CURVE SMOOTH",
"839 953 OFFCURVE",
"889 920 OFFCURVE",
"957 920 CURVE SMOOTH",
"1022 920 OFFCURVE",
"1107 946 OFFCURVE",
"1241 1029 CURVE",
"1158 944 OFFCURVE",
"1008 778 OFFCURVE",
"844 555 CURVE",
"711 517 OFFCURVE",
"623 485 OFFCURVE",
"563 454 CURVE SMOOTH",
"484 413 OFFCURVE",
"361 336 OFFCURVE",
"329 269 CURVE SMOOTH",
"322 256 OFFCURVE",
"323 253 OFFCURVE",
"322 249 CURVE SMOOTH",
"321 244 OFFCURVE",
"323 241 OFFCURVE",
"327 241 CURVE SMOOTH",
"330 241 OFFCURVE",
"335 244 OFFCURVE",
"338 250 CURVE",
"411 361 OFFCURVE",
"566 439 OFFCURVE",
"712 490 CURVE SMOOTH",
"745 501 OFFCURVE",
"781 512 OFFCURVE",
"819 523 CURVE",
"582 226 OFFCURVE",
"462 117 OFFCURVE",
"359 68 CURVE SMOOTH {name = hr01;}",
"304 41 OFFCURVE",
"254 24 OFFCURVE",
"198 24 CURVE SMOOTH",
"100 24 OFFCURVE",
"39 66 OFFCURVE",
"39 124 CURVE SMOOTH",
"39 130 LINE",
"52 122 OFFCURVE",
"69 121 OFFCURVE",
"86 121 CURVE SMOOTH",
"116 121 OFFCURVE",
"143 144 OFFCURVE",
"143 170 CURVE SMOOTH",
"143 203 OFFCURVE",
"115 215 OFFCURVE",
"93 215 CURVE SMOOTH",
"52 215 OFFCURVE",
"0 193 OFFCURVE",
"0 132 CURVE SMOOTH",
"0 58 OFFCURVE",
"85 -2 OFFCURVE",
"190 -2 CURVE SMOOTH"
);
},
{
closed = 1;
nodes = (
"1854 1074 OFFCURVE",
"2186 1389 OFFCURVE",
"2340 1389 CURVE SMOOTH",
"2372 1389 OFFCURVE",
"2388 1378 OFFCURVE",
"2388 1355 CURVE SMOOTH",
"2388 1248 OFFCURVE",
"2035 924 OFFCURVE",
"1585 753 CURVE {name = hr07;}"
);
}
);
width = 2423;
}
);
unicode = 0048;
},
{
color = 4;
glyphname = I;
lastChange = "2022-05-08 21:00:34 +0000";
layers = (
{
anchors = (
{
name = bottom;
position = "{616, 0}";
},
{
name = ogonek;
position = "{240, 0}";
},
{
name = top;
position = "{1636, 1446}";
},
{
name = topleft;
position = "{348, 1388}";
}
);
layerId = master01;
paths = (
{
closed = 1;
nodes = (
"406 -2 OFFCURVE",
"636 127 OFFCURVE",
"851 337 CURVE",
"874 337 LINE SMOOTH",
"1196 337 OFFCURVE",
"1578 634 OFFCURVE",
"1578 1017 CURVE SMOOTH",
"1578 1048 OFFCURVE",
"1577 1066 OFFCURVE",
"1566 1066 CURVE SMOOTH",
"1562 1066 OFFCURVE",
"1555 1067 OFFCURVE",
"1555 1036 CURVE SMOOTH",
"1555 663 OFFCURVE",
"1168 365 OFFCURVE",
"886 365 CURVE SMOOTH",
"878 365 LINE",
"967 455 OFFCURVE",
"1052 559 OFFCURVE",
"1131 673 CURVE SMOOTH",
"1368 1017 OFFCURVE",
"1579 1229 OFFCURVE",
"1784 1320 CURVE {name = hr03;}",
"1814 1332 OFFCURVE",
"1839 1342 OFFCURVE",
"1878 1351 CURVE",
"1912 1351 OFFCURVE",
"1950 1349 OFFCURVE",
"2001 1352 CURVE SMOOTH",
"2026 1353 OFFCURVE",
"2034 1362 OFFCURVE",
"2034 1371 CURVE SMOOTH",
"2034 1379 OFFCURVE",
"2023 1385 OFFCURVE",
"1997 1385 CURVE SMOOTH",
"1961 1385 OFFCURVE",
"1928 1378 OFFCURVE",
"1895 1378 CURVE SMOOTH",
"1866 1378 OFFCURVE",
"1838 1383 OFFCURVE",
"1807 1385 CURVE",
"1779 1389 OFFCURVE",
"1751 1392 OFFCURVE",
"1720 1392 CURVE SMOOTH",
"1113 1392 OFFCURVE",
"606 984 OFFCURVE",
"606 608 CURVE SMOOTH",
"606 471 OFFCURVE",
"664 398 OFFCURVE",
"739 363 CURVE",
"524 106 OFFCURVE",
"379 24 OFFCURVE",
"225 24 CURVE SMOOTH",
"114 24 OFFCURVE",
"42 75 OFFCURVE",
"42 139 CURVE SMOOTH",
"42 145 LINE",
"55 138 OFFCURVE",
"72 138 OFFCURVE",
"89 140 CURVE",
"119 142 OFFCURVE",
"144 169 OFFCURVE",
"140 194 CURVE",
"137 227 OFFCURVE",
"107 237 OFFCURVE",
"85 235 CURVE SMOOTH",
"44 231 OFFCURVE",
"-5 203 OFFCURVE",
"1 142 CURVE SMOOTH",
"9 64 OFFCURVE",
"88 -2 OFFCURVE",
"227 -2 CURVE SMOOTH {name = hr01;}"
);
},
{
closed = 1;
nodes = (
"696 410 OFFCURVE",
"654 465 OFFCURVE",
"654 583 CURVE SMOOTH",
"654 899 OFFCURVE",
"1309 1366 OFFCURVE",
"1722 1366 CURVE SMOOTH",
"1749 1366 OFFCURVE",
"1793 1363 OFFCURVE",
"1827 1358 CURVE",
"1606 1316 OFFCURVE",
"1298 1117 OFFCURVE",
"916 592 CURVE SMOOTH",
"859 513 OFFCURVE",
"806 444 OFFCURVE",
"757 384 CURVE"
);
}
);
width = 2034;
}
);
unicode = 0049;
},
{
color = 1;
glyphname = IJ;
lastChange = "2022-05-08 20:50:57 +0000";
layers = (
{
layerId = master01;
paths = (
{
closed = 1;
nodes = (
"958 -741 OFFCURVE",
"1236 -557 OFFCURVE",
"1724 49 CURVE",
"1997 124 OFFCURVE",
"2044 145 OFFCURVE",
"2166 196 CURVE SMOOTH",
"2193 207 OFFCURVE",
"2199 215 OFFCURVE",
"2200 223 CURVE SMOOTH",
"2200 228 OFFCURVE",
"2191 231 OFFCURVE",
"2191 231 CURVE",
"2186 231 OFFCURVE",
"2178 225 OFFCURVE",
"2150 213 CURVE",
"1979 147 OFFCURVE",
"1953 144 OFFCURVE",
"1758 92 CURVE",
"1813 160 OFFCURVE",
"1870 234 OFFCURVE",
"1929 313 CURVE",
"1939 313 LINE SMOOTH",
"2275 313 OFFCURVE",
"2641 692 OFFCURVE",
"2641 1020 CURVE SMOOTH",
"2641 1044 OFFCURVE",
"2640 1066 OFFCURVE",
"2630 1066 CURVE SMOOTH",
"2626 1066 OFFCURVE",
"2619 1059 OFFCURVE",
"2619 1035 CURVE SMOOTH",
"2619 750 OFFCURVE",
"2228 340 OFFCURVE",
"1950 340 CURVE",
"2023 438 OFFCURVE",
"2101 543 OFFCURVE",
"2184 658 CURVE",
"2448 1060 OFFCURVE",
"2712 1304 OFFCURVE",
"2941 1360 CURVE",
"2960 1360 OFFCURVE",
"2982 1359 OFFCURVE",
"3006 1359 CURVE SMOOTH",
"3042 1359 OFFCURVE",
"3098 1359 OFFCURVE",
"3098 1381 CURVE SMOOTH",
"3098 1389 OFFCURVE",
"3088 1394 OFFCURVE",
"3060 1394 CURVE SMOOTH",
"3024 1394 OFFCURVE",
"2991 1387 OFFCURVE",
"2958 1387 CURVE SMOOTH",
"2904 1387 OFFCURVE",
"2840 1401 OFFCURVE",
"2774 1401 CURVE SMOOTH",
"2204 1401 OFFCURVE",
"1663 1009 OFFCURVE",
"1663 581 CURVE SMOOTH",
"1663 473 OFFCURVE",
"1723 391 OFFCURVE",
"1804 347 CURVE",
"1731 245 OFFCURVE",
"1657 143 OFFCURVE",
"1583 46 CURVE",
"1045 -102 OFFCURVE",
"639 -422 OFFCURVE",
"639 -649 CURVE SMOOTH {name = hr00;}",
"639 -691 OFFCURVE",
"666 -741 OFFCURVE",
"731 -741 CURVE SMOOTH"
);
},
{
closed = 1;
nodes = (
"697 -716 OFFCURVE",
"671 -690 OFFCURVE",
"671 -656 CURVE SMOOTH",
"671 -494 OFFCURVE",
"1185 -125 OFFCURVE",
"1549 1 CURVE",
"1243 -398 OFFCURVE",
"945 -716 OFFCURVE",
"734 -716 CURVE SMOOTH"
);
},
{
closed = 1;
nodes = (
"406 -2 OFFCURVE",
"636 127 OFFCURVE",
"851 337 CURVE",
"874 337 LINE SMOOTH",
"1196 337 OFFCURVE",
"1578 634 OFFCURVE",
"1578 1017 CURVE SMOOTH",
"1578 1048 OFFCURVE",
"1577 1066 OFFCURVE",
"1566 1066 CURVE SMOOTH",
"1562 1066 OFFCURVE",
"1555 1067 OFFCURVE",
"1555 1036 CURVE SMOOTH",
"1555 663 OFFCURVE",
"1168 365 OFFCURVE",
"886 365 CURVE SMOOTH",
"878 365 LINE",
"967 455 OFFCURVE",
"1052 559 OFFCURVE",
"1131 673 CURVE SMOOTH",
"1368 1017 OFFCURVE",
"1579 1229 OFFCURVE",
"1784 1320 CURVE",
"1814 1332 OFFCURVE",
"1839 1342 OFFCURVE",
"1878 1351 CURVE",
"1912 1351 OFFCURVE",
"1950 1349 OFFCURVE",
"2001 1352 CURVE SMOOTH",
"2026 1353 OFFCURVE",
"2034 1362 OFFCURVE",
"2034 1371 CURVE SMOOTH",
"2034 1379 OFFCURVE",
"2023 1385 OFFCURVE",
"1997 1385 CURVE SMOOTH",
"1961 1385 OFFCURVE",
"1928 1378 OFFCURVE",
"1895 1378 CURVE SMOOTH",
"1866 1378 OFFCURVE",
"1838 1383 OFFCURVE",
"1807 1385 CURVE",
"1779 1389 OFFCURVE",
"1751 1392 OFFCURVE",
"1720 1392 CURVE SMOOTH",
"1113 1392 OFFCURVE",
"606 984 OFFCURVE",
"606 608 CURVE SMOOTH",
"606 471 OFFCURVE",
"664 398 OFFCURVE",
"739 363 CURVE",
"524 106 OFFCURVE",
"379 24 OFFCURVE",
"225 24 CURVE SMOOTH",
"114 24 OFFCURVE",
"48 75 OFFCURVE",
"42 139 CURVE SMOOTH",
"42 145 LINE",
"55 138 OFFCURVE",
"72 138 OFFCURVE",
"89 140 CURVE",
"119 142 OFFCURVE",
"144 169 OFFCURVE",
"140 194 CURVE",
"137 227 OFFCURVE",
"107 237 OFFCURVE",
"85 235 CURVE SMOOTH",
"44 231 OFFCURVE",
"-5 203 OFFCURVE",
"1 142 CURVE SMOOTH",
"9 64 OFFCURVE",
"88 -2 OFFCURVE",
"227 -2 CURVE SMOOTH"
);
},
{
closed = 1;
nodes = (
"696 410 OFFCURVE",
"654 465 OFFCURVE",
"654 583 CURVE SMOOTH",
"654 899 OFFCURVE",
"1309 1366 OFFCURVE",
"1722 1366 CURVE SMOOTH",
"1749 1366 OFFCURVE",
"1793 1363 OFFCURVE",
"1827 1358 CURVE",
"1606 1316 OFFCURVE",
"1298 1117 OFFCURVE",
"916 592 CURVE SMOOTH",
"859 513 OFFCURVE",
"806 444 OFFCURVE",
"757 384 CURVE"
);
},
{
closed = 1;
nodes = (
"1760 409 OFFCURVE",
"1718 473 OFFCURVE",
"1718 565 CURVE SMOOTH",
"1718 910 OFFCURVE",
"2376 1375 OFFCURVE",
"2786 1375 CURVE SMOOTH",
"2812 1375 OFFCURVE",
"2856 1372 OFFCURVE",
"2891 1367 CURVE",
"2683 1320 OFFCURVE",
"2316 1078 OFFCURVE",
"1943 545 CURVE SMOOTH",
"1822 373 LINE"
);
}
);
width = 3098;
}
);
unicode = 0132;
},
{
color = 4;
glyphname = J;
lastChange = "2022-05-08 21:10:24 +0000";
layers = (
{
anchors = (
{
name = bottom;
position = "{1107, 0}";
},
{
name = top;
position = "{2028, 1446}";
}
);
layerId = master01;
paths = (
{
closed = 1;
nodes = (
"320 -741 OFFCURVE",
"597 -557 OFFCURVE",
"1085 49 CURVE",
"1358 124 OFFCURVE",
"1405 145 OFFCURVE",
"1527 196 CURVE SMOOTH",
"1554 207 OFFCURVE",
"1560 215 OFFCURVE",
"1561 223 CURVE SMOOTH",
"1561 228 OFFCURVE",
"1552 231 OFFCURVE",
"1552 231 CURVE",
"1547 231 OFFCURVE",
"1539 225 OFFCURVE",
"1511 213 CURVE",
"1340 147 OFFCURVE",
"1314 144 OFFCURVE",
"1119 92 CURVE",
"1174 160 OFFCURVE",
"1231 234 OFFCURVE",
"1290 313 CURVE",
"1300 313 LINE SMOOTH",
"1636 313 OFFCURVE",
"2002 692 OFFCURVE",
"2002 1020 CURVE SMOOTH",
"2002 1044 OFFCURVE",
"2001 1066 OFFCURVE",
"1991 1066 CURVE SMOOTH {name = hr03;}",
"1987 1066 OFFCURVE",
"1980 1059 OFFCURVE",
"1980 1035 CURVE SMOOTH",
"1980 750 OFFCURVE",
"1589 340 OFFCURVE",
"1311 340 CURVE",
"1384 438 OFFCURVE",
"1462 543 OFFCURVE",
"1545 658 CURVE",
"1809 1060 OFFCURVE",
"2073 1304 OFFCURVE",
"2302 1360 CURVE",
"2321 1360 OFFCURVE",
"2343 1359 OFFCURVE",
"2367 1359 CURVE SMOOTH {name = hr04;}",
"2403 1359 OFFCURVE",
"2459 1359 OFFCURVE",
"2459 1381 CURVE SMOOTH",
"2459 1389 OFFCURVE",
"2449 1394 OFFCURVE",
"2421 1394 CURVE SMOOTH",
"2385 1394 OFFCURVE",
"2352 1387 OFFCURVE",
"2319 1387 CURVE SMOOTH",
"2265 1387 OFFCURVE",
"2201 1401 OFFCURVE",
"2135 1401 CURVE SMOOTH",
"1565 1401 OFFCURVE",
"1024 1009 OFFCURVE",
"1024 581 CURVE SMOOTH",
"1024 473 OFFCURVE",
"1084 391 OFFCURVE",
"1165 347 CURVE",
"1092 245 OFFCURVE",
"1018 143 OFFCURVE",
"944 46 CURVE {name = hr01;}",
"407 -102 OFFCURVE",
"0 -422 OFFCURVE",
"0 -649 CURVE SMOOTH",
"0 -691 OFFCURVE",
"27 -741 OFFCURVE",
"92 -741 CURVE SMOOTH"
);
},
{
closed = 1;
nodes = (
"58 -716 OFFCURVE",
"32 -690 OFFCURVE",
"32 -656 CURVE SMOOTH",
"32 -494 OFFCURVE",
"547 -125 OFFCURVE",
"910 1 CURVE",
"605 -398 OFFCURVE",
"306 -716 OFFCURVE",
"95 -716 CURVE SMOOTH"
);
},
{
closed = 1;
nodes = (
"1121 409 OFFCURVE",
"1079 473 OFFCURVE",
"1079 565 CURVE SMOOTH",
"1079 910 OFFCURVE",
"1737 1375 OFFCURVE",
"2147 1375 CURVE SMOOTH",
"2173 1375 OFFCURVE",
"2217 1372 OFFCURVE",
"2252 1367 CURVE",
"2044 1320 OFFCURVE",
"1678 1077 OFFCURVE",
"1304 545 CURVE SMOOTH",
"1183 373 LINE"
);
}
);
width = 2459;
}
);
unicode = 004A;
},
{
color = 4;
glyphname = K;
lastChange = "2022-05-08 21:10:40 +0000";
layers = (
{
anchors = (
{
name = bottom;
position = "{730, 0}";
},
{
name = top;
position = "{2086, 1446}";
}
);
layerId = master01;
paths = (
{
closed = 1;
nodes = (
"432 -2 OFFCURVE",
"762 192 OFFCURVE",
"1107 651 CURVE",
"1574 1277 OFFCURVE",
"1771 1402 OFFCURVE",
"1857 1426 CURVE SMOOTH",
"1863 1428 OFFCURVE",
"1867 1433 OFFCURVE",
"1867 1438 CURVE SMOOTH",
"1867 1444 OFFCURVE",
"1861 1446 OFFCURVE",
"1853 1446 CURVE SMOOTH",
"1822 1446 OFFCURVE",
"1745 1411 OFFCURVE",
"1551 1255 CURVE",
"1369 1101 OFFCURVE",
"1210 1011 OFFCURVE",
"1063 1011 CURVE SMOOTH",
"1031 1011 OFFCURVE",
"1008 1025 OFFCURVE",
"1008 1043 CURVE SMOOTH",
"1008 1065 OFFCURVE",
"1031 1075 OFFCURVE",
"1068 1099 CURVE SMOOTH",
"1175 1166 OFFCURVE",
"1216 1243 OFFCURVE",
"1216 1311 CURVE SMOOTH {name = hr03;}",
"1216 1368 OFFCURVE",
"1149 1411 OFFCURVE",
"1057 1411 CURVE SMOOTH",
"739 1411 OFFCURVE",
"579 1110 OFFCURVE",
"549 996 CURVE SMOOTH",
"547 990 OFFCURVE",
"547 987 OFFCURVE",
"547 980 CURVE SMOOTH",
"547 968 OFFCURVE",
"552 962 OFFCURVE",
"558 962 CURVE SMOOTH",
"564 962 OFFCURVE",
"566 969 OFFCURVE",
"572 988 CURVE",
"606 1142 OFFCURVE",
"798 1383 OFFCURVE",
"1050 1383 CURVE SMOOTH",
"1117 1383 OFFCURVE",
"1159 1365 OFFCURVE",
"1159 1321 CURVE SMOOTH",
"1159 1305 OFFCURVE",
"1145 1290 OFFCURVE",
"1112 1267 CURVE SMOOTH",
"1012 1195 OFFCURVE",
"963 1130 OFFCURVE",
"963 1064 CURVE SMOOTH",
"963 1010 OFFCURVE",
"1004 983 OFFCURVE",
"1063 983 CURVE SMOOTH",
"1169 983 OFFCURVE",
"1277 1031 OFFCURVE",
"1403 1115 CURVE",
"1178 907 OFFCURVE",
"974 711 OFFCURVE",
"863 560 CURVE SMOOTH",
"562 152 OFFCURVE",
"350 24 OFFCURVE",
"198 24 CURVE SMOOTH",
"100 24 OFFCURVE",
"39 66 OFFCURVE",
"39 124 CURVE SMOOTH",
"39 130 LINE",
"52 122 OFFCURVE",
"69 121 OFFCURVE",
"86 121 CURVE SMOOTH",
"116 121 OFFCURVE",
"143 144 OFFCURVE",
"143 170 CURVE SMOOTH",
"143 203 OFFCURVE",
"114 215 OFFCURVE",
"93 215 CURVE SMOOTH",
"52 215 OFFCURVE",
"0 193 OFFCURVE",
"0 132 CURVE SMOOTH",
"0 58 OFFCURVE",
"74 -2 OFFCURVE",
"199 -2 CURVE SMOOTH {name = hr01;}"
);
},
{
closed = 1;
nodes = (
"1291 710 OFFCURVE",
"1270 724 OFFCURVE",
"1270 736 CURVE SMOOTH",
"1270 744 OFFCURVE",
"1295 759 OFFCURVE",
"1325 760 CURVE SMOOTH",
"1362 762 OFFCURVE",
"1404 752 OFFCURVE",
"1428 729 CURVE",
"1400 718 OFFCURVE",
"1373 713 OFFCURVE",
"1345 712 CURVE SMOOTH"
);
},
{
closed = 1;
nodes = (
"1414 -14 OFFCURVE",
"1704 293 OFFCURVE",
"1704 483 CURVE SMOOTH",
"1704 505 OFFCURVE",
"1698 521 OFFCURVE",
"1692 521 CURVE SMOOTH",
"1688 521 OFFCURVE",
"1683 510 OFFCURVE",
"1678 490 CURVE SMOOTH",
"1605 201 OFFCURVE",
"1356 14 OFFCURVE",
"1230 14 CURVE SMOOTH",
"1156 14 OFFCURVE",
"1134 32 OFFCURVE",
"1134 67 CURVE SMOOTH",
"1134 91 OFFCURVE",
"1150 123 OFFCURVE",
"1227 193 CURVE SMOOTH",
"1454 397 OFFCURVE",
"1495 526 OFFCURVE",
"1495 638 CURVE SMOOTH",
"1495 669 OFFCURVE",
"1488 694 OFFCURVE",
"1477 715 CURVE",
"1639 774 OFFCURVE",
"1819 912 OFFCURVE",
"2011 1102 CURVE",
"2254 1330 OFFCURVE",
"2349 1389 OFFCURVE",
"2468 1389 CURVE SMOOTH",
"2551 1389 OFFCURVE",
"2583 1330 OFFCURVE",
"2575 1295 CURVE SMOOTH",
"2571 1277 LINE",
"2560 1287 OFFCURVE",
"2545 1292 OFFCURVE",
"2527 1292 CURVE SMOOTH",
"2494 1292 OFFCURVE",
"2463 1265 OFFCURVE",
"2459 1239 CURVE SMOOTH",
"2454 1211 OFFCURVE",
"2469 1181 OFFCURVE",
"2509 1181 CURVE SMOOTH",
"2550 1181 OFFCURVE",
"2596 1219 OFFCURVE",
"2607 1281 CURVE SMOOTH",
"2620 1355 OFFCURVE",
"2567 1412 OFFCURVE",
"2468 1412 CURVE SMOOTH",
"2289 1412 OFFCURVE",
"2001 1280 OFFCURVE",
"1730 983 CURVE",
"1621 860 OFFCURVE",
"1537 781 OFFCURVE",
"1457 741 CURVE",
"1426 772 OFFCURVE",
"1378 783 OFFCURVE",
"1323 782 CURVE SMOOTH",
"1256 780 OFFCURVE",
"1221 757 OFFCURVE",
"1221 735 CURVE SMOOTH",
"1221 709 OFFCURVE",
"1265 681 OFFCURVE",
"1331 684 CURVE SMOOTH",
"1367 685 OFFCURVE",
"1405 692 OFFCURVE",
"1444 704 CURVE",
"1446 698 OFFCURVE",
"1447 692 OFFCURVE",
"1447 685 CURVE SMOOTH",
"1447 654 OFFCURVE",
"1427 589 OFFCURVE",
"1377 540 CURVE SMOOTH",
"1130 298 OFFCURVE",
"1081 174 OFFCURVE",
"1081 90 CURVE SMOOTH",
"1081 22 OFFCURVE",
"1126 -14 OFFCURVE",
"1217 -14 CURVE SMOOTH {name = hr05;}"
);
}
);
width = 2609;
}
);
unicode = 004B;
},
{
color = 4;
glyphname = L;
lastChange = "2022-05-08 21:11:03 +0000";
layers = (
{
anchors = (
{
name = bottom;
position = "{608, 0}";
},
{
name = center;
position = "{1152, 694}";
},
{
name = top;
position = "{1856, 1446}";
},
{
name = topright;
position = "{2268, 1017}";
}
);
layerId = master01;
paths = (
{
closed = 1;
nodes = (
"1156 -25 OFFCURVE",
"1270 -2 OFFCURVE",
"1378 95 CURVE SMOOTH",
"1389 105 OFFCURVE",
"1398 121 OFFCURVE",
"1394 131 CURVE SMOOTH",
"1391 137 OFFCURVE",
"1382 135 OFFCURVE",
"1374 127 CURVE SMOOTH",
"1354 106 OFFCURVE",
"1270 24 OFFCURVE",
"1047 24 CURVE SMOOTH",
"866 24 OFFCURVE",
"727 48 OFFCURVE",
"612 89 CURVE",
"764 169 OFFCURVE",
"903 301 OFFCURVE",
"1049 496 CURVE",
"1502 566 OFFCURVE",
"2099 999 OFFCURVE",
"2099 1280 CURVE SMOOTH",
"2099 1353 OFFCURVE",
"2031 1401 OFFCURVE",
"1933 1401 CURVE SMOOTH",
"1646 1401 OFFCURVE",
"1389 1210 OFFCURVE",
"1056 712 CURVE SMOOTH",
"1007 639 OFFCURVE",
"962 574 OFFCURVE",
"920 515 CURVE",
"673 518 OFFCURVE",
"515 608 OFFCURVE",
"515 814 CURVE SMOOTH",
"515 946 OFFCURVE",
"616 1101 OFFCURVE",
"823 1121 CURVE SMOOTH",
"855 1124 OFFCURVE",
"855 1126 OFFCURVE",
"855 1133 CURVE SMOOTH",
"855 1137 OFFCURVE",
"855 1145 OFFCURVE",
"833 1145 CURVE SMOOTH",
"627 1145 OFFCURVE",
"440 961 OFFCURVE",
"440 790 CURVE SMOOTH",
"440 617 OFFCURVE",
"623 495 OFFCURVE",
"899 486 CURVE",
"759 295 OFFCURVE",
"653 179 OFFCURVE",
"551 112 CURVE",
"424 157 OFFCURVE",
"324 182 OFFCURVE",
"224 182 CURVE SMOOTH",
"90 182 OFFCURVE",
"0 142 OFFCURVE",
"0 80 CURVE SMOOTH",
"0 40 OFFCURVE",
"69 -2 OFFCURVE",
"220 -2 CURVE SMOOTH {name = hr01;}",
"347 -2 OFFCURVE",
"460 20 OFFCURVE",
"566 67 CURVE",
"700 28 OFFCURVE",
"903 -25 OFFCURVE",
"1040 -25 CURVE SMOOTH {name = hr03;}"
);
},
{
closed = 1;
nodes = (
"95 22 OFFCURVE",
"28 59 OFFCURVE",
"28 81 CURVE SMOOTH",
"28 111 OFFCURVE",
"98 131 OFFCURVE",
"232 131 CURVE SMOOTH",
"312 131 OFFCURVE",
"416 110 OFFCURVE",
"506 85 CURVE",
"413 35 OFFCURVE",
"321 22 OFFCURVE",
"206 22 CURVE SMOOTH"
);
},
{
closed = 1;
nodes = (
"1147 629 OFFCURVE",
"1224 746 OFFCURVE",
"1306 880 CURVE SMOOTH",
"1502 1199 OFFCURVE",
"1712 1378 OFFCURVE",
"1927 1378 CURVE SMOOTH",
"1987 1378 OFFCURVE",
"2032 1333 OFFCURVE",
"2032 1286 CURVE SMOOTH",
"2032 1017 OFFCURVE",
"1513 606 OFFCURVE",
"1073 528 CURVE"
);
}
);
width = 2099;
}
);
unicode = 004C;
},
{
color = 1;
glyphname = Lslash;
lastChange = "2022-05-08 21:11:26 +0000";
layers = (
{
layerId = master01;
paths = (
{
closed = 1;
nodes = (
"1156 -25 OFFCURVE",
"1270 -2 OFFCURVE",
"1378 95 CURVE SMOOTH",
"1389 105 OFFCURVE",
"1398 121 OFFCURVE",
"1394 131 CURVE SMOOTH",
"1391 137 OFFCURVE",
"1382 135 OFFCURVE",
"1374 127 CURVE SMOOTH",
"1354 106 OFFCURVE",
"1270 24 OFFCURVE",
"1047 24 CURVE SMOOTH",
"866 24 OFFCURVE",
"727 48 OFFCURVE",
"612 89 CURVE",
"768 170 OFFCURVE",
"909 308 OFFCURVE",
"1059 510 CURVE",
"1399 594 LINE",
"1401 612 OFFCURVE",
"1414 621 OFFCURVE",
"1420 635 CURVE",
"1090 552 LINE",
"1134 612 OFFCURVE",
"1178 678 OFFCURVE",
"1224 749 CURVE",
"1647 803 OFFCURVE",
"2099 1053 OFFCURVE",
"2099 1280 CURVE SMOOTH",
"2099 1353 OFFCURVE",
"2031 1401 OFFCURVE",
"1933 1401 CURVE SMOOTH",
"1657 1401 OFFCURVE",
"1408 1224 OFFCURVE",
"1093 767 CURVE",
"1068 767 LINE SMOOTH",
"814 767 OFFCURVE",
"649 857 OFFCURVE",
"649 1066 CURVE SMOOTH",
"649 1198 OFFCURVE",
"751 1353 OFFCURVE",
"957 1373 CURVE",
"989 1373 OFFCURVE",
"989 1373 OFFCURVE",
"989 1385 CURVE",
"967 1396 LINE",
"761 1396 OFFCURVE",
"574 1213 OFFCURVE",
"574 1042 CURVE SMOOTH",
"574 863 OFFCURVE",
"771 738 OFFCURVE",
"1064 738 CURVE SMOOTH",
"1073 738 LINE",
"1067 729 OFFCURVE",
"1062 720 OFFCURVE",
"1056 712 CURVE SMOOTH",
"1005 635 OFFCURVE",
"958 568 OFFCURVE",
"914 507 CURVE",
"596 427 LINE",
"592 412 OFFCURVE",
"584 405 OFFCURVE",
"573 389 CURVE",
"884 466 LINE",
"752 287 OFFCURVE",
"649 177 OFFCURVE",
"551 112 CURVE",
"424 157 OFFCURVE",
"324 182 OFFCURVE",
"224 182 CURVE SMOOTH",
"90 182 OFFCURVE",
"0 142 OFFCURVE",
"0 80 CURVE SMOOTH",
"0 40 OFFCURVE",
"69 -2 OFFCURVE",
"220 -2 CURVE SMOOTH {name = hr01;}",
"347 -2 OFFCURVE",
"460 20 OFFCURVE",
"566 67 CURVE",
"700 28 OFFCURVE",
"903 -25 OFFCURVE",
"1040 -25 CURVE SMOOTH {name = hr02;}"
);
},
{
closed = 1;
nodes = (
"95 22 OFFCURVE",
"28 59 OFFCURVE",
"28 81 CURVE SMOOTH",
"28 111 OFFCURVE",
"98 131 OFFCURVE",
"232 131 CURVE SMOOTH",
"312 131 OFFCURVE",
"416 110 OFFCURVE",
"506 85 CURVE",
"413 35 OFFCURVE",
"321 22 OFFCURVE",
"206 22 CURVE SMOOTH"
);
},
{
closed = 1;
nodes = (
"1264 811 OFFCURVE",
"1284 845 OFFCURVE",
"1306 880 CURVE SMOOTH",
"1502 1199 OFFCURVE",
"1712 1378 OFFCURVE",
"1927 1378 CURVE SMOOTH",
"1987 1378 OFFCURVE",
"2032 1333 OFFCURVE",
"2032 1286 CURVE SMOOTH",
"2032 1070 OFFCURVE",
"1648 835 OFFCURVE",
"1243 779 CURVE"
);
}
);
width = 2099;
}
);
unicode = 0141;
},
{
color = 4;
glyphname = M;
lastChange = "2022-05-08 21:01:39 +0000";
layers = (
{
anchors = (
{
name = bottom;
position = "{942, 0}";
},
{
name = top;
position = "{2171, 1446}";
}
);
layerId = master01;
paths = (
{
closed = 1;
nodes = (
"1555 -2 OFFCURVE",
"1694 39 OFFCURVE",
"1781 112 CURVE",
"1783 115 OFFCURVE",
"1786 122 OFFCURVE",
"1786 135 CURVE SMOOTH",
"1786 141 OFFCURVE",
"1783 147 OFFCURVE",
"1781 148 CURVE",
"1700 70 OFFCURVE",
"1563 25 OFFCURVE",
"1505 25 CURVE SMOOTH",
"1468 25 OFFCURVE",
"1447 42 OFFCURVE",
"1447 67 CURVE SMOOTH",
"1447 90 OFFCURVE",
"1456 111 OFFCURVE",
"1551 250 CURVE",
"1829 645 OFFCURVE",
"2199 1178 OFFCURVE",
"2463 1410 CURVE",
"2503 1444 OFFCURVE",
"2545 1469 OFFCURVE",
"2545 1479 CURVE SMOOTH",
"2545 1485 OFFCURVE",
"2540 1487 OFFCURVE",
"2535 1487 CURVE SMOOTH",
"2473 1487 OFFCURVE",
"2307 1382 OFFCURVE",
"1962 1060 CURVE",
"1527 649 OFFCURVE",
"1371 484 OFFCURVE",
"1008 65 CURVE",
"1104 266 OFFCURVE",
"1733 1269 OFFCURVE",
"1854 1399 CURVE",
"1882 1427 OFFCURVE",
"1901 1443 OFFCURVE",
"1914 1455 CURVE SMOOTH",
"1926 1465 OFFCURVE",
"1929 1467 OFFCURVE",
"1929 1474 CURVE SMOOTH",
"1929 1480 OFFCURVE",
"1911 1484 OFFCURVE",
"1902 1484 CURVE SMOOTH",
"1884 1484 OFFCURVE",
"1707 1360 OFFCURVE",
"1310 926 CURVE SMOOTH",
"679 235 OFFCURVE",
"383 26 OFFCURVE",
"187 26 CURVE SMOOTH",
"89 26 OFFCURVE",
"38 63 OFFCURVE",
"38 121 CURVE SMOOTH",
"38 124 OFFCURVE",
"39 128 OFFCURVE",
"39 133 CURVE",
"52 124 OFFCURVE",
"70 122 OFFCURVE",
"87 122 CURVE SMOOTH",
"117 122 OFFCURVE",
"144 146 OFFCURVE",
"144 172 CURVE SMOOTH",
"144 204 OFFCURVE",
"114 218 OFFCURVE",
"93 218 CURVE SMOOTH",
"52 218 OFFCURVE",
"0 188 OFFCURVE",
"0 127 CURVE SMOOTH",
"0 52 OFFCURVE",
"63 -1 OFFCURVE",
"188 -1 CURVE SMOOTH",
"252 -1 OFFCURVE",
"316 17 OFFCURVE",
"400 59 CURVE SMOOTH {name = hr00;}",
"586 154 OFFCURVE",
"828 353 OFFCURVE",
"1132 687 CURVE SMOOTH",
"1482 1072 OFFCURVE",
"1673 1267 OFFCURVE",
"1748 1335 CURVE",
"1280 807 OFFCURVE",
"952 274 OFFCURVE",
"952 49 CURVE SMOOTH",
"952 19 OFFCURVE",
"965 7 OFFCURVE",
"974 7 CURVE SMOOTH",
"988 7 OFFCURVE",
"1006 15 OFFCURVE",
"1076 96 CURVE SMOOTH",
"1363 431 OFFCURVE",
"1582 650 OFFCURVE",
"1694 757 CURVE SMOOTH",
"2143 1185 OFFCURVE",
"2292 1322 OFFCURVE",
"2411 1407 CURVE",
"2171 1170 OFFCURVE",
"1758 752 OFFCURVE",
"1501 372 CURVE",
"1391 206 OFFCURVE",
"1367 132 OFFCURVE",
"1367 93 CURVE SMOOTH",
"1367 39 OFFCURVE",
"1406 -2 OFFCURVE",
"1488 -2 CURVE SMOOTH"
);
}
);
width = 2545;
}
);
unicode = 004D;
},
{
color = 4;
glyphname = N;
lastChange = "2022-05-08 21:05:56 +0000";
layers = (
{
anchors = (
{
name = bottom;
position = "{668, 0}";
},
{
name = top;
position = "{1894, 1388}";
}
);
layerId = master01;
paths = (
{
closed = 1;
nodes = (
"962 -19 OFFCURVE",
"975 -13 OFFCURVE",
"1010 28 CURVE SMOOTH",
"1124 158 OFFCURVE",
"1367 466 OFFCURVE",
"1700 830 CURVE SMOOTH",
"2118 1288 OFFCURVE",
"2388 1467 OFFCURVE",
"2612 1467 CURVE SMOOTH",
"2714 1467 OFFCURVE",
"2774 1406 OFFCURVE",
"2774 1301 CURVE SMOOTH",
"2774 1146 OFFCURVE",
"2596 980 OFFCURVE",
"2435 918 CURVE {name = hr03;}",
"2422 912 OFFCURVE",
"2418 907 OFFCURVE",
"2418 902 CURVE SMOOTH",
"2418 898 OFFCURVE",
"2421 895 OFFCURVE",
"2429 895 CURVE SMOOTH",
"2440 895 OFFCURVE",
"2463 902 OFFCURVE",
"2485 912 CURVE SMOOTH",
"2695 1013 OFFCURVE",
"2839 1194 OFFCURVE",
"2837 1318 CURVE SMOOTH",
"2836 1431 OFFCURVE",
"2763 1496 OFFCURVE",
"2623 1496 CURVE",
"2397 1493 OFFCURVE",
"2162 1353 OFFCURVE",
"1808 986 CURVE SMOOTH",
"1544 714 OFFCURVE",
"1225 331 OFFCURVE",
"1099 178 CURVE",
"1246 437 OFFCURVE",
"1317 554 OFFCURVE",
"1398 774 CURVE SMOOTH",
"1472 975 OFFCURVE",
"1493 1076 OFFCURVE",
"1523 1181 CURVE SMOOTH",
"1539 1237 OFFCURVE",
"1555 1286 OFFCURVE",
"1588 1342 CURVE",
"1602 1368 LINE SMOOTH",
"1605 1373 OFFCURVE",
"1606 1375 OFFCURVE",
"1606 1381 CURVE SMOOTH",
"1606 1386 OFFCURVE",
"1602 1390 OFFCURVE",
"1597 1390 CURVE SMOOTH",
"1590 1390 OFFCURVE",
"1585 1384 OFFCURVE",
"1572 1368 CURVE",
"1551 1336 OFFCURVE",
"1329 1050 OFFCURVE",
"911 578 CURVE SMOOTH",
"540 161 OFFCURVE",
"323 25 OFFCURVE",
"199 25 CURVE SMOOTH",
"90 25 OFFCURVE",
"40 67 OFFCURVE",
"40 125 CURVE SMOOTH",
"40 131 LINE",
"53 123 OFFCURVE",
"70 121 OFFCURVE",
"88 121 CURVE SMOOTH",
"117 121 OFFCURVE",
"144 145 OFFCURVE",
"144 171 CURVE SMOOTH",
"144 203 OFFCURVE",
"115 217 OFFCURVE",
"93 217 CURVE SMOOTH",
"52 217 OFFCURVE",
"0 193 OFFCURVE",
"0 133 CURVE SMOOTH",
"0 59 OFFCURVE",
"65 -2 OFFCURVE",
"201 -2 CURVE SMOOTH {name = hr01;}",
"367 -2 OFFCURVE",
"590 182 OFFCURVE",
"902 522 CURVE",
"1162 809 OFFCURVE",
"1278 956 OFFCURVE",
"1481 1209 CURVE",
"1319 931 OFFCURVE",
"1179 624 OFFCURVE",
"1108 388 CURVE SMOOTH",
"1045 176 OFFCURVE",
"1017 87 OFFCURVE",
"967 26 CURVE SMOOTH",
"962 19 OFFCURVE",
"953 13 OFFCURVE",
"948 8 CURVE",
"943 5 OFFCURVE",
"940 0 OFFCURVE",
"940 -5 CURVE SMOOTH",
"940 -13 OFFCURVE",
"947 -19 OFFCURVE",
"954 -19 CURVE SMOOTH"
);
},
{
closed = 1;
nodes = (
"665 815 OFFCURVE",
"823 923 OFFCURVE",
"823 1085 CURVE SMOOTH",
"823 1166 OFFCURVE",
"775 1219 OFFCURVE",
"726 1219 CURVE SMOOTH {name = hr05;}",
"694 1219 OFFCURVE",
"677 1196 OFFCURVE",
"677 1174 CURVE SMOOTH",
"677 1147 OFFCURVE",
"701 1129 OFFCURVE",
"726 1129 CURVE SMOOTH",
"743 1129 OFFCURVE",
"756 1139 OFFCURVE",
"765 1150 CURVE",
"781 1133 OFFCURVE",
"792 1109 OFFCURVE",
"792 1081 CURVE SMOOTH",
"792 931 OFFCURVE",
"641 839 OFFCURVE",
"504 839 CURVE SMOOTH",
"346 839 OFFCURVE",
"244 943 OFFCURVE",
"244 1085 CURVE SMOOTH",
"244 1257 OFFCURVE",
"413 1385 OFFCURVE",
"612 1385 CURVE SMOOTH",
"695 1385 OFFCURVE",
"764 1371 OFFCURVE",
"922 1280 CURVE SMOOTH",
"1005 1231 OFFCURVE",
"1125 1198 OFFCURVE",
"1208 1198 CURVE SMOOTH {name = hr06;}",
"1270 1198 OFFCURVE",
"1387 1236 OFFCURVE",
"1441 1288 CURVE",
"1452 1300 OFFCURVE",
"1455 1305 OFFCURVE",
"1455 1311 CURVE SMOOTH",
"1455 1313 OFFCURVE",
"1451 1319 OFFCURVE",
"1447 1319 CURVE SMOOTH",
"1441 1319 OFFCURVE",
"1436 1314 OFFCURVE",
"1424 1303 CURVE SMOOTH",
"1387 1271 OFFCURVE",
"1329 1249 OFFCURVE",
"1280 1249 CURVE SMOOTH",
"1236 1249 OFFCURVE",
"1186 1262 OFFCURVE",
"1141 1281 CURVE",
"1065 1316 OFFCURVE",
"1011 1343 OFFCURVE",
"943 1371 CURVE SMOOTH",
"839 1414 OFFCURVE",
"759 1424 OFFCURVE",
"662 1424 CURVE SMOOTH",
"395 1424 OFFCURVE",
"212 1279 OFFCURVE",
"212 1091 CURVE SMOOTH",
"212 905 OFFCURVE",
"353 815 OFFCURVE",
"508 815 CURVE SMOOTH"
);
}
);
width = 2838;
}
);
unicode = 004E;
},
{
color = 4;
glyphname = O;
lastChange = "2022-05-08 21:02:12 +0000";
layers = (
{
anchors = (
{
name = bottom;
position = "{211, 0}";
},
{
name = center;
position = "{834, 694}";
},
{
name = ogonek;
position = "{395, 10}";
},
{
name = top;
position = "{1204, 1446}";
},
{
name = topleft;
position = "{348, 1388}";
},
{
name = topright;
position = "{1771, 1388}";
}
);
layerId = master01;
paths = (
{
closed = 1;
nodes = (
"739 -2 OFFCURVE",
"1236 520 OFFCURVE",
"1236 899 CURVE SMOOTH",
"1236 1053 OFFCURVE",
"1134 1121 OFFCURVE",
"1027 1121 CURVE SMOOTH",
"721 1121 OFFCURVE",
"401 789 OFFCURVE",
"401 408 CURVE SMOOTH",
"401 328 OFFCURVE",
"429 247 OFFCURVE",
"454 215 CURVE SMOOTH",
"463 203 OFFCURVE",
"471 194 OFFCURVE",
"477 197 CURVE SMOOTH",
"486 202 OFFCURVE",
"479 211 OFFCURVE",
"477 215 CURVE SMOOTH",
"441 268 OFFCURVE",
"431 344 OFFCURVE",
"431 396 CURVE SMOOTH",
"431 767 OFFCURVE",
"763 1093 OFFCURVE",
"1017 1093 CURVE SMOOTH",
"1122 1093 OFFCURVE",
"1187 1040 OFFCURVE",
"1187 925 CURVE SMOOTH",
"1187 538 OFFCURVE",
"654 23 OFFCURVE",
"294 23 CURVE SMOOTH",
"146 23 OFFCURVE",
"73 112 OFFCURVE",
"73 237 CURVE SMOOTH {name = hr00;}",
"73 644 OFFCURVE",
"748 1373 OFFCURVE",
"1181 1373 CURVE SMOOTH",
"1359 1373 OFFCURVE",
"1435 1297 OFFCURVE",
"1435 1188 CURVE SMOOTH",
"1435 1129 OFFCURVE",
"1411 1052 OFFCURVE",
"1394 1031 CURVE SMOOTH",
"1386 1020 OFFCURVE",
"1384 1017 OFFCURVE",
"1384 1013 CURVE SMOOTH",
"1384 1005 OFFCURVE",
"1386 1003 OFFCURVE",
"1392 1003 CURVE SMOOTH",
"1399 1003 OFFCURVE",
"1407 1013 OFFCURVE",
"1418 1027 CURVE",
"1439 1058 OFFCURVE",
"1463 1140 OFFCURVE",
"1463 1190 CURVE SMOOTH",
"1463 1312 OFFCURVE",
"1379 1401 OFFCURVE",
"1192 1401 CURVE SMOOTH",
"640 1401 OFFCURVE",
"0 799 OFFCURVE",
"0 301 CURVE SMOOTH",
"0 95 OFFCURVE",
"127 -2 OFFCURVE",
"282 -2 CURVE SMOOTH"
);
}
);
width = 1463;
}
);
unicode = 004F;
},
{
color = 4;
glyphname = Oslash;
lastChange = "2022-05-08 20:51:20 +0000";
layers = (
{
anchors = (
{
name = bottom;
position = "{609, 0}";
},
{
name = top;
position = "{980, 1446}";
}
);
layerId = master01;
paths = (
{
closed = 1;
nodes = (
"73 -176 OFFCURVE",
"92 -176 OFFCURVE",
"99 -176 CURVE SMOOTH",
"105 -176 OFFCURVE",
"113 -176 OFFCURVE",
"121 -177 CURVE",
"252 -1 LINE",
"262 -2 OFFCURVE",
"272 -2 OFFCURVE",
"282 -2 CURVE SMOOTH",
"739 -2 OFFCURVE",
"1236 520 OFFCURVE",
"1236 899 CURVE SMOOTH",
"1236 1025 OFFCURVE",
"1168 1093 OFFCURVE",
"1084 1114 CURVE",
"1271 1365 LINE",
"1385 1343 OFFCURVE",
"1435 1276 OFFCURVE",
"1435 1188 CURVE SMOOTH",
"1435 1133 OFFCURVE",
"1411 1068 OFFCURVE",
"1394 1048 CURVE SMOOTH",
"1386 1037 OFFCURVE",
"1384 1034 OFFCURVE",
"1384 1031 CURVE SMOOTH",
"1384 1023 OFFCURVE",
"1386 1020 OFFCURVE",
"1392 1020 CURVE SMOOTH",
"1399 1020 OFFCURVE",
"1407 1031 OFFCURVE",
"1418 1044 CURVE",
"1439 1073 OFFCURVE",
"1463 1143 OFFCURVE",
"1463 1190 CURVE SMOOTH",
"1463 1287 OFFCURVE",
"1403 1363 OFFCURVE",
"1290 1390 CURVE",
"1438 1588 LINE",
"1433 1587 OFFCURVE",
"1428 1586 OFFCURVE",
"1423 1586 CURVE SMOOTH",
"1414 1586 OFFCURVE",
"1392 1587 OFFCURVE",
"1386 1589 CURVE",
"1244 1398 LINE",
"1227 1400 OFFCURVE",
"1210 1401 OFFCURVE",
"1192 1401 CURVE SMOOTH",
"640 1401 OFFCURVE",
"0 793 OFFCURVE",
"0 301 CURVE SMOOTH",
"0 129 OFFCURVE",
"88 34 OFFCURVE",
"206 6 CURVE",
"70 -177 LINE {name = hr00;}"
);
},
{
closed = 1;
nodes = (
"1065 1088 LINE",
"1141 1073 OFFCURVE",
"1187 1021 OFFCURVE",
"1187 925 CURVE SMOOTH",
"1187 538 OFFCURVE",
"654 23 OFFCURVE",
"294 23 CURVE SMOOTH",
"271 23 LINE"
);
},
{
closed = 1;
nodes = (
"123 54 OFFCURVE",
"73 133 OFFCURVE",
"73 237 CURVE SMOOTH",
"73 640 OFFCURVE",
"748 1373 OFFCURVE",
"1181 1373 CURVE SMOOTH",
"1196 1373 OFFCURVE",
"1210 1372 OFFCURVE",
"1224 1371 CURVE",
"1037 1121 LINE",
"1027 1121 LINE SMOOTH",
"749 1121 OFFCURVE",
"440 824 OFFCURVE",
"385 508 CURVE SMOOTH",
"383 496 OFFCURVE",
"383 486 OFFCURVE",
"391 486 CURVE SMOOTH",
"402 486 OFFCURVE",
"408 492 OFFCURVE",
"412 507 CURVE",
"472 821 OFFCURVE",
"788 1092 OFFCURVE",
"1016 1093 CURVE",
"224 30 LINE"
);
}
);
width = 1463;
}
);
unicode = 00D8;
},
{
color = 4;
glyphname = OE;
lastChange = "2022-05-08 20:47:39 +0000";
layers = (
{
anchors = (
{
name = bottom;
position = "{1080, 0}";
},
{
name = top;
position = "{1531, 1388}";
}
);
layerId = master01;
paths = (
{
closed = 1;
nodes = (
"1293 -283 OFFCURVE",
"1299 -279 OFFCURVE",
"1299 -274 CURVE SMOOTH",
"1299 -269 OFFCURVE",
"1297 -267 OFFCURVE",
"1289 -259 CURVE",
"1243 -221 OFFCURVE",
"1211 -153 OFFCURVE",
"1211 -47 CURVE SMOOTH",
"1211 -32 OFFCURVE",
"1212 -16 OFFCURVE",
"1214 0 CURVE",
"1229 -1 OFFCURVE",
"1243 -2 OFFCURVE",
"1259 -2 CURVE SMOOTH",
"1535 -2 OFFCURVE",
"1777 193 OFFCURVE",
"1777 388 CURVE SMOOTH",
"1777 462 OFFCURVE",
"1733 511 OFFCURVE",
"1640 511 CURVE SMOOTH",
"1471 511 OFFCURVE",
"1319 381 OFFCURVE",
"1236 188 CURVE",
"1213 137 OFFCURVE",
"1198 82 OFFCURVE",
"1190 31 CURVE",
"1070 51 OFFCURVE",
"1004 124 OFFCURVE",
"1004 230 CURVE SMOOTH",
"1004 393 OFFCURVE",
"1321 700 OFFCURVE",
"1554 718 CURVE",
"1599 652 OFFCURVE",
"1675 620 OFFCURVE",
"1732 620 CURVE SMOOTH {name = hr04;}",
"1766 620 OFFCURVE",
"1787 629 OFFCURVE",
"1787 652 CURVE SMOOTH",
"1787 693 OFFCURVE",
"1723 739 OFFCURVE",
"1600 752 CURVE",
"1600 767 LINE SMOOTH",
"1600 889 OFFCURVE",
"1748 1137 OFFCURVE",
"1975 1281 CURVE",
"2031 1318 OFFCURVE",
"2130 1355 OFFCURVE",
"2217 1355 CURVE SMOOTH",
"2315 1355 OFFCURVE",
"2364 1311 OFFCURVE",
"2364 1239 CURVE SMOOTH",
"2364 1045 OFFCURVE",
"2063 812 OFFCURVE",
"1884 812 CURVE SMOOTH {name = hr05;}",
"1824 812 OFFCURVE",
"1797 839 OFFCURVE",
"1797 876 CURVE SMOOTH",
"1797 1001 OFFCURVE",
"2009 1203 OFFCURVE",
"2218 1203 CURVE SMOOTH",
"2236 1203 OFFCURVE",
"2250 1206 OFFCURVE",
"2250 1218 CURVE SMOOTH",
"2250 1222 OFFCURVE",
"2243 1229 OFFCURVE",
"2227 1229 CURVE SMOOTH",
"1977 1229 OFFCURVE",
"1765 1007 OFFCURVE",
"1765 877 CURVE SMOOTH",
"1765 824 OFFCURVE",
"1804 785 OFFCURVE",
"1880 785 CURVE SMOOTH",
"2160 785 OFFCURVE",
"2406 1041 OFFCURVE",
"2406 1237 CURVE SMOOTH",
"2406 1310 OFFCURVE",
"2353 1384 OFFCURVE",
"2195 1384 CURVE SMOOTH",
"2153 1384 OFFCURVE",
"2062 1373 OFFCURVE",
"1990 1350 CURVE SMOOTH",
"1723 1267 OFFCURVE",
"1519 1016 OFFCURVE",
"1519 839 CURVE SMOOTH {name = hr06;}",
"1519 808 OFFCURVE",
"1524 780 OFFCURVE",
"1534 756 CURVE",
"1530 756 LINE SMOOTH",
"1390 756 OFFCURVE",
"1258 713 OFFCURVE",
"1154 642 CURVE",
"1199 731 OFFCURVE",
"1226 818 OFFCURVE",
"1226 896 CURVE SMOOTH",
"1226 1050 OFFCURVE",
"1137 1121 OFFCURVE",
"1029 1121 CURVE SMOOTH",
"728 1121 OFFCURVE",
"409 684 OFFCURVE",
"409 359 CURVE SMOOTH",
"409 249 OFFCURVE",
"439 174 OFFCURVE",
"461 174 CURVE SMOOTH",
"466 174 OFFCURVE",
"469 178 OFFCURVE",
"469 184 CURVE SMOOTH",
"469 186 OFFCURVE",
"468 189 OFFCURVE",
"466 194 CURVE SMOOTH",
"450 226 OFFCURVE",
"438 294 OFFCURVE",
"438 344 CURVE SMOOTH",
"438 683 OFFCURVE",
"772 1093 OFFCURVE",
"1022 1093 CURVE SMOOTH",
"1127 1093 OFFCURVE",
"1183 1042 OFFCURVE",
"1183 927 CURVE SMOOTH",
"1183 592 OFFCURVE",
"649 26 OFFCURVE",
"299 26 CURVE SMOOTH",
"173 26 OFFCURVE",
"67 91 OFFCURVE",
"67 217 CURVE SMOOTH {name = hr01;}",
"67 613 OFFCURVE",
"789 1355 OFFCURVE",
"1175 1355 CURVE SMOOTH",
"1333 1355 OFFCURVE",
"1425 1279 OFFCURVE",
"1425 1156 CURVE SMOOTH",
"1425 1094 OFFCURVE",
"1404 1051 OFFCURVE",
"1387 1031 CURVE SMOOTH",
"1379 1020 OFFCURVE",
"1376 1017 OFFCURVE",
"1376 1013 CURVE SMOOTH",
"1376 1005 OFFCURVE",
"1380 1003 OFFCURVE",
"1384 1003 CURVE SMOOTH",
"1392 1003 OFFCURVE",
"1400 1013 OFFCURVE",
"1412 1027 CURVE",
"1432 1056 OFFCURVE",
"1454 1106 OFFCURVE",
"1454 1158 CURVE SMOOTH",
"1454 1296 OFFCURVE",
"1352 1384 OFFCURVE",
"1186 1384 CURVE SMOOTH",
"694 1384 OFFCURVE",
"0 805 OFFCURVE",
"0 312 CURVE SMOOTH",
"0 82 OFFCURVE",
"120 -2 OFFCURVE",
"275 -2 CURVE SMOOTH",
"495 -2 OFFCURVE",
"750 153 OFFCURVE",
"940 351 CURVE",
"933 321 OFFCURVE",
"930 291 OFFCURVE",
"930 261 CURVE SMOOTH",
"930 138 OFFCURVE",
"1026 29 OFFCURVE",
"1186 3 CURVE",
"1184 -17 OFFCURVE",
"1183 -37 OFFCURVE",
"1183 -56 CURVE SMOOTH {name = hr03;}",
"1183 -157 OFFCURVE",
"1215 -226 OFFCURVE",
"1261 -269 CURVE SMOOTH",
"1275 -282 OFFCURVE",
"1281 -283 OFFCURVE",
"1288 -283 CURVE SMOOTH"
);
},
{
closed = 1;
nodes = (
"1247 26 OFFCURVE",
"1233 27 OFFCURVE",
"1219 28 CURVE",
"1230 76 OFFCURVE",
"1249 130 OFFCURVE",
"1276 184 CURVE {name = hr09;}",
"1370 364 OFFCURVE",
"1546 480 OFFCURVE",
"1647 480 CURVE SMOOTH {name = hr10;}",
"1716 480 OFFCURVE",
"1741 459 OFFCURVE",
"1741 412 CURVE SMOOTH",
"1741 301 OFFCURVE",
"1455 26 OFFCURVE",
"1262 26 CURVE SMOOTH"
);
},
{
closed = 1;
nodes = (
"1681 648 OFFCURVE",
"1630 669 OFFCURVE",
"1609 718 CURVE",
"1694 711 OFFCURVE",
"1746 681 OFFCURVE",
"1746 660 CURVE SMOOTH {name = hr08;}",
"1746 652 OFFCURVE",
"1741 648 OFFCURVE",
"1732 648 CURVE SMOOTH"
);
}
);
width = 2406;
}
);
unicode = 0152;
},
{
color = 4;
glyphname = P;
lastChange = "2022-05-08 20:47:39 +0000";
layers = (
{
anchors = (
{
name = bottom;
position = "{760, 0}";
},
{
name = top;
position = "{1211, 1388}";
}
);
layerId = master01;
paths = (
{
closed = 1;
nodes = (
"402 -2 OFFCURVE",
"642 142 OFFCURVE",
"970 582 CURVE",
"1013 573 OFFCURVE",
"1062 568 OFFCURVE",
"1116 568 CURVE SMOOTH",
"1444 568 OFFCURVE",
"1762 805 OFFCURVE",
"1762 1054 CURVE SMOOTH",
"1762 1158 OFFCURVE",
"1709 1250 OFFCURVE",
"1601 1314 CURVE",
"1648 1344 OFFCURVE",
"1695 1365 OFFCURVE",
"1740 1374 CURVE",
"1762 1377 OFFCURVE",
"1766 1382 OFFCURVE",
"1766 1390 CURVE SMOOTH",
"1765 1400 OFFCURVE",
"1756 1400 OFFCURVE",
"1746 1400 CURVE SMOOTH",
"1714 1400 OFFCURVE",
"1648 1380 OFFCURVE",
"1565 1333 CURVE",
"1469 1379 OFFCURVE",
"1339 1406 OFFCURVE",
"1172 1406 CURVE SMOOTH",
"709 1406 OFFCURVE",
"198 1115 OFFCURVE",
"209 789 CURVE SMOOTH",
"212 689 OFFCURVE",
"298 622 OFFCURVE",
"373 622 CURVE SMOOTH {name = hr03;}",
"720 622 OFFCURVE",
"936 978 OFFCURVE",
"927 1210 CURVE",
"927 1231 OFFCURVE",
"927 1241 OFFCURVE",
"917 1241 CURVE SMOOTH",
"910 1241 OFFCURVE",
"905 1233 OFFCURVE",
"903 1207 CURVE",
"887 1070 OFFCURVE",
"616 649 OFFCURVE",
"376 649 CURVE SMOOTH",
"319 649 OFFCURVE",
"244 686 OFFCURVE",
"240 795 CURVE SMOOTH",
"231 1059 OFFCURVE",
"664 1384 OFFCURVE",
"1174 1384 CURVE SMOOTH",
"1337 1384 OFFCURVE",
"1455 1359 OFFCURVE",
"1531 1313 CURVE",
"1490 1286 LINE",
"1276 1139 OFFCURVE",
"1104 962 OFFCURVE",
"886 669 CURVE SMOOTH",
"872 650 LINE",
"851 664 OFFCURVE",
"839 680 OFFCURVE",
"839 695 CURVE SMOOTH",
"839 747 OFFCURVE",
"871 789 OFFCURVE",
"933 799 CURVE SMOOTH",
"944 801 OFFCURVE",
"945 805 OFFCURVE",
"945 807 CURVE SMOOTH",
"945 807 OFFCURVE",
"945 817 OFFCURVE",
"920 817 CURVE SMOOTH",
"862 817 OFFCURVE",
"799 774 OFFCURVE",
"799 714 CURVE SMOOTH",
"799 680 OFFCURVE",
"819 650 OFFCURVE",
"855 626 CURVE",
"480 109 OFFCURVE",
"370 26 OFFCURVE",
"199 26 CURVE SMOOTH",
"101 26 OFFCURVE",
"40 68 OFFCURVE",
"40 127 CURVE SMOOTH",
"40 132 LINE",
"53 124 OFFCURVE",
"70 122 OFFCURVE",
"87 122 CURVE SMOOTH",
"117 122 OFFCURVE",
"144 146 OFFCURVE",
"144 172 CURVE SMOOTH",
"144 204 OFFCURVE",
"114 218 OFFCURVE",
"94 218 CURVE SMOOTH",
"53 218 OFFCURVE",
"0 194 OFFCURVE",
"0 135 CURVE SMOOTH",
"0 59 OFFCURVE",
"66 -2 OFFCURVE",
"212 -2 CURVE SMOOTH {name = hr01;}"
);
},
{
closed = 1;
nodes = (
"1069 594 OFFCURVE",
"1027 599 OFFCURVE",
"989 607 CURVE",
"1019 648 OFFCURVE",
"1050 691 OFFCURVE",
"1082 738 CURVE",
"1261 988 OFFCURVE",
"1419 1183 OFFCURVE",
"1565 1289 CURVE",
"1617 1246 OFFCURVE",
"1642 1188 OFFCURVE",
"1642 1119 CURVE SMOOTH",
"1642 774 OFFCURVE",
"1326 594 OFFCURVE",
"1112 594 CURVE SMOOTH"
);
}
);
width = 1766;
}
);
unicode = 0050;
},
{
color = 4;
glyphname = Thorn;
lastChange = "2022-05-08 21:02:51 +0000";
layers = (
{
layerId = master01;
paths = (
{
closed = 1;
nodes = (
"318 -787 OFFCURVE",
"647 -555 OFFCURVE",
"1372 416 CURVE {name = hr03;}",
"1572 610 OFFCURVE",
"1813 744 OFFCURVE",
"1952 744 CURVE SMOOTH",
"2037 744 OFFCURVE",
"2075 683 OFFCURVE",
"2075 611 CURVE SMOOTH",
"2075 327 OFFCURVE",
"1737 26 OFFCURVE",
"1516 26 CURVE SMOOTH",
"1425 26 OFFCURVE",
"1398 74 OFFCURVE",
"1398 108 CURVE SMOOTH",
"1398 234 OFFCURVE",
"1659 442 OFFCURVE",
"1867 442 CURVE SMOOTH",
"1886 442 OFFCURVE",
"1899 447 OFFCURVE",
"1899 457 CURVE SMOOTH",
"1899 462 OFFCURVE",
"1891 469 OFFCURVE",
"1878 469 CURVE SMOOTH",
"1626 469 OFFCURVE",
"1366 239 OFFCURVE",
"1366 105 CURVE SMOOTH",
"1366 60 OFFCURVE",
"1401 -2 OFFCURVE",
"1514 -2 CURVE SMOOTH",
"1841 -2 OFFCURVE",
"2161 268 OFFCURVE",
"2161 561 CURVE SMOOTH",
"2161 654 OFFCURVE",
"2116 773 OFFCURVE",
"1963 773 CURVE SMOOTH",
"1807 773 OFFCURVE",
"1631 682 OFFCURVE",
"1457 531 CURVE",
"1514 608 LINE SMOOTH",
"1578 696 OFFCURVE",
"1640 778 OFFCURVE",
"1699 852 CURVE",
"2018 945 OFFCURVE",
"2290 1146 OFFCURVE",
"2290 1324 CURVE SMOOTH",
"2290 1357 OFFCURVE",
"2263 1384 OFFCURVE",
"2217 1384 CURVE SMOOTH",
"2122 1384 OFFCURVE",
"1962 1286 OFFCURVE",
"1597 862 CURVE {name = hr04;}",
"1511 838 OFFCURVE",
"1426 825 OFFCURVE",
"1349 825 CURVE SMOOTH",
"1148 825 OFFCURVE",
"979 911 OFFCURVE",
"979 1032 CURVE SMOOTH",
"979 1244 OFFCURVE",
"1379 1446 OFFCURVE",
"1646 1446 CURVE SMOOTH",
"1678 1446 OFFCURVE",
"1703 1442 OFFCURVE",
"1718 1442 CURVE SMOOTH",
"1728 1442 OFFCURVE",
"1731 1444 OFFCURVE",
"1731 1450 CURVE SMOOTH",
"1731 1460 OFFCURVE",
"1695 1467 OFFCURVE",
"1650 1467 CURVE SMOOTH",
"1287 1467 OFFCURVE",
"936 1305 OFFCURVE",
"936 1077 CURVE SMOOTH",
"936 905 OFFCURVE",
"1092 800 OFFCURVE",
"1351 800 CURVE SMOOTH",
"1420 800 OFFCURVE",
"1491 807 OFFCURVE",
"1561 820 CURVE",
"1450 690 OFFCURVE",
"1323 532 OFFCURVE",
"1174 340 CURVE SMOOTH",
"1087 228 OFFCURVE",
"1000 111 OFFCURVE",
"914 -2 CURVE {name = hr01;}",
"211 -306 OFFCURVE",
"0 -555 OFFCURVE",
"0 -710 CURVE SMOOTH",
"0 -752 OFFCURVE",
"24 -787 OFFCURVE",
"82 -787 CURVE SMOOTH"
);
},
{
closed = 1;
nodes = (
"40 -762 OFFCURVE",
"31 -742 OFFCURVE",
"31 -717 CURVE SMOOTH",
"31 -535 OFFCURVE",
"514 -239 OFFCURVE",
"885 -39 CURVE",
"594 -422 OFFCURVE",
"311 -762 OFFCURVE",
"83 -762 CURVE SMOOTH"
);
},
{
closed = 1;
nodes = (
"1976 1196 OFFCURVE",
"2150 1362 OFFCURVE",
"2222 1362 CURVE SMOOTH",
"2239 1362 OFFCURVE",
"2258 1355 OFFCURVE",
"2258 1335 CURVE SMOOTH",
"2258 1203 OFFCURVE",
"2017 1019 OFFCURVE",
"1747 912 CURVE"
);
}
);
width = 2290;
}
);
unicode = 00DE;
},
{
color = 4;
glyphname = Q;
lastChange = "2022-05-08 21:02:51 +0000";
layers = (
{
layerId = master01;
paths = (
{
closed = 1;
nodes = (
"1519 -230 OFFCURVE",
"1588 -217 OFFCURVE",
"1641 -197 CURVE",
"1715 -172 OFFCURVE",
"1779 -119 OFFCURVE",
"1779 -105 CURVE SMOOTH",
"1779 -99 OFFCURVE",
"1774 -93 OFFCURVE",
"1767 -93 CURVE SMOOTH",
"1762 -93 OFFCURVE",
"1759 -96 OFFCURVE",
"1754 -99 CURVE",
"1717 -130 LINE",
"1672 -163 OFFCURVE",
"1593 -190 OFFCURVE",
"1509 -190 CURVE SMOOTH",
"1380 -190 OFFCURVE",
"1184 -127 OFFCURVE",
"816 47 CURVE SMOOTH",
"792 58 OFFCURVE",
"767 68 OFFCURVE",
"742 78 CURVE",
"1201 241 OFFCURVE",
"1591 639 OFFCURVE",
"1591 1073 CURVE SMOOTH",
"1591 1308 OFFCURVE",
"1441 1401 OFFCURVE",
"1263 1401 CURVE SMOOTH",
"1129 1401 OFFCURVE",
"955 1357 OFFCURVE",
"830 1280 CURVE SMOOTH",
"537 1098 OFFCURVE",
"399 872 OFFCURVE",
"399 702 CURVE SMOOTH",
"399 573 OFFCURVE",
"477 477 OFFCURVE",
"623 477 CURVE SMOOTH",
"913 477 OFFCURVE",
"1253 828 OFFCURVE",
"1253 1134 CURVE SMOOTH",
"1253 1162 OFFCURVE",
"1245 1165 OFFCURVE",
"1237 1165 CURVE SMOOTH",
"1233 1165 OFFCURVE",
"1231 1162 OFFCURVE",
"1226 1135 CURVE SMOOTH",
"1176 868 OFFCURVE",
"828 500 OFFCURVE",
"628 500 CURVE SMOOTH",
"493 500 OFFCURVE",
"457 581 OFFCURVE",
"457 655 CURVE SMOOTH",
"457 799 OFFCURVE",
"713 1138 OFFCURVE",
"953 1281 CURVE SMOOTH",
"1048 1338 OFFCURVE",
"1152 1377 OFFCURVE",
"1253 1377 CURVE SMOOTH",
"1449 1377 OFFCURVE",
"1538 1280 OFFCURVE",
"1538 1121 CURVE SMOOTH",
"1538 811 OFFCURVE",
"1153 372 OFFCURVE",
"835 188 CURVE SMOOTH",
"781 157 OFFCURVE",
"726 128 OFFCURVE",
"671 104 CURVE",
"515 158 OFFCURVE",
"342 193 OFFCURVE",
"212 193 CURVE SMOOTH",
"93 193 OFFCURVE",
"0 146 OFFCURVE",
"0 104 CURVE SMOOTH",
"0 55 OFFCURVE",
"87 1 OFFCURVE",
"311 1 CURVE SMOOTH {name = hr00;}",
"411 1 OFFCURVE",
"513 14 OFFCURVE",
"612 39 CURVE",
"669 14 OFFCURVE",
"733 -16 OFFCURVE",
"808 -52 CURVE SMOOTH",
"1101 -193 OFFCURVE",
"1282 -230 OFFCURVE",
"1465 -230 CURVE SMOOTH"
);
},
{
closed = 1;
nodes = (
"167 26 OFFCURVE",
"66 56 OFFCURVE",
"66 113 CURVE SMOOTH",
"66 141 OFFCURVE",
"107 165 OFFCURVE",
"201 165 CURVE SMOOTH",
"286 165 OFFCURVE",
"376 142 OFFCURVE",
"558 63 CURVE",
"480 39 OFFCURVE",
"398 26 OFFCURVE",
"307 26 CURVE SMOOTH"
);
}
);
width = 1779;
}
);
unicode = 0051;
},
{
color = 4;
glyphname = R;
lastChange = "2022-05-08 21:02:31 +0000";
layers = (
{
anchors = (
{
name = bottom;
position = "{763, 0}";
},
{
name = top;
position = "{1503, 1446}";
}
);
layerId = master01;
paths = (
{
closed = 1;
nodes = (
"427 -2 OFFCURVE",
"704 172 OFFCURVE",
"1093 716 CURVE",
"1262 963 OFFCURVE",
"1442 1155 OFFCURVE",
"1601 1263 CURVE",
"1640 1226 OFFCURVE",
"1662 1181 OFFCURVE",
"1664 1126 CURVE SMOOTH",
"1669 963 OFFCURVE",
"1495 723 OFFCURVE",
"1311 646 CURVE {name = hr03;}",
"1278 664 OFFCURVE",
"1234 671 OFFCURVE",
"1190 671 CURVE SMOOTH",
"1139 671 OFFCURVE",
"1112 652 OFFCURVE",
"1114 636 CURVE",
"1115 616 OFFCURVE",
"1145 598 OFFCURVE",
"1202 598 CURVE SMOOTH {name = hr04;}",
"1228 598 OFFCURVE",
"1260 601 OFFCURVE",
"1293 609 CURVE",
"1297 601 OFFCURVE",
"1299 593 OFFCURVE",
"1299 583 CURVE SMOOTH",
"1300 546 OFFCURVE",
"1288 512 OFFCURVE",
"1217 453 CURVE",
"1134 368 OFFCURVE",
"1039 268 OFFCURVE",
"1044 121 CURVE SMOOTH {name = hr05;}",
"1047 49 OFFCURVE",
"1107 -2 OFFCURVE",
"1215 -2 CURVE SMOOTH",
"1408 -2 OFFCURVE",
"1705 250 OFFCURVE",
"1703 481 CURVE SMOOTH",
"1703 499 OFFCURVE",
"1696 510 OFFCURVE",
"1685 510 CURVE SMOOTH",
"1680 510 OFFCURVE",
"1676 498 OFFCURVE",
"1671 480 CURVE",
"1583 219 OFFCURVE",
"1379 26 OFFCURVE",
"1220 26 CURVE SMOOTH",
"1139 26 OFFCURVE",
"1115 59 OFFCURVE",
"1115 99 CURVE",
"1114 125 OFFCURVE",
"1126 158 OFFCURVE",
"1172 197 CURVE",
"1352 377 OFFCURVE",
"1378 454 OFFCURVE",
"1373 544 CURVE",
"1372 577 OFFCURVE",
"1361 603 OFFCURVE",
"1343 622 CURVE",
"1597 697 OFFCURVE",
"1760 873 OFFCURVE",
"1753 1042 CURVE SMOOTH",
"1749 1141 OFFCURVE",
"1706 1222 OFFCURVE",
"1631 1283 CURVE",
"1693 1321 OFFCURVE",
"1751 1347 OFFCURVE",
"1804 1358 CURVE",
"1825 1361 OFFCURVE",
"1832 1366 OFFCURVE",
"1832 1374 CURVE SMOOTH",
"1831 1384 OFFCURVE",
"1821 1384 OFFCURVE",
"1812 1384 CURVE SMOOTH",
"1775 1384 OFFCURVE",
"1697 1361 OFFCURVE",
"1595 1309 CURVE",
"1503 1368 OFFCURVE",
"1375 1401 OFFCURVE",
"1222 1401 CURVE SMOOTH",
"805 1401 OFFCURVE",
"308 1110 OFFCURVE",
"319 779 CURVE SMOOTH",
"322 678 OFFCURVE",
"420 612 OFFCURVE",
"507 612 CURVE SMOOTH",
"854 612 OFFCURVE",
"1070 969 OFFCURVE",
"1061 1205 CURVE",
"1061 1227 OFFCURVE",
"1061 1237 OFFCURVE",
"1051 1237 CURVE SMOOTH",
"1043 1237 OFFCURVE",
"1039 1229 OFFCURVE",
"1036 1203 CURVE SMOOTH",
"1021 1064 OFFCURVE",
"749 638 OFFCURVE",
"509 638 CURVE SMOOTH",
"445 638 OFFCURVE",
"357 675 OFFCURVE",
"353 784 CURVE SMOOTH",
"344 1034 OFFCURVE",
"742 1373 OFFCURVE",
"1207 1373 CURVE SMOOTH",
"1358 1373 OFFCURVE",
"1483 1346 OFFCURVE",
"1564 1292 CURVE",
"1551 1285 OFFCURVE",
"1538 1278 OFFCURVE",
"1525 1270 CURVE SMOOTH",
"1299 1121 OFFCURVE",
"1087 946 OFFCURVE",
"874 648 CURVE",
"484 113 OFFCURVE",
"376 26 OFFCURVE",
"199 26 CURVE SMOOTH",
"100 26 OFFCURVE",
"40 68 OFFCURVE",
"40 127 CURVE SMOOTH",
"40 133 LINE",
"53 124 OFFCURVE",
"70 122 OFFCURVE",
"88 122 CURVE SMOOTH",
"117 122 OFFCURVE",
"143 146 OFFCURVE",
"143 172 CURVE SMOOTH",
"143 204 OFFCURVE",
"115 218 OFFCURVE",
"93 218 CURVE SMOOTH",
"52 218 OFFCURVE",
"0 194 OFFCURVE",
"0 135 CURVE SMOOTH",
"0 59 OFFCURVE",
"67 -2 OFFCURVE",
"212 -2 CURVE SMOOTH {name = hr01;}"
);
},
{
closed = 1;
nodes = (
"1166 621 OFFCURVE",
"1150 632 OFFCURVE",
"1150 638 CURVE SMOOTH {name = hr07;}",
"1150 644 OFFCURVE",
"1165 648 OFFCURVE",
"1190 648 CURVE SMOOTH",
"1224 648 OFFCURVE",
"1251 643 OFFCURVE",
"1270 632 CURVE {name = hr08;}",
"1246 625 OFFCURVE",
"1221 621 OFFCURVE",
"1197 621 CURVE SMOOTH"
);
}
);
width = 1832;
}
);
unicode = 0052;
},
{
glyphname = S;
lastChange = "2022-05-08 21:03:52 +0000";
layers = (
{
anchors = (
{
name = bottom;
position = "{247, 0}";
},
{
name = top;
position = "{1620, 1446}";
}
);
layerId = master01;
paths = (
{
closed = 1;
nodes = (
"561 -2 OFFCURVE",
"793 317 OFFCURVE",
"1021 667 CURVE",
"1455 723 OFFCURVE",
"1805 1072 OFFCURVE",
"1817 1277 CURVE SMOOTH",
"1821 1357 OFFCURVE",
"1770 1401 OFFCURVE",
"1690 1401 CURVE SMOOTH",
"1450 1401 OFFCURVE",
"1189 1186 OFFCURVE",
"871 685 CURVE",
"531 696 OFFCURVE",
"374 848 OFFCURVE",
"382 969 CURVE",
"394 1213 OFFCURVE",
"711 1378 OFFCURVE",
"1020 1378 CURVE SMOOTH",
"1082 1378 OFFCURVE",
"1123 1369 OFFCURVE",
"1166 1359 CURVE",
"1177 1358 OFFCURVE",
"1185 1355 OFFCURVE",
"1194 1355 CURVE SMOOTH",
"1206 1355 OFFCURVE",
"1206 1355 OFFCURVE",
"1206 1359 CURVE SMOOTH",
"1206 1377 OFFCURVE",
"1119 1401 OFFCURVE",
"1021 1401 CURVE SMOOTH",
"656 1401 OFFCURVE",
"329 1225 OFFCURVE",
"315 988 CURVE SMOOTH",
"303 797 OFFCURVE",
"538 671 OFFCURVE",
"855 660 CURVE",
"835 627 LINE SMOOTH",
"661 340 OFFCURVE",
"499 22 OFFCURVE",
"214 22 CURVE SMOOTH {name = hr00;}",
"116 22 OFFCURVE",
"40 68 OFFCURVE",
"40 127 CURVE SMOOTH",
"40 132 LINE",
"53 124 OFFCURVE",
"69 122 OFFCURVE",
"86 122 CURVE SMOOTH",
"117 122 OFFCURVE",
"143 146 OFFCURVE",
"143 172 CURVE SMOOTH",
"143 204 OFFCURVE",
"115 218 OFFCURVE",
"93 218 CURVE SMOOTH",
"52 218 OFFCURVE",
"0 194 OFFCURVE",
"0 135 CURVE SMOOTH",
"0 59 OFFCURVE",
"84 -2 OFFCURVE",
"230 -2 CURVE SMOOTH"
);
},
{
closed = 1;
nodes = (
"1063 732 OFFCURVE",
"1087 768 OFFCURVE",
"1111 805 CURVE SMOOTH",
"1344 1172 OFFCURVE",
"1524 1370 OFFCURVE",
"1689 1376 CURVE SMOOTH",
"1725 1377 OFFCURVE",
"1769 1353 OFFCURVE",
"1763 1281 CURVE",
"1752 1082 OFFCURVE",
"1425 758 OFFCURVE",
"1040 695 CURVE"
);
}
);
width = 1818;
}
);
unicode = 0053;
},
{
color = 4;
glyphname = T;
lastChange = "2022-05-08 21:03:06 +0000";
layers = (
{
anchors = (
{
name = bottom;
position = "{270, 0}";
},
{
name = center;
position = "{990, 523}";
},
{
name = top;
position = "{1703, 1446}";
}
);
layerId = master01;
paths = (
{
closed = 1;
nodes = (
"549 -2 OFFCURVE",
"875 187 OFFCURVE",
"1223 726 CURVE SMOOTH",
"1415 1024 OFFCURVE",
"1447 1062 OFFCURVE",
"1589 1155 CURVE SMOOTH",
"1604 1164 OFFCURVE",
"1609 1167 OFFCURVE",
"1609 1178 CURVE SMOOTH",
"1609 1183 OFFCURVE",
"1604 1187 OFFCURVE",
"1595 1187 CURVE SMOOTH",
"1554 1187 OFFCURVE",
"1340 1027 OFFCURVE",
"1111 763 CURVE",
"1022 658 OFFCURVE",
"946 563 OFFCURVE",
"888 472 CURVE SMOOTH",
"697 172 OFFCURVE",
"468 26 OFFCURVE",
"267 26 CURVE SMOOTH",
"139 26 OFFCURVE",
"40 68 OFFCURVE",
"40 157 CURVE SMOOTH",
"40 163 LINE",
"53 155 OFFCURVE",
"70 153 OFFCURVE",
"88 153 CURVE SMOOTH",
"118 153 OFFCURVE",
"144 177 OFFCURVE",
"144 203 CURVE SMOOTH",
"144 235 OFFCURVE",
"115 249 OFFCURVE",
"94 249 CURVE SMOOTH",
"53 249 OFFCURVE",
"0 225 OFFCURVE",
"0 165 CURVE SMOOTH",
"0 60 OFFCURVE",
"123 -2 OFFCURVE",
"259 -2 CURVE SMOOTH"
);
},
{
closed = 1;
nodes = (
"990 775 OFFCURVE",
"1241 999 OFFCURVE",
"1241 1221 CURVE SMOOTH",
"1241 1241 OFFCURVE",
"1236 1246 OFFCURVE",
"1230 1246 CURVE SMOOTH",
"1226 1246 OFFCURVE",
"1223 1245 OFFCURVE",
"1218 1221 CURVE",
"1186 1091 OFFCURVE",
"942 807 OFFCURVE",
"789 807 CURVE SMOOTH",
"705 807 OFFCURVE",
"664 860 OFFCURVE",
"664 923 CURVE SMOOTH",
"664 1096 OFFCURVE",
"965 1319 OFFCURVE",
"1204 1319 CURVE SMOOTH",
"1266 1319 OFFCURVE",
"1362 1310 OFFCURVE",
"1471 1289 CURVE",
"1597 1262 OFFCURVE",
"1673 1254 OFFCURVE",
"1739 1254 CURVE SMOOTH",
"1963 1254 OFFCURVE",
"2183 1342 OFFCURVE",
"2284 1460 CURVE",
"2306 1488 OFFCURVE",
"2317 1508 OFFCURVE",
"2317 1516 CURVE SMOOTH",
"2317 1523 OFFCURVE",
"2314 1526 OFFCURVE",
"2306 1526 CURVE SMOOTH",
"2302 1526 OFFCURVE",
"2296 1525 OFFCURVE",
"2287 1509 CURVE",
"2231 1420 OFFCURVE",
"2074 1335 OFFCURVE",
"1927 1335 CURVE SMOOTH",
"1888 1335 OFFCURVE",
"1791 1342 OFFCURVE",
"1716 1355 CURVE",
"1654 1368 OFFCURVE",
"1540 1384 OFFCURVE",
"1440 1384 CURVE SMOOTH",
"1329 1384 OFFCURVE",
"1169 1369 OFFCURVE",
"1074 1337 CURVE SMOOTH",
"820 1251 OFFCURVE",
"636 1064 OFFCURVE",
"636 930 CURVE SMOOTH",
"636 836 OFFCURVE",
"696 775 OFFCURVE",
"799 775 CURVE SMOOTH {name = hr00;}"
);
}
);
width = 2317;
}
);
unicode = 0054;
},
{
color = 4;
glyphname = U;
lastChange = "2022-05-08 21:04:20 +0000";
layers = (
{
anchors = (
{
name = bottom;
position = "{294, 0}";
},
{
name = ogonek;
position = "{785, 10}";
},
{
name = top;
position = "{1254, 1446}";
},
{
name = topright;
position = "{1882, 1388}";
}
);
layerId = master01;
paths = (
{
closed = 1;
nodes = (
"217 -2 OFFCURVE",
"406 75 OFFCURVE",
"697 322 CURVE",
"660 262 OFFCURVE",
"624 185 OFFCURVE",
"628 96 CURVE",
"630 31 OFFCURVE",
"684 -2 OFFCURVE",
"743 -2 CURVE SMOOTH",
"840 -2 OFFCURVE",
"970 83 OFFCURVE",
"1038 145 CURVE",
"1040 148 OFFCURVE",
"1043 155 OFFCURVE",
"1043 164 CURVE SMOOTH",
"1042 173 OFFCURVE",
"1040 179 OFFCURVE",
"1036 181 CURVE",
"961 104 OFFCURVE",
"832 24 OFFCURVE",
"750 24 CURVE SMOOTH",
"706 24 OFFCURVE",
"670 42 OFFCURVE",
"668 90 CURVE SMOOTH",
"664 193 OFFCURVE",
"772 342 OFFCURVE",
"956 538 CURVE",
"1083 669 OFFCURVE",
"1545 1211 OFFCURVE",
"1574 1249 CURVE",
"1429 1249 LINE",
"1148 928 OFFCURVE",
"875 604 OFFCURVE",
"797 505 CURVE",
"535 179 OFFCURVE",
"245 23 OFFCURVE",
"123 23 CURVE SMOOTH",
"77 23 OFFCURVE",
"58 42 OFFCURVE",
"57 72 CURVE SMOOTH",
"55 121 OFFCURVE",
"99 187 OFFCURVE",
"393 488 CURVE",
"822 934 OFFCURVE",
"905 1130 OFFCURVE",
"902 1254 CURVE",
"897 1349 OFFCURVE",
"814 1401 OFFCURVE",
"694 1401 CURVE SMOOTH",
"353 1401 OFFCURVE",
"-8 1110 OFFCURVE",
"1 899 CURVE SMOOTH {name = hr03;}",
"4 824 OFFCURVE",
"60 779 OFFCURVE",
"157 779 CURVE SMOOTH",
"342 779 OFFCURVE",
"555 936 OFFCURVE",
"668 1173 CURVE",
"695 1232 OFFCURVE",
"706 1288 OFFCURVE",
"704 1310 CURVE",
"704 1322 OFFCURVE",
"702 1328 OFFCURVE",
"696 1328 CURVE SMOOTH",
"691 1328 OFFCURVE",
"687 1321 OFFCURVE",
"677 1298 CURVE SMOOTH",
"585 1086 OFFCURVE",
"287 809 OFFCURVE",
"132 809 CURVE SMOOTH",
"74 809 OFFCURVE",
"32 844 OFFCURVE",
"30 910 CURVE",
"22 1089 OFFCURVE",
"359 1371 OFFCURVE",
"669 1371 CURVE SMOOTH",
"793 1371 OFFCURVE",
"866 1336 OFFCURVE",
"871 1247 CURVE",
"873 1172 OFFCURVE",
"807 1070 OFFCURVE",
"530 809 CURVE",
"155 449 OFFCURVE",
"17 221 OFFCURVE",
"22 82 CURVE SMOOTH {name = hr01;}",
"24 33 OFFCURVE",
"57 -2 OFFCURVE",
"121 -2 CURVE SMOOTH"
);
}
);
width = 1574;
}
);
unicode = 0055;
},
{
color = 4;
glyphname = V;
lastChange = "2022-05-08 20:47:39 +0000";
layers = (
{
anchors = (
{
name = bottom;
position = "{788, 0}";
},
{
name = top;
position = "{1239, 1388}";
}
);
layerId = master01;
paths = (
{
closed = 1;
nodes = (
"21 -43 OFFCURVE",
"49 -33 OFFCURVE",
"92 -6 CURVE SMOOTH {name = hr00;}",
"673 367 OFFCURVE",
"1127 686 OFFCURVE",
"1423 940 CURVE",
"1456 865 OFFCURVE",
"1524 813 OFFCURVE",
"1607 813 CURVE SMOOTH",
"1626 813 OFFCURVE",
"1648 817 OFFCURVE",
"1658 822 CURVE SMOOTH",
"1672 828 OFFCURVE",
"1678 834 OFFCURVE",
"1678 840 CURVE SMOOTH",
"1678 846 OFFCURVE",
"1672 847 OFFCURVE",
"1664 847 CURVE SMOOTH",
"1658 847 OFFCURVE",
"1653 845 OFFCURVE",
"1642 841 CURVE SMOOTH",
"1634 838 OFFCURVE",
"1623 836 OFFCURVE",
"1609 836 CURVE SMOOTH",
"1554 836 OFFCURVE",
"1485 878 OFFCURVE",
"1456 968 CURVE",
"1694 1176 OFFCURVE",
"1822 1340 OFFCURVE",
"1822 1453 CURVE SMOOTH",
"1822 1510 OFFCURVE",
"1789 1534 OFFCURVE",
"1746 1534 CURVE SMOOTH",
"1593 1534 OFFCURVE",
"1402 1282 OFFCURVE",
"1402 1044 CURVE SMOOTH",
"1402 1035 OFFCURVE",
"1402 1027 OFFCURVE",
"1403 1018 CURVE",
"1046 702 OFFCURVE",
"525 312 OFFCURVE",
"212 102 CURVE",
"401 282 OFFCURVE",
"544 431 OFFCURVE",
"768 777 CURVE",
"972 1089 OFFCURVE",
"989 1191 OFFCURVE",
"1066 1267 CURVE",
"1102 1301 OFFCURVE",
"1123 1316 OFFCURVE",
"1135 1324 CURVE SMOOTH",
"1149 1333 OFFCURVE",
"1162 1337 OFFCURVE",
"1161 1347 CURVE SMOOTH",
"1161 1353 OFFCURVE",
"1153 1357 OFFCURVE",
"1148 1357 CURVE SMOOTH",
"1126 1357 OFFCURVE",
"1062 1302 OFFCURVE",
"1034 1277 CURVE",
"759 1021 OFFCURVE",
"603 968 OFFCURVE",
"522 968 CURVE SMOOTH",
"489 968 OFFCURVE",
"473 982 OFFCURVE",
"473 1003 CURVE",
"472 1023 OFFCURVE",
"494 1047 OFFCURVE",
"556 1109 CURVE SMOOTH",
"621 1176 OFFCURVE",
"671 1267 OFFCURVE",
"669 1322 CURVE SMOOTH",
"665 1398 OFFCURVE",
"589 1436 OFFCURVE",
"483 1436 CURVE SMOOTH",
"384 1436 OFFCURVE",
"273 1394 OFFCURVE",
"204 1338 CURVE",
"190 1328 OFFCURVE",
"179 1318 OFFCURVE",
"180 1306 CURVE SMOOTH",
"180 1300 OFFCURVE",
"183 1295 OFFCURVE",
"191 1295 CURVE SMOOTH",
"198 1295 OFFCURVE",
"206 1302 OFFCURVE",
"216 1311 CURVE SMOOTH",
"285 1368 OFFCURVE",
"375 1415 OFFCURVE",
"481 1415 CURVE SMOOTH",
"541 1415 OFFCURVE",
"598 1399 OFFCURVE",
"600 1349 CURVE SMOOTH",
"602 1310 OFFCURVE",
"538 1244 OFFCURVE",
"498 1202 CURVE SMOOTH",
"433 1135 OFFCURVE",
"402 1086 OFFCURVE",
"404 1034 CURVE SMOOTH",
"407 975 OFFCURVE",
"459 942 OFFCURVE",
"519 942 CURVE SMOOTH",
"602 942 OFFCURVE",
"716 995 OFFCURVE",
"837 1081 CURVE",
"729 962 OFFCURVE",
"587 771 OFFCURVE",
"460 563 CURVE",
"274 263 OFFCURVE",
"148 67 OFFCURVE",
"49 0 CURVE SMOOTH",
"37 -9 OFFCURVE",
"22 -14 OFFCURVE",
"16 -18 CURVE",
"4 -23 OFFCURVE",
"0 -27 OFFCURVE",
"0 -32 CURVE SMOOTH",
"0 -38 OFFCURVE",
"6 -43 OFFCURVE",
"13 -43 CURVE SMOOTH"
);
},
{
closed = 1;
nodes = (
"1442 1064 LINE SMOOTH",
"1442 1295 OFFCURVE",
"1610 1509 OFFCURVE",
"1746 1509 CURVE SMOOTH",
"1762 1509 OFFCURVE",
"1787 1493 OFFCURVE",
"1787 1465 CURVE SMOOTH",
"1787 1392 OFFCURVE",
"1645 1237 OFFCURVE",
"1442 1053 CURVE"
);
}
);
width = 1822;
}
);
unicode = 0056;
},
{
color = 4;
glyphname = W;
lastChange = "2022-05-08 21:04:56 +0000";
layers = (
{
anchors = (
{
name = bottom;
position = "{753, 0}";
},
{
name = top;
position = "{2215, 1446}";
}
);
layerId = master01;
paths = (
{
closed = 1;
nodes = (
"367 -43 OFFCURVE",
"426 -13 OFFCURVE",
"475 9 CURVE SMOOTH",
"597 64 OFFCURVE",
"770 190 OFFCURVE",
"937 341 CURVE SMOOTH",
"1308 677 OFFCURVE",
"1507 891 OFFCURVE",
"1657 1034 CURVE",
"1741 1112 OFFCURVE",
"1834 1181 OFFCURVE",
"1907 1236 CURVE",
"1803 1111 OFFCURVE",
"1607 869 OFFCURVE",
"1552 796 CURVE",
"1462 671 OFFCURVE",
"1332 466 OFFCURVE",
"1248 316 CURVE SMOOTH",
"1097 47 OFFCURVE",
"1081 28 OFFCURVE",
"982 -5 CURVE SMOOTH",
"966 -10 OFFCURVE",
"953 -17 OFFCURVE",
"953 -27 CURVE SMOOTH",
"953 -39 OFFCURVE",
"961 -43 OFFCURVE",
"972 -43 CURVE SMOOTH",
"1005 -43 OFFCURVE",
"1132 19 OFFCURVE",
"1278 171 CURVE SMOOTH",
"1599 506 OFFCURVE",
"1760 658 OFFCURVE",
"1947 838 CURVE SMOOTH",
"2397 1269 OFFCURVE",
"2608 1379 OFFCURVE",
"2773 1379 CURVE SMOOTH",
"2862 1379 OFFCURVE",
"2949 1354 OFFCURVE",
"2949 1269 CURVE SMOOTH",
"2949 1154 OFFCURVE",
"2829 1096 OFFCURVE",
"2748 1096 CURVE SMOOTH",
"2713 1096 OFFCURVE",
"2634 1115 OFFCURVE",
"2625 1164 CURVE SMOOTH",
"2620 1192 OFFCURVE",
"2616 1198 OFFCURVE",
"2598 1198 CURVE SMOOTH",
"2583 1198 OFFCURVE",
"2573 1187 OFFCURVE",
"2573 1165 CURVE SMOOTH",
"2573 1121 OFFCURVE",
"2675 1076 OFFCURVE",
"2750 1076 CURVE SMOOTH",
"2886 1076 OFFCURVE",
"3003 1155 OFFCURVE",
"3003 1271 CURVE SMOOTH",
"3003 1362 OFFCURVE",
"2918 1410 OFFCURVE",
"2785 1410 CURVE SMOOTH",
"2582 1410 OFFCURVE",
"2340 1246 OFFCURVE",
"2032 955 CURVE SMOOTH",
"1611 557 OFFCURVE",
"1544 489 OFFCURVE",
"1257 190 CURVE",
"1350 310 OFFCURVE",
"1443 427 OFFCURVE",
"1480 479 CURVE",
"1643 701 OFFCURVE",
"1821 1034 OFFCURVE",
"1943 1229 CURVE",
"1990 1301 OFFCURVE",
"2060 1367 OFFCURVE",
"2112 1393 CURVE SMOOTH",
"2160 1417 OFFCURVE",
"2169 1422 OFFCURVE",
"2169 1432 CURVE SMOOTH",
"2169 1438 OFFCURVE",
"2166 1446 OFFCURVE",
"2154 1446 CURVE SMOOTH",
"2146 1446 OFFCURVE",
"2123 1435 OFFCURVE",
"2049 1382 CURVE",
"1983 1333 OFFCURVE",
"1740 1166 OFFCURVE",
"1213 644 CURVE",
"782 219 OFFCURVE",
"644 130 OFFCURVE",
"490 43 CURVE {name = hr00;}",
"731 249 OFFCURVE",
"933 445 OFFCURVE",
"1190 803 CURVE SMOOTH",
"1479 1204 OFFCURVE",
"1527 1265 OFFCURVE",
"1607 1346 CURVE",
"1641 1383 OFFCURVE",
"1664 1395 OFFCURVE",
"1678 1403 CURVE",
"1691 1414 OFFCURVE",
"1705 1417 OFFCURVE",
"1705 1427 CURVE SMOOTH",
"1705 1434 OFFCURVE",
"1697 1436 OFFCURVE",
"1687 1436 CURVE SMOOTH",
"1672 1436 OFFCURVE",
"1639 1419 OFFCURVE",
"1612 1392 CURVE SMOOTH",
"1578 1360 OFFCURVE",
"1463 1245 OFFCURVE",
"1412 1196 CURVE SMOOTH",
"1226 1017 OFFCURVE",
"1095 880 OFFCURVE",
"970 724 CURVE SMOOTH",
"832 551 OFFCURVE",
"747 432 OFFCURVE",
"640 275 CURVE SMOOTH",
"480 40 OFFCURVE",
"426 6 OFFCURVE",
"363 -3 CURVE",
"326 -13 OFFCURVE",
"318 -18 OFFCURVE",
"318 -28 CURVE SMOOTH",
"318 -36 OFFCURVE",
"326 -43 OFFCURVE",
"342 -43 CURVE SMOOTH"
);
},
{
closed = 1;
nodes = (
"22 881 OFFCURVE",
"35 890 OFFCURVE",
"35 907 CURVE SMOOTH",
"35 948 OFFCURVE",
"65 1003 OFFCURVE",
"99 1044 CURVE",
"198 1168 OFFCURVE",
"383 1249 OFFCURVE",
"540 1249 CURVE SMOOTH",
"620 1249 OFFCURVE",
"672 1239 OFFCURVE",
"760 1210 CURVE SMOOTH",
"892 1167 OFFCURVE",
"975 1147 OFFCURVE",
"1085 1147 CURVE SMOOTH",
"1222 1147 OFFCURVE",
"1355 1188 OFFCURVE",
"1503 1324 CURVE SMOOTH",
"1516 1335 OFFCURVE",
"1519 1339 OFFCURVE",
"1519 1345 CURVE SMOOTH",
"1519 1349 OFFCURVE",
"1516 1352 OFFCURVE",
"1509 1352 CURVE SMOOTH",
"1506 1352 OFFCURVE",
"1496 1344 OFFCURVE",
"1477 1328 CURVE SMOOTH",
"1374 1243 OFFCURVE",
"1246 1204 OFFCURVE",
"1174 1204 CURVE SMOOTH",
"1087 1204 OFFCURVE",
"1032 1222 OFFCURVE",
"906 1267 CURVE",
"807 1301 OFFCURVE",
"695 1328 OFFCURVE",
"594 1328 CURVE SMOOTH",
"442 1328 OFFCURVE",
"257 1263 OFFCURVE",
"112 1109 CURVE SMOOTH",
"25 1015 OFFCURVE",
"0 925 OFFCURVE",
"0 897 CURVE SMOOTH",
"0 890 OFFCURVE",
"4 881 OFFCURVE",
"14 881 CURVE SMOOTH"
);
}
);
width = 3003;
}
);
unicode = 0057;
},
{
color = 4;
glyphname = X;
lastChange = "2022-05-08 20:47:39 +0000";
layers = (
{
anchors = (
{
name = bottom;
position = "{1044, 0}";
},
{
name = top;
position = "{1495, 1388}";
}
);
layerId = master01;
paths = (
{
closed = 1;
nodes = (
"409 -2 OFFCURVE",
"752 190 OFFCURVE",
"1045 548 CURVE",
"990 446 OFFCURVE",
"948 318 OFFCURVE",
"945 213 CURVE SMOOTH",
"942 70 OFFCURVE",
"1031 -2 OFFCURVE",
"1187 -2 CURVE SMOOTH",
"1424 -2 OFFCURVE",
"1752 270 OFFCURVE",
"1759 554 CURVE SMOOTH",
"1762 669 OFFCURVE",
"1700 736 OFFCURVE",
"1609 736 CURVE SMOOTH {name = hr03;}",
"1497 736 OFFCURVE",
"1386 635 OFFCURVE",
"1384 512 CURVE SMOOTH",
"1383 441 OFFCURVE",
"1413 404 OFFCURVE",
"1441 392 CURVE",
"1453 388 OFFCURVE",
"1466 386 OFFCURVE",
"1472 398 CURVE SMOOTH",
"1478 408 OFFCURVE",
"1475 418 OFFCURVE",
"1463 427 CURVE SMOOTH",
"1433 448 OFFCURVE",
"1425 481 OFFCURVE",
"1426 514 CURVE SMOOTH",
"1428 616 OFFCURVE",
"1512 711 OFFCURVE",
"1603 711 CURVE SMOOTH",
"1674 711 OFFCURVE",
"1725 658 OFFCURVE",
"1722 544 CURVE SMOOTH",
"1715 245 OFFCURVE",
"1382 22 OFFCURVE",
"1196 22 CURVE SMOOTH",
"1124 22 OFFCURVE",
"1048 49 OFFCURVE",
"1050 178 CURVE",
"1054 279 OFFCURVE",
"1138 502 OFFCURVE",
"1246 683 CURVE",
"1304 766 OFFCURVE",
"1345 808 OFFCURVE",
"1416 885 CURVE",
"1700 1174 OFFCURVE",
"1986 1393 OFFCURVE",
"2230 1393 CURVE SMOOTH",
"2241 1393 OFFCURVE",
"2253 1390 OFFCURVE",
"2263 1387 CURVE",
"2248 1377 OFFCURVE",
"2235 1356 OFFCURVE",
"2235 1336 CURVE",
"2233 1311 OFFCURVE",
"2249 1280 OFFCURVE",
"2278 1280 CURVE SMOOTH",
"2304 1280 OFFCURVE",
"2330 1301 OFFCURVE",
"2332 1342 CURVE",
"2333 1390 OFFCURVE",
"2290 1424 OFFCURVE",
"2227 1424 CURVE SMOOTH",
"1982 1424 OFFCURVE",
"1656 1200 OFFCURVE",
"1287 784 CURVE {name = hr04;}",
"1335 888 OFFCURVE",
"1377 1030 OFFCURVE",
"1381 1146 CURVE",
"1386 1373 OFFCURVE",
"1278 1436 OFFCURVE",
"1123 1436 CURVE SMOOTH {name = hr05;}",
"852 1436 OFFCURVE",
"490 1073 OFFCURVE",
"485 862 CURVE",
"484 785 OFFCURVE",
"528 748 OFFCURVE",
"600 748 CURVE SMOOTH",
"864 748 OFFCURVE",
"1172 1114 OFFCURVE",
"1170 1302 CURVE",
"1169 1329 OFFCURVE",
"1160 1335 OFFCURVE",
"1155 1335 CURVE SMOOTH",
"1150 1335 OFFCURVE",
"1146 1332 OFFCURVE",
"1140 1319 CURVE SMOOTH",
"1005 986 OFFCURVE",
"774 772 OFFCURVE",
"606 772 CURVE SMOOTH",
"545 772 OFFCURVE",
"514 798 OFFCURVE",
"516 862 CURVE SMOOTH",
"521 1054 OFFCURVE",
"854 1410 OFFCURVE",
"1125 1410 CURVE SMOOTH",
"1243 1410 OFFCURVE",
"1310 1352 OFFCURVE",
"1307 1229 CURVE SMOOTH",
"1304 1117 OFFCURVE",
"1197 870 OFFCURVE",
"1104 691 CURVE",
"862 318 OFFCURVE",
"439 26 OFFCURVE",
"231 26 CURVE SMOOTH",
"124 26 OFFCURVE",
"39 68 OFFCURVE",
"41 157 CURVE SMOOTH",
"41 163 LINE",
"54 154 OFFCURVE",
"71 153 OFFCURVE",
"88 153 CURVE SMOOTH",
"118 153 OFFCURVE",
"145 177 OFFCURVE",
"145 203 CURVE SMOOTH",
"146 235 OFFCURVE",
"118 249 OFFCURVE",
"96 249 CURVE SMOOTH",
"55 249 OFFCURVE",
"3 225 OFFCURVE",
"1 165 CURVE",
"-1 60 OFFCURVE",
"104 -2 OFFCURVE",
"225 -2 CURVE SMOOTH {name = hr01;}"
);
}
);
width = 2333;
}
);
unicode = 0058;
},
{
color = 4;
glyphname = Y;
lastChange = "2022-05-08 21:10:03 +0000";
layers = (
{
anchors = (
{
name = bottom;
position = "{1276, 230}";
},
{
name = top;
position = "{1504, 1446}";
},
{
name = topleft;
position = "{348, 1388}";
}
);
layerId = master01;
paths = (
{
closed = 1;
nodes = (
"610 -230 OFFCURVE",
"1009 72 OFFCURVE",
"1283 586 CURVE",
"1485 968 OFFCURVE",
"1660 1188 OFFCURVE",
"1825 1253 CURVE",
"1854 1263 LINE",
"1867 1266 OFFCURVE",
"1870 1271 OFFCURVE",
"1870 1275 CURVE SMOOTH",
"1870 1282 OFFCURVE",
"1865 1287 OFFCURVE",
"1853 1287 CURVE SMOOTH",
"1800 1287 OFFCURVE",
"1672 1221 OFFCURVE",
"1528 1058 CURVE",
"1047 522 OFFCURVE",
"828 408 OFFCURVE",
"741 408 CURVE SMOOTH",
"694 408 OFFCURVE",
"674 440 OFFCURVE",
"674 479 CURVE SMOOTH",
"674 552 OFFCURVE",
"776 672 OFFCURVE",
"937 829 CURVE",
"1184 1055 OFFCURVE",
"1239 1183 OFFCURVE",
"1239 1287 CURVE SMOOTH",
"1239 1393 OFFCURVE",
"1127 1435 OFFCURVE",
"992 1435 CURVE SMOOTH",
"662 1435 OFFCURVE",
"265 1108 OFFCURVE",
"265 886 CURVE SMOOTH",
"265 815 OFFCURVE",
"304 768 OFFCURVE",
"383 768 CURVE SMOOTH",
"587 768 OFFCURVE",
"961 1114 OFFCURVE",
"941 1301 CURVE",
"939 1311 OFFCURVE",
"934 1318 OFFCURVE",
"930 1318 CURVE SMOOTH",
"927 1318 OFFCURVE",
"926 1316 OFFCURVE",
"920 1304 CURVE",
"899 1231 OFFCURVE",
"594 810 OFFCURVE",
"385 810 CURVE SMOOTH",
"323 810 OFFCURVE",
"294 841 OFFCURVE",
"294 895 CURVE SMOOTH",
"294 1086 OFFCURVE",
"682 1407 OFFCURVE",
"992 1407 CURVE SMOOTH",
"1121 1407 OFFCURVE",
"1188 1371 OFFCURVE",
"1188 1298 CURVE SMOOTH",
"1188 1261 OFFCURVE",
"1163 1218 OFFCURVE",
"951 1010 CURVE",
"774 830 OFFCURVE",
"633 615 OFFCURVE",
"633 490 CURVE SMOOTH",
"633 440 OFFCURVE",
"663 384 OFFCURVE",
"738 384 CURVE SMOOTH",
"824 384 OFFCURVE",
"1001 464 OFFCURVE",
"1327 802 CURVE",
"1233 679 OFFCURVE",
"1121 518 OFFCURVE",
"1021 370 CURVE",
"759 -10 OFFCURVE",
"492 -204 OFFCURVE",
"306 -204 CURVE SMOOTH",
"171 -204 OFFCURVE",
"70 -145 OFFCURVE",
"70 -72 CURVE SMOOTH",
"70 -65 OFFCURVE",
"71 -58 OFFCURVE",
"73 -51 CURVE",
"85 -56 OFFCURVE",
"99 -57 OFFCURVE",
"113 -57 CURVE SMOOTH",
"143 -57 OFFCURVE",
"170 -33 OFFCURVE",
"170 -8 CURVE SMOOTH {name = hr00;}",
"170 25 OFFCURVE",
"140 39 OFFCURVE",
"120 39 CURVE SMOOTH",
"79 39 OFFCURVE",
"30 3 OFFCURVE",
"30 -56 CURVE SMOOTH",
"30 -164 OFFCURVE",
"149 -230 OFFCURVE",
"300 -230 CURVE SMOOTH"
);
}
);
width = 1840;
}
);
unicode = 0059;
},
{
color = 4;
glyphname = Z;
lastChange = "2022-05-08 21:09:07 +0000";
layers = (
{
anchors = (
{
name = bottom;
position = "{571, 0}";
},
{
name = center;
position = "{1061, 694}";
},
{
name = top;
position = "{1291, 1446}";
}
);
layerId = master01;
paths = (
{
closed = 1;
nodes = (
"1289 -47 OFFCURVE",
"1481 79 OFFCURVE",
"1481 293 CURVE SMOOTH",
"1481 396 OFFCURVE",
"1397 472 OFFCURVE",
"1282 472 CURVE SMOOTH",
"1271 472 OFFCURVE",
"1261 470 OFFCURVE",
"1251 467 CURVE SMOOTH",
"1231 461 OFFCURVE",
"1197 439 OFFCURVE",
"1207 408 CURVE SMOOTH",
"1215 383 OFFCURVE",
"1246 373 OFFCURVE",
"1275 377 CURVE",
"1304 383 OFFCURVE",
"1331 405 OFFCURVE",
"1333 435 CURVE",
"1416 418 OFFCURVE",
"1452 354 OFFCURVE",
"1452 292 CURVE SMOOTH",
"1452 104 OFFCURVE",
"1243 28 OFFCURVE",
"974 49 CURVE SMOOTH",
"867 57 OFFCURVE",
"743 96 OFFCURVE",
"614 133 CURVE",
"797 254 OFFCURVE",
"994 463 OFFCURVE",
"1204 782 CURVE SMOOTH",
"1361 1020 OFFCURVE",
"1574 1269 OFFCURVE",
"1669 1335 CURVE",
"1698 1352 OFFCURVE",
"1706 1359 OFFCURVE",
"1734 1374 CURVE",
"1747 1384 OFFCURVE",
"1752 1392 OFFCURVE",
"1752 1399 CURVE SMOOTH",
"1752 1406 OFFCURVE",
"1746 1409 OFFCURVE",
"1739 1409 CURVE SMOOTH",
"1729 1409 OFFCURVE",
"1718 1406 OFFCURVE",
"1699 1389 CURVE SMOOTH {name = hr03;}",
"1650 1344 OFFCURVE",
"1563 1301 OFFCURVE",
"1479 1301 CURVE SMOOTH",
"1275 1301 OFFCURVE",
"1184 1401 OFFCURVE",
"925 1401 CURVE SMOOTH",
"643 1401 OFFCURVE",
"417 1181 OFFCURVE",
"410 972 CURVE",
"407 912 OFFCURVE",
"453 825 OFFCURVE",
"556 825 CURVE SMOOTH",
"737 825 OFFCURVE",
"931 999 OFFCURVE",
"914 1195 CURVE SMOOTH",
"912 1219 OFFCURVE",
"899 1239 OFFCURVE",
"895 1239 CURVE SMOOTH",
"891 1239 OFFCURVE",
"885 1236 OFFCURVE",
"884 1224 CURVE SMOOTH",
"873 1118 OFFCURVE",
"717 849 OFFCURVE",
"545 849 CURVE SMOOTH {name = hr04;}",
"476 849 OFFCURVE",
"434 911 OFFCURVE",
"436 970 CURVE SMOOTH",
"443 1145 OFFCURVE",
"629 1311 OFFCURVE",
"795 1317 CURVE SMOOTH",
"1038 1326 OFFCURVE",
"1119 1232 OFFCURVE",
"1338 1232 CURVE SMOOTH",
"1425 1232 OFFCURVE",
"1514 1264 OFFCURVE",
"1585 1299 CURVE",
"1301 1095 OFFCURVE",
"1108 873 OFFCURVE",
"923 619 CURVE SMOOTH",
"768 407 OFFCURVE",
"644 254 OFFCURVE",
"530 156 CURVE",
"439 179 OFFCURVE",
"346 197 OFFCURVE",
"258 197 CURVE SMOOTH",
"92 197 OFFCURVE",
"3 146 OFFCURVE",
"1 91 CURVE SMOOTH {name = hr01;}",
"0 42 OFFCURVE",
"74 -2 OFFCURVE",
"220 -2 CURVE SMOOTH",
"322 -2 OFFCURVE",
"430 27 OFFCURVE",
"544 90 CURVE",
"708 30 OFFCURVE",
"875 -47 OFFCURVE",
"1048 -47 CURVE SMOOTH"
);
},
{
closed = 1;
nodes = (
"83 22 OFFCURVE",
"30 59 OFFCURVE",
"32 90 CURVE SMOOTH {name = hr06;}",
"34 141 OFFCURVE",
"141 163 OFFCURVE",
"229 163 CURVE SMOOTH",
"311 163 OFFCURVE",
"394 142 OFFCURVE",
"478 114 CURVE",
"393 52 OFFCURVE",
"311 22 OFFCURVE",
"223 22 CURVE SMOOTH"
);
}
);
width = 1752;
}
);
unicode = 005A;
},
{
color = 4;
glyphname = a;
lastChange = "2022-05-08 20:27:22 +0000";
layers = (
{
anchors = (
{
name = bottom;
position = "{246, 0}";
},
{
name = ogonek;
position = "{542, 10}";
},
{
name = top;
position = "{667, 760}";
}
);
layerId = master01;
paths = (
{
closed = 1;
nodes = (
"202 -2 OFFCURVE",
"348 72 OFFCURVE",
"511 272 CURVE",
"521 268 LINE",
"417 141 OFFCURVE",
"400 106 OFFCURVE",
"400 60 CURVE SMOOTH",
"400 21 OFFCURVE",
"432 -2 OFFCURVE",
"500 -2 CURVE SMOOTH",
"703 -2 OFFCURVE",
"953 306 OFFCURVE",
"1028 389 CURVE",
"1007 406 LINE",
"940 331 OFFCURVE",
"695 26 OFFCURVE",
"515 26 CURVE SMOOTH",
"494 26 OFFCURVE",
"484 39 OFFCURVE",
"484 58 CURVE SMOOTH",
"484 93 OFFCURVE",
"518 154 OFFCURVE",
"604 255 CURVE",
"941 661 LINE",
"924 658 OFFCURVE",
"884 657 OFFCURVE",
"866 657 CURVE SMOOTH",
"844 657 OFFCURVE",
"819 661 OFFCURVE",
"806 665 CURVE",
"778 630 OFFCURVE",
"750 594 OFFCURVE",
"708 544 CURVE",
"716 564 OFFCURVE",
"720 584 OFFCURVE",
"720 603 CURVE SMOOTH",
"720 654 OFFCURVE",
"665 685 OFFCURVE",
"596 685 CURVE SMOOTH",
"458 685 OFFCURVE",
"303 632 OFFCURVE",
"123 423 CURVE",
"35 323 OFFCURVE",
"0 218 OFFCURVE",
"0 129 CURVE SMOOTH",
"0 47 OFFCURVE",
"37 -2 OFFCURVE",
"123 -2 CURVE SMOOTH {name = hr00;}"
);
},
{
closed = 1;
nodes = (
"96 28 OFFCURVE",
"82 42 OFFCURVE",
"82 80 CURVE SMOOTH",
"82 144 OFFCURVE",
"123 238 OFFCURVE",
"223 358 CURVE SMOOTH",
"397 565 OFFCURVE",
"556 654 OFFCURVE",
"622 654 CURVE SMOOTH",
"657 654 OFFCURVE",
"692 635 OFFCURVE",
"692 594 CURVE SMOOTH",
"692 552 OFFCURVE",
"663 498 OFFCURVE",
"632 452 CURVE",
"607 423 OFFCURVE",
"580 390 OFFCURVE",
"548 351 CURVE SMOOTH",
"352 119 OFFCURVE",
"212 28 OFFCURVE",
"127 28 CURVE SMOOTH"
);
}
);
width = 1028;
}
);
unicode = 0061;
},
{
color = 4;
glyphname = ae;
lastChange = "2022-05-08 20:08:37 +0000";
layers = (
{
anchors = (
{
name = bottom;
position = "{463, 0}";
},
{
name = top;
position = "{889, 760}";
}
);
layerId = master01;
paths = (
{
closed = 1;
nodes = (
"1106 -6 OFFCURVE",
"1334 344 OFFCURVE",
"1384 389 CURVE",
"1362 406 LINE",
"1325 373 OFFCURVE",
"1098 23 OFFCURVE",
"785 23 CURVE SMOOTH",
"728 23 OFFCURVE",
"678 59 OFFCURVE",
"678 122 CURVE SMOOTH",
"678 165 OFFCURVE",
"690 216 OFFCURVE",
"737 291 CURVE",
"1136 423 OFFCURVE",
"1250 541 OFFCURVE",
"1245 619 CURVE SMOOTH",
"1242 654 OFFCURVE",
"1214 685 OFFCURVE",
"1133 685 CURVE SMOOTH",
"1047 685 OFFCURVE",
"928 644 OFFCURVE",
"814 554 CURVE",
"889 661 LINE",
"872 658 OFFCURVE",
"842 657 OFFCURVE",
"824 657 CURVE SMOOTH",
"802 657 OFFCURVE",
"789 661 OFFCURVE",
"775 665 CURVE",
"756 640 OFFCURVE",
"739 614 OFFCURVE",
"718 583 CURVE",
"719 590 OFFCURVE",
"720 596 OFFCURVE",
"720 603 CURVE SMOOTH",
"720 654 OFFCURVE",
"675 685 OFFCURVE",
"605 685 CURVE SMOOTH",
"467 685 OFFCURVE",
"303 632 OFFCURVE",
"123 423 CURVE",
"35 323 OFFCURVE",
"0 218 OFFCURVE",
"0 129 CURVE SMOOTH {name = hr01;}",
"0 47 OFFCURVE",
"37 -2 OFFCURVE",
"123 -2 CURVE SMOOTH",
"250 -2 OFFCURVE",
"478 164 OFFCURVE",
"639 356 CURVE",
"612 303 OFFCURVE",
"587 227 OFFCURVE",
"589 170 CURVE SMOOTH",
"593 71 OFFCURVE",
"644 -6 OFFCURVE",
"774 -6 CURVE SMOOTH {name = hr02;}"
);
},
{
closed = 1;
nodes = (
"97 28 OFFCURVE",
"82 42 OFFCURVE",
"82 80 CURVE SMOOTH",
"82 144 OFFCURVE",
"125 235 OFFCURVE",
"226 356 CURVE SMOOTH",
"400 562 OFFCURVE",
"565 654 OFFCURVE",
"631 654 CURVE SMOOTH",
"667 654 OFFCURVE",
"692 635 OFFCURVE",
"692 594 CURVE SMOOTH",
"692 564 OFFCURVE",
"675 526 OFFCURVE",
"654 489 CURVE",
"624 449 OFFCURVE",
"588 401 OFFCURVE",
"538 341 CURVE SMOOTH",
"342 108 OFFCURVE",
"212 28 OFFCURVE",
"128 28 CURVE SMOOTH"
);
},
{
closed = 1;
nodes = (
"772 343 OFFCURVE",
"785 361 OFFCURVE",
"800 380 CURVE SMOOTH",
"939 562 OFFCURVE",
"1036 661 OFFCURVE",
"1127 661 CURVE SMOOTH",
"1159 661 OFFCURVE",
"1180 644 OFFCURVE",
"1180 605 CURVE SMOOTH",
"1180 517 OFFCURVE",
"1020 416 OFFCURVE",
"760 327 CURVE"
);
}
);
width = 1384;
}
);
unicode = 00E6;
},
{
color = 4;
glyphname = b;
lastChange = "2022-05-08 20:08:21 +0000";
layers = (
{
anchors = (
{
name = bottom;
position = "{77, 0}";
},
{
name = top;
position = "{1107, 1768}";
}
);
layerId = master01;
paths = (
{
closed = 1;
nodes = (
"224 -10 OFFCURVE",
"374 39 OFFCURVE",
"505 185 CURVE",
"530 209 OFFCURVE",
"551 232 OFFCURVE",
"569 256 CURVE",
"573 213 OFFCURVE",
"595 186 OFFCURVE",
"652 186 CURVE SMOOTH",
"755 186 OFFCURVE",
"877 340 OFFCURVE",
"921 389 CURVE",
"900 406 LINE",
"867 364 OFFCURVE",
"740 211 OFFCURVE",
"652 211 CURVE",
"601 213 OFFCURVE",
"596 243 OFFCURVE",
"596 264 CURVE SMOOTH",
"596 275 OFFCURVE",
"595 285 OFFCURVE",
"597 294 CURVE",
"636 354 OFFCURVE",
"660 419 OFFCURVE",
"683 510 CURVE SMOOTH {name = hr03;}",
"688 527 OFFCURVE",
"690 545 OFFCURVE",
"691 563 CURVE SMOOTH",
"692 613 OFFCURVE",
"674 655 OFFCURVE",
"633 655 CURVE SMOOTH",
"586 655 OFFCURVE",
"573 611 OFFCURVE",
"571 579 CURVE SMOOTH",
"570 548 OFFCURVE",
"584 531 OFFCURVE",
"583 492 CURVE SMOOTH",
"583 477 OFFCURVE",
"571 343 OFFCURVE",
"514 274 CURVE",
"416 99 OFFCURVE",
"259 15 OFFCURVE",
"130 15 CURVE SMOOTH",
"93 15 OFFCURVE",
"55 31 OFFCURVE",
"55 100 CURVE SMOOTH",
"55 188 OFFCURVE",
"145 348 OFFCURVE",
"454 727 CURVE",
"975 931 OFFCURVE",
"1311 1313 OFFCURVE",
"1311 1522 CURVE SMOOTH",
"1311 1557 OFFCURVE",
"1286 1579 OFFCURVE",
"1238 1579 CURVE SMOOTH",
"1000 1579 OFFCURVE",
"456 943 OFFCURVE",
"245 628 CURVE SMOOTH",
"95 402 OFFCURVE",
"0 247 OFFCURVE",
"0 119 CURVE SMOOTH",
"0 49 OFFCURVE",
"40 -10 OFFCURVE",
"128 -10 CURVE SMOOTH {name = hr01;}"
);
},
{
closed = 1;
nodes = (
"575 873 LINE SMOOTH",
"855 1211 OFFCURVE",
"1112 1558 OFFCURVE",
"1238 1558 CURVE SMOOTH",
"1262 1558 OFFCURVE",
"1277 1545 OFFCURVE",
"1277 1522 CURVE SMOOTH",
"1277 1364 OFFCURVE",
"910 931 OFFCURVE",
"487 767 CURVE"
);
}
);
width = 1311;
}
);
unicode = 0062;
},
{
color = 4;
glyphname = c;
lastChange = "2022-05-08 20:07:29 +0000";
layers = (
{
anchors = (
{
name = bottom;
position = "{176, 0}";
},
{
name = top;
position = "{552, 760}";
}
);
layerId = master01;
paths = (
{
closed = 1;
nodes = (
"548 -6 OFFCURVE",
"800 370 OFFCURVE",
"817 389 CURVE",
"795 406 LINE",
"779 388 OFFCURVE",
"536 23 OFFCURVE",
"213 23 CURVE SMOOTH",
"145 23 OFFCURVE",
"97 71 OFFCURVE",
"97 129 CURVE SMOOTH",
"97 187 OFFCURVE",
"119 260 OFFCURVE",
"192 357 CURVE SMOOTH",
"349 562 OFFCURVE",
"474 659 OFFCURVE",
"564 659 CURVE SMOOTH",
"618 659 OFFCURVE",
"640 635 OFFCURVE",
"640 601 CURVE SMOOTH",
"640 597 LINE",
"625 604 OFFCURVE",
"606 609 OFFCURVE",
"589 608 CURVE SMOOTH",
"548 606 OFFCURVE",
"513 578 OFFCURVE",
"514 541 CURVE SMOOTH",
"515 502 OFFCURVE",
"548 482 OFFCURVE",
"579 482 CURVE SMOOTH",
"631 482 OFFCURVE",
"688 535 OFFCURVE",
"685 592 CURVE SMOOTH",
"683 635 OFFCURVE",
"653 682 OFFCURVE",
"564 685 CURVE SMOOTH",
"447 689 OFFCURVE",
"269 629 OFFCURVE",
"124 459 CURVE SMOOTH",
"40 359 OFFCURVE",
"0 261 OFFCURVE",
"0 174 CURVE SMOOTH",
"0 74 OFFCURVE",
"65 -6 OFFCURVE",
"207 -6 CURVE SMOOTH {name = hr00;}"
);
}
);
width = 817;
}
);
unicode = 0063;
},
{
color = 4;
glyphname = d;
lastChange = "2022-05-08 20:35:19 +0000";
layers = (
{
anchors = (
{
name = _stemr;
position = "{1205, 1191}";
},
{
name = bottom;
position = "{96, 0}";
},
{
name = center;
position = "{386, 340}";
},
{
name = top;
position = "{619, 854}";
},
{
name = topright;
position = "{1579, 1121}";
}
);
layerId = master01;
paths = (
{
closed = 1;
nodes = (
"208 -2 OFFCURVE",
"336 70 OFFCURVE",
"517 272 CURVE",
"525 268 LINE",
"444 171 OFFCURVE",
"406 111 OFFCURVE",
"405 66 CURVE SMOOTH",
"405 26 OFFCURVE",
"430 -2 OFFCURVE",
"496 -2 CURVE SMOOTH",
"732 -2 OFFCURVE",
"993 347 OFFCURVE",
"1036 389 CURVE",
"1014 406 LINE",
"976 368 OFFCURVE",
"733 28 OFFCURVE",
"512 28 CURVE SMOOTH",
"492 28 OFFCURVE",
"487 36 OFFCURVE",
"487 55 CURVE SMOOTH",
"487 89 OFFCURVE",
"527 147 OFFCURVE",
"604 250 CURVE",
"1554 1582 LINE",
"1537 1580 OFFCURVE",
"1522 1579 OFFCURVE",
"1511 1579 CURVE SMOOTH",
"1476 1579 OFFCURVE",
"1446 1587 OFFCURVE",
"1427 1595 CURVE",
"1136 1187 OFFCURVE",
"881 817 OFFCURVE",
"721 586 CURVE",
"721 592 OFFCURVE",
"722 597 OFFCURVE",
"722 603 CURVE SMOOTH",
"722 658 OFFCURVE",
"655 685 OFFCURVE",
"600 685 CURVE SMOOTH",
"469 685 OFFCURVE",
"305 632 OFFCURVE",
"125 423 CURVE",
"37 323 OFFCURVE",
"0 218 OFFCURVE",
"0 129 CURVE SMOOTH",
"0 47 OFFCURVE",
"43 -2 OFFCURVE",
"127 -2 CURVE SMOOTH {name = hr00;}"
);
},
{
closed = 1;
nodes = (
"103 28 OFFCURVE",
"84 42 OFFCURVE",
"84 80 CURVE SMOOTH",
"84 144 OFFCURVE",
"127 235 OFFCURVE",
"227 356 CURVE",
"402 562 OFFCURVE",
"551 654 OFFCURVE",
"616 654 CURVE SMOOTH",
"653 654 OFFCURVE",
"692 635 OFFCURVE",
"692 594 CURVE SMOOTH",
"692 570 OFFCURVE",
"683 542 OFFCURVE",
"669 513 CURVE",
"611 430 OFFCURVE",
"571 373 OFFCURVE",
"553 351 CURVE SMOOTH",
"492 277 OFFCURVE",
"434 222 OFFCURVE",
"382 173 CURVE",
"259 62 OFFCURVE",
"187 28 OFFCURVE",
"134 28 CURVE SMOOTH"
);
}
);
width = 1554;
}
);
unicode = 0064;
},
{
color = 4;
glyphname = eth;
lastChange = "2022-05-08 19:36:00 +0000";
layers = (
{
layerId = master01;
paths = (
{
closed = 1;
nodes = (
"267 -2 OFFCURVE",
"381 51 OFFCURVE",
"488 147 CURVE",
"475 116 OFFCURVE",
"472 93 OFFCURVE",
"472 71 CURVE SMOOTH",
"472 27 OFFCURVE",
"495 -2 OFFCURVE",
"558 -2 CURVE SMOOTH",
"726 -2 OFFCURVE",
"985 347 OFFCURVE",
"1024 389 CURVE",
"1003 406 LINE",
"959 356 OFFCURVE",
"710 24 OFFCURVE",
"561 24 CURVE SMOOTH",
"520 24 OFFCURVE",
"504 39 OFFCURVE",
"504 70 CURVE SMOOTH",
"504 102 OFFCURVE",
"519 151 OFFCURVE",
"551 209 CURVE",
"644 311 OFFCURVE",
"731 446 OFFCURVE",
"805 609 CURVE SMOOTH",
"882 778 OFFCURVE",
"920 929 OFFCURVE",
"928 1060 CURVE",
"1149 1145 LINE",
"1147 1155 OFFCURVE",
"1145 1163 OFFCURVE",
"1146 1176 CURVE",
"930 1092 LINE",
"930 1110 LINE SMOOTH",
"930 1214 OFFCURVE",
"912 1293 OFFCURVE",
"879 1362 CURVE SMOOTH",
"870 1382 OFFCURVE",
"866 1384 OFFCURVE",
"857 1384 CURVE SMOOTH",
"852 1384 OFFCURVE",
"845 1379 OFFCURVE",
"845 1369 CURVE SMOOTH",
"845 1362 OFFCURVE",
"847 1353 OFFCURVE",
"854 1335 CURVE SMOOTH",
"870 1290 OFFCURVE",
"878 1239 OFFCURVE",
"878 1181 CURVE",
"877 1145 OFFCURVE",
"873 1107 OFFCURVE",
"866 1068 CURVE",
"646 983 LINE",
"649 972 OFFCURVE",
"650 963 OFFCURVE",
"650 953 CURVE",
"859 1033 LINE",
"830 901 OFFCURVE",
"768 750 OFFCURVE",
"679 593 CURVE",
"662 653 OFFCURVE",
"613 685 OFFCURVE",
"538 685 CURVE SMOOTH",
"507 685 OFFCURVE",
"459 681 OFFCURVE",
"409 665 CURVE",
"192 592 OFFCURVE",
"0 340 OFFCURVE",
"0 155 CURVE SMOOTH",
"0 64 OFFCURVE",
"54 -2 OFFCURVE",
"155 -2 CURVE SMOOTH {name = hr00;}"
);
},
{
closed = 1;
nodes = (
"110 26 OFFCURVE",
"82 52 OFFCURVE",
"82 100 CURVE SMOOTH",
"82 172 OFFCURVE",
"116 243 OFFCURVE",
"224 376 CURVE",
"380 573 OFFCURVE",
"480 644 OFFCURVE",
"559 644 CURVE SMOOTH",
"620 644 OFFCURVE",
"651 612 OFFCURVE",
"658 556 CURVE",
"603 462 OFFCURVE",
"538 365 OFFCURVE",
"466 268 CURVE SMOOTH",
"323 75 OFFCURVE",
"249 26 OFFCURVE",
"152 26 CURVE SMOOTH"
);
}
);
width = 1149;
}
);
unicode = 00F0;
},
{
color = 4;
glyphname = e;
lastChange = "2022-05-08 20:28:52 +0000";
layers = (
{
anchors = (
{
name = bottom;
position = "{150, 0}";
},
{
name = ogonek;
position = "{342, 35}";
},
{
name = top;
position = "{541, 760}";
}
);
layerId = master01;
paths = (
{
closed = 1;
nodes = (
"516 -6 OFFCURVE",
"744 344 OFFCURVE",
"794 389 CURVE",
"773 406 LINE",
"736 373 OFFCURVE",
"509 23 OFFCURVE",
"196 23 CURVE SMOOTH",
"139 23 OFFCURVE",
"90 59 OFFCURVE",
"90 122 CURVE SMOOTH",
"90 165 OFFCURVE",
"102 216 OFFCURVE",
"149 291 CURVE",
"547 423 OFFCURVE",
"661 541 OFFCURVE",
"656 619 CURVE SMOOTH",
"654 654 OFFCURVE",
"626 685 OFFCURVE",
"545 685 CURVE SMOOTH",
"418 685 OFFCURVE",
"219 597 OFFCURVE",
"71 391 CURVE SMOOTH",
"37 344 OFFCURVE",
"-1 242 OFFCURVE",
"1 170 CURVE SMOOTH",
"3 71 OFFCURVE",
"54 -6 OFFCURVE",
"185 -6 CURVE SMOOTH {name = hr00;}"
);
},
{
closed = 1;
nodes = (
"183 343 OFFCURVE",
"196 361 OFFCURVE",
"211 380 CURVE SMOOTH",
"350 562 OFFCURVE",
"448 661 OFFCURVE",
"538 661 CURVE SMOOTH",
"571 661 OFFCURVE",
"590 644 OFFCURVE",
"590 605 CURVE SMOOTH",
"590 517 OFFCURVE",
"431 416 OFFCURVE",
"172 326 CURVE"
);
}
);
width = 794;
}
);
unicode = 0065;
},
{
color = 4;
glyphname = schwa;
lastChange = "2022-05-08 20:28:52 +0000";
layers = (
{
anchors = (
{
name = bottom;
position = "{153, 0}";
},
{
name = ogonek;
position = "{129, 750}";
},
{
name = top;
position = "{554, 760}";
}
);
layerId = master01;
paths = (
{
closed = 1;
nodes = (
"167 680 OFFCURVE",
"25 447 OFFCURVE",
"-25 402 CURVE",
"-1 389 LINE",
"36 422 OFFCURVE",
"174 651 OFFCURVE",
"397 651 CURVE SMOOTH",
"454 651 OFFCURVE",
"503 615 OFFCURVE",
"503 552 CURVE SMOOTH",
"503 509 OFFCURVE",
"491 458 OFFCURVE",
"444 383 CURVE",
"46 251 OFFCURVE",
"-68 133 OFFCURVE",
"-63 55 CURVE SMOOTH",
"-61 20 OFFCURVE",
"-33 -11 OFFCURVE",
"48 -11 CURVE SMOOTH",
"175 -11 OFFCURVE",
"374 77 OFFCURVE",
"522 283 CURVE SMOOTH",
"556 330 OFFCURVE",
"594 432 OFFCURVE",
"592 504 CURVE SMOOTH",
"590 603 OFFCURVE",
"539 680 OFFCURVE",
"408 680 CURVE SMOOTH {name = hr00;}"
);
},
{
closed = 1;
nodes = (
"410 331 OFFCURVE",
"397 313 OFFCURVE",
"382 294 CURVE SMOOTH",
"243 112 OFFCURVE",
"145 13 OFFCURVE",
"55 13 CURVE SMOOTH",
"22 13 OFFCURVE",
"3 30 OFFCURVE",
"3 69 CURVE SMOOTH",
"3 157 OFFCURVE",
"162 258 OFFCURVE",
"421 348 CURVE"
);
}
);
width = 631;
}
);
rightMetricsKey = "=|o";
unicode = 0259;
},
{
color = 4;
glyphname = f;
lastChange = "2022-05-08 19:36:00 +0000";
layers = (
{
layerId = master01;
paths = (
{
closed = 1;
nodes = (
"333 -787 OFFCURVE",
"548 -322 OFFCURVE",
"583 144 CURVE {name = hr00;}",
"624 208 LINE",
"657 184 OFFCURVE",
"698 167 OFFCURVE",
"749 162 CURVE SMOOTH",
"1026 133 OFFCURVE",
"1168 348 OFFCURVE",
"1211 389 CURVE",
"1188 405 LINE",
"1119 321 OFFCURVE",
"995 171 OFFCURVE",
"750 187 CURVE SMOOTH",
"705 190 OFFCURVE",
"668 207 OFFCURVE",
"639 232 CURVE",
"710 342 LINE",
"1122 601 OFFCURVE",
"1661 1210 OFFCURVE",
"1649 1493 CURVE",
"1648 1541 OFFCURVE",
"1620 1579 OFFCURVE",
"1563 1579 CURVE SMOOTH",
"1461 1579 OFFCURVE",
"1288 1396 OFFCURVE",
"1097 1123 CURVE SMOOTH",
"1048 1054 OFFCURVE",
"961 905 OFFCURVE",
"577 319 CURVE",
"569 336 OFFCURVE",
"563 353 OFFCURVE",
"560 368 CURVE",
"593 385 OFFCURVE",
"625 435 OFFCURVE",
"625 465 CURVE SMOOTH",
"625 504 OFFCURVE",
"601 526 OFFCURVE",
"571 526 CURVE SMOOTH",
"537 526 OFFCURVE",
"513 496 OFFCURVE",
"506 453 CURVE SMOOTH",
"501 416 OFFCURVE",
"514 346 OFFCURVE",
"554 284 CURVE",
"463 147 LINE SMOOTH",
"65 -455 OFFCURVE",
"-5 -581 OFFCURVE",
"1 -690 CURVE",
"2 -746 OFFCURVE",
"44 -787 OFFCURVE",
"99 -787 CURVE SMOOTH"
);
},
{
closed = 1;
nodes = (
"79 -762 OFFCURVE",
"61 -742 OFFCURVE",
"61 -720 CURVE SMOOTH",
"61 -634 OFFCURVE",
"303 -282 OFFCURVE",
"550 94 CURVE",
"503 -419 OFFCURVE",
"221 -762 OFFCURVE",
"106 -762 CURVE SMOOTH"
);
},
{
closed = 1;
nodes = (
"952 718 OFFCURVE",
"1103 952 OFFCURVE",
"1288 1245 CURVE SMOOTH",
"1447 1496 OFFCURVE",
"1515 1556 OFFCURVE",
"1558 1556 CURVE SMOOTH",
"1583 1556 OFFCURVE",
"1603 1536 OFFCURVE",
"1604 1499 CURVE SMOOTH",
"1613 1240 OFFCURVE",
"1115 648 OFFCURVE",
"746 398 CURVE"
);
}
);
width = 1650;
}
);
unicode = 0066;
},
{
color = 4;
glyphname = g;
lastChange = "2022-05-08 19:59:28 +0000";
layers = (
{
anchors = (
{
name = bottom;
position = "{911, -487}";
},
{
name = top;
position = "{1308, 760}";
}
);
layerId = master01;
paths = (
{
closed = 1;
nodes = (
"315 -787 OFFCURVE",
"448 -705 OFFCURVE",
"845 -214 CURVE",
"1143 -72 OFFCURVE",
"1391 110 OFFCURVE",
"1624 389 CURVE",
"1604 406 LINE",
"1393 152 OFFCURVE",
"1162 -26 OFFCURVE",
"883 -168 CURVE",
"975 -52 OFFCURVE",
"1082 84 OFFCURVE",
"1206 246 CURVE",
"1528 661 LINE",
"1511 658 OFFCURVE",
"1471 657 OFFCURVE",
"1454 657 CURVE SMOOTH",
"1431 657 OFFCURVE",
"1406 661 OFFCURVE",
"1391 665 CURVE",
"1365 629 OFFCURVE",
"1338 595 OFFCURVE",
"1297 544 CURVE",
"1305 564 OFFCURVE",
"1309 584 OFFCURVE",
"1309 603 CURVE SMOOTH",
"1308 654 OFFCURVE",
"1252 685 OFFCURVE",
"1165 685 CURVE SMOOTH",
"1039 685 OFFCURVE",
"868 632 OFFCURVE",
"697 423 CURVE",
"612 323 OFFCURVE",
"578 218 OFFCURVE",
"578 129 CURVE",
"580 47 OFFCURVE",
"619 -2 OFFCURVE",
"703 -2 CURVE SMOOTH {name = hr00;}",
"787 -2 OFFCURVE",
"930 73 OFFCURVE",
"1105 272 CURVE",
"1113 268 LINE",
"950 64 OFFCURVE",
"819 -100 OFFCURVE",
"710 -233 CURVE",
"144 -473 OFFCURVE",
"-3 -609 OFFCURVE",
"1 -720 CURVE",
"1 -751 OFFCURVE",
"44 -787 OFFCURVE",
"100 -787 CURVE SMOOTH"
);
},
{
closed = 1;
nodes = (
"61 -760 OFFCURVE",
"34 -735 OFFCURVE",
"34 -720 CURVE SMOOTH",
"34 -604 OFFCURVE",
"205 -480 OFFCURVE",
"675 -276 CURVE",
"348 -672 OFFCURVE",
"239 -760 OFFCURVE",
"103 -760 CURVE SMOOTH"
);
},
{
closed = 1;
nodes = (
"677 28 OFFCURVE",
"663 42 OFFCURVE",
"661 80 CURVE",
"660 144 OFFCURVE",
"704 234 OFFCURVE",
"802 356 CURVE SMOOTH",
"967 562 OFFCURVE",
"1128 654 OFFCURVE",
"1191 654 CURVE SMOOTH",
"1246 654 OFFCURVE",
"1280 635 OFFCURVE",
"1281 594 CURVE",
"1281 550 OFFCURVE",
"1250 493 OFFCURVE",
"1218 446 CURVE",
"1140 351 LINE",
"934 111 OFFCURVE",
"785 28 OFFCURVE",
"710 28 CURVE SMOOTH"
);
}
);
width = 1624;
}
);
unicode = 0067;
},
{
color = 4;
glyphname = h;
lastChange = "2022-05-08 19:36:00 +0000";
layers = (
{
layerId = master01;
paths = (
{
closed = 1;
nodes = (
"917 -2 OFFCURVE",
"1162 345 OFFCURVE",
"1204 389 CURVE",
"1182 406 LINE",
"1147 369 OFFCURVE",
"905 26 OFFCURVE",
"695 26 CURVE SMOOTH",
"659 26 OFFCURVE",
"624 36 OFFCURVE",
"624 49 CURVE SMOOTH",
"624 66 OFFCURVE",
"628 75 OFFCURVE",
"695 147 CURVE SMOOTH",
"918 388 OFFCURVE",
"978 504 OFFCURVE",
"982 584 CURVE SMOOTH",
"984 634 OFFCURVE",
"950 685 OFFCURVE",
"864 685 CURVE SMOOTH",
"821 685 OFFCURVE",
"763 674 OFFCURVE",
"697 632 CURVE",
"602 568 OFFCURVE",
"463 441 OFFCURVE",
"259 207 CURVE",
"254 218 LINE",
"1246 1595 LINE",
"1228 1593 OFFCURVE",
"1213 1591 OFFCURVE",
"1203 1591 CURVE SMOOTH",
"1150 1589 OFFCURVE",
"1124 1593 OFFCURVE",
"1107 1595 CURVE",
"0 14 LINE",
"15 18 OFFCURVE",
"48 24 OFFCURVE",
"96 24 CURVE SMOOTH",
"115 24 OFFCURVE",
"133 23 OFFCURVE",
"154 19 CURVE {name = hr00;}",
"246 141 LINE",
"442 385 OFFCURVE",
"601 531 OFFCURVE",
"706 603 CURVE",
"768 644 OFFCURVE",
"824 660 OFFCURVE",
"855 660 CURVE SMOOTH",
"892 660 OFFCURVE",
"902 643 OFFCURVE",
"902 624 CURVE SMOOTH",
"902 592 OFFCURVE",
"868 531 OFFCURVE",
"763 413 CURVE SMOOTH",
"567 193 OFFCURVE",
"550 129 OFFCURVE",
"550 75 CURVE SMOOTH",
"550 28 OFFCURVE",
"621 -2 OFFCURVE",
"683 -2 CURVE SMOOTH"
);
}
);
width = 1246;
}
);
unicode = 0068;
},
{
color = 1;
glyphname = hbar;
lastChange = "2022-05-08 20:30:36 +0000";
layers = (
{
layerId = master01;
paths = (
{
closed = 1;
nodes = (
"917 -2 OFFCURVE",
"1162 345 OFFCURVE",
"1204 389 CURVE",
"1182 406 LINE",
"1147 369 OFFCURVE",
"905 26 OFFCURVE",
"695 26 CURVE SMOOTH",
"659 26 OFFCURVE",
"624 36 OFFCURVE",
"624 49 CURVE SMOOTH",
"624 66 OFFCURVE",
"628 75 OFFCURVE",
"695 147 CURVE SMOOTH",
"918 388 OFFCURVE",
"978 504 OFFCURVE",
"982 584 CURVE SMOOTH",
"984 634 OFFCURVE",
"950 685 OFFCURVE",
"864 685 CURVE SMOOTH",
"821 685 OFFCURVE",
"763 674 OFFCURVE",
"697 632 CURVE",
"602 568 OFFCURVE",
"463 441 OFFCURVE",
"259 207 CURVE",
"254 218 LINE",
"945 1178 LINE",
"1219 1178 LINE",
"1221 1186 OFFCURVE",
"1224 1197 OFFCURVE",
"1231 1205 CURVE",
"965 1205 LINE",
"1246 1595 LINE",
"1228 1593 OFFCURVE",
"1213 1591 OFFCURVE",
"1203 1591 CURVE SMOOTH",
"1150 1589 OFFCURVE",
"1124 1593 OFFCURVE",
"1107 1595 CURVE",
"834 1205 LINE",
"713 1205 LINE",
"707 1197 OFFCURVE",
"698 1186 OFFCURVE",
"688 1178 CURVE",
"815 1178 LINE",
"0 14 LINE",
"15 18 OFFCURVE",
"48 24 OFFCURVE",
"96 24 CURVE SMOOTH",
"115 24 OFFCURVE",
"133 23 OFFCURVE",
"154 19 CURVE {name = hr00;}",
"246 141 LINE",
"442 385 OFFCURVE",
"601 531 OFFCURVE",
"706 603 CURVE",
"768 644 OFFCURVE",
"824 660 OFFCURVE",
"855 660 CURVE SMOOTH",
"892 660 OFFCURVE",
"902 643 OFFCURVE",
"902 624 CURVE SMOOTH",
"902 592 OFFCURVE",
"868 531 OFFCURVE",
"763 413 CURVE SMOOTH",
"567 193 OFFCURVE",
"550 129 OFFCURVE",
"550 75 CURVE SMOOTH",
"550 28 OFFCURVE",
"621 -2 OFFCURVE",
"683 -2 CURVE SMOOTH"
);
}
);
width = 1246;
}
);
leftMetricsKey = h;
rightMetricsKey = h;
unicode = 0127;
},
{
color = 4;
glyphname = i;
lastChange = "2022-05-08 20:31:40 +0000";
layers = (
{
anchors = (
{
name = bottom;
position = "{-44, 0}";
}
);
layerId = master01;
paths = (
{
closed = 1;
nodes = (
"355 -2 OFFCURVE",
"629 350 OFFCURVE",
"667 389 CURVE",
"647 407 LINE",
"628 386 OFFCURVE",
"332 26 OFFCURVE",
"153 26 CURVE SMOOTH",
"130 26 OFFCURVE",
"80 25 OFFCURVE",
"80 60 CURVE SMOOTH",
"80 115 OFFCURVE",
"159 218 OFFCURVE",
"549 677 CURVE",
"538 676 OFFCURVE",
"530 675 OFFCURVE",
"507 675 CURVE SMOOTH",
"482 675 OFFCURVE",
"423 676 OFFCURVE",
"411 678 CURVE",
"56 264 OFFCURVE",
"0 161 OFFCURVE",
"0 81 CURVE SMOOTH",
"0 30 OFFCURVE",
"54 -2 OFFCURVE",
"136 -2 CURVE SMOOTH"
);
},
{
closed = 1;
nodes = (
"696 876 OFFCURVE",
"747 920 OFFCURVE",
"747 969 CURVE SMOOTH",
"747 1004 OFFCURVE",
"723 1032 OFFCURVE",
"686 1032 CURVE SMOOTH",
"631 1032 OFFCURVE",
"586 984 OFFCURVE",
"586 938 CURVE SMOOTH",
"586 902 OFFCURVE",
"610 876 OFFCURVE",
"647 876 CURVE SMOOTH {name = hr00;}"
);
}
);
width = 747;
}
);
unicode = 0069;
},
{
color = 4;
glyphname = idotless;
lastChange = "2022-05-08 20:31:46 +0000";
layers = (
{
anchors = (
{
name = bottom;
position = "{-44, 0}";
},
{
name = ogonek;
position = "{227, 27}";
},
{
name = top;
position = "{530, 760}";
}
);
layerId = master01;
paths = (
{
closed = 1;
nodes = (
"355 -2 OFFCURVE",
"629 350 OFFCURVE",
"667 389 CURVE",
"647 407 LINE",
"628 386 OFFCURVE",
"332 26 OFFCURVE",
"153 26 CURVE SMOOTH {name = hr00;}",
"130 26 OFFCURVE",
"80 25 OFFCURVE",
"80 60 CURVE SMOOTH",
"80 115 OFFCURVE",
"159 218 OFFCURVE",
"549 677 CURVE",
"538 676 OFFCURVE",
"530 675 OFFCURVE",
"507 675 CURVE SMOOTH",
"482 675 OFFCURVE",
"423 676 OFFCURVE",
"411 678 CURVE",
"56 264 OFFCURVE",
"0 161 OFFCURVE",
"0 81 CURVE SMOOTH",
"0 30 OFFCURVE",
"54 -2 OFFCURVE",
"136 -2 CURVE SMOOTH"
);
}
);
width = 667;
}
);
unicode = 0131;
},
{
color = 1;
glyphname = ij;
lastChange = "2022-05-08 20:30:13 +0000";
layers = (
{
layerId = master01;
paths = (
{
closed = 1;
nodes = (
"314 -787 OFFCURVE",
"474 -710 OFFCURVE",
"894 -205 CURVE",
"1257 -34 OFFCURVE",
"1415 74 OFFCURVE",
"1669 389 CURVE",
"1649 406 LINE",
"1415 111 OFFCURVE",
"1263 -1 OFFCURVE",
"931 -160 CURVE",
"1024 -47 OFFCURVE",
"1129 85 OFFCURVE",
"1250 242 CURVE SMOOTH",
"1399 437 OFFCURVE",
"1494 559 OFFCURVE",
"1586 677 CURVE",
"1577 676 OFFCURVE",
"1560 675 OFFCURVE",
"1537 675 CURVE SMOOTH",
"1512 675 OFFCURVE",
"1444 675 OFFCURVE",
"1430 677 CURVE",
"1426 649 OFFCURVE",
"1262 430 OFFCURVE",
"1118 246 CURVE",
"1013 142 OFFCURVE",
"874 26 OFFCURVE",
"773 26 CURVE SMOOTH",
"750 26 OFFCURVE",
"700 25 OFFCURVE",
"700 60 CURVE SMOOTH",
"700 115 OFFCURVE",
"779 218 OFFCURVE",
"1169 677 CURVE",
"1158 676 OFFCURVE",
"1150 675 OFFCURVE",
"1127 675 CURVE SMOOTH",
"1102 675 OFFCURVE",
"1043 676 OFFCURVE",
"1031 678 CURVE",
"676 264 OFFCURVE",
"620 161 OFFCURVE",
"620 81 CURVE SMOOTH",
"620 30 OFFCURVE",
"674 -2 OFFCURVE",
"756 -2 CURVE SMOOTH",
"841 -2 OFFCURVE",
"934 51 OFFCURVE",
"1019 119 CURVE",
"990 82 OFFCURVE",
"964 48 OFFCURVE",
"945 25 CURVE SMOOTH",
"867 -74 OFFCURVE",
"799 -160 OFFCURVE",
"736 -236 CURVE",
"160 -475 OFFCURVE",
"0 -610 OFFCURVE",
"0 -720 CURVE SMOOTH",
"0 -751 OFFCURVE",
"31 -787 OFFCURVE",
"89 -787 CURVE SMOOTH"
);
},
{
closed = 1;
nodes = (
"49 -760 OFFCURVE",
"33 -735 OFFCURVE",
"33 -720 CURVE SMOOTH",
"33 -605 OFFCURVE",
"221 -481 OFFCURVE",
"702 -277 CURVE",
"354 -696 OFFCURVE",
"235 -759 OFFCURVE",
"92 -760 CURVE SMOOTH"
);
},
{
closed = 1;
nodes = (
"1316 873 OFFCURVE",
"1367 917 OFFCURVE",
"1367 966 CURVE SMOOTH",
"1367 1001 OFFCURVE",
"1343 1029 OFFCURVE",
"1306 1029 CURVE SMOOTH",
"1251 1029 OFFCURVE",
"1206 981 OFFCURVE",
"1206 935 CURVE SMOOTH",
"1206 899 OFFCURVE",
"1230 873 OFFCURVE",
"1267 873 CURVE SMOOTH"
);
},
{
closed = 1;
nodes = (
"1714 873 OFFCURVE",
"1765 917 OFFCURVE",
"1765 966 CURVE SMOOTH",
"1765 1001 OFFCURVE",
"1742 1029 OFFCURVE",
"1705 1029 CURVE SMOOTH",
"1650 1029 OFFCURVE",
"1604 981 OFFCURVE",
"1604 935 CURVE SMOOTH",
"1604 899 OFFCURVE",
"1629 873 OFFCURVE",
"1665 873 CURVE SMOOTH {name = hr00;}"
);
}
);
width = 1765;
}
);
unicode = 0133;
},
{
color = 4;
glyphname = j;
lastChange = "2022-05-08 19:36:00 +0000";
layers = (
{
layerId = master01;
paths = (
{
closed = 1;
nodes = (
"314 -787 OFFCURVE",
"474 -710 OFFCURVE",
"894 -205 CURVE",
"1257 -34 OFFCURVE",
"1415 74 OFFCURVE",
"1669 389 CURVE",
"1649 406 LINE",
"1415 111 OFFCURVE",
"1263 -1 OFFCURVE",
"931 -160 CURVE",
"1024 -47 OFFCURVE",
"1130 85 OFFCURVE",
"1250 242 CURVE SMOOTH",
"1399 437 OFFCURVE",
"1494 559 OFFCURVE",
"1586 677 CURVE",
"1577 676 OFFCURVE",
"1560 675 OFFCURVE",
"1537 675 CURVE SMOOTH",
"1512 675 OFFCURVE",
"1444 675 OFFCURVE",
"1430 677 CURVE",
"1425 635 OFFCURVE",
"1062 172 OFFCURVE",
"945 25 CURVE SMOOTH",
"867 -74 OFFCURVE",
"799 -160 OFFCURVE",
"736 -236 CURVE",
"160 -475 OFFCURVE",
"0 -610 OFFCURVE",
"0 -720 CURVE SMOOTH",
"0 -751 OFFCURVE",
"31 -787 OFFCURVE",
"89 -787 CURVE SMOOTH"
);
},
{
closed = 1;
nodes = (
"49 -760 OFFCURVE",
"33 -735 OFFCURVE",
"33 -720 CURVE SMOOTH",
"33 -605 OFFCURVE",
"221 -481 OFFCURVE",
"702 -277 CURVE",
"354 -696 OFFCURVE",
"235 -759 OFFCURVE",
"92 -760 CURVE SMOOTH"
);
},
{
closed = 1;
nodes = (
"1714 876 OFFCURVE",
"1765 920 OFFCURVE",
"1765 969 CURVE SMOOTH",
"1765 1004 OFFCURVE",
"1742 1032 OFFCURVE",
"1705 1032 CURVE SMOOTH",
"1650 1032 OFFCURVE",
"1604 984 OFFCURVE",
"1604 938 CURVE SMOOTH",
"1604 902 OFFCURVE",
"1629 876 OFFCURVE",
"1665 876 CURVE SMOOTH {name = hr00;}"
);
}
);
width = 1765;
}
);
unicode = 006A;
},
{
color = 4;
glyphname = jdotless;
lastChange = "2022-05-08 19:57:17 +0000";
layers = (
{
anchors = (
{
name = bottom;
position = "{734, -787}";
},
{
name = top;
position = "{1581, 760}";
}
);
layerId = master01;
paths = (
{
closed = 1;
nodes = (
"313 -787 OFFCURVE",
"472 -710 OFFCURVE",
"892 -205 CURVE",
"1254 -34 OFFCURVE",
"1413 75 OFFCURVE",
"1666 389 CURVE",
"1646 406 LINE",
"1412 112 OFFCURVE",
"1260 0 OFFCURVE",
"929 -160 CURVE",
"1022 -47 OFFCURVE",
"1127 85 OFFCURVE",
"1247 242 CURVE SMOOTH {name = hr00;}",
"1396 437 OFFCURVE",
"1491 559 OFFCURVE",
"1583 677 CURVE",
"1574 676 OFFCURVE",
"1557 675 OFFCURVE",
"1534 675 CURVE SMOOTH",
"1509 675 OFFCURVE",
"1441 675 OFFCURVE",
"1427 677 CURVE",
"1422 635 OFFCURVE",
"1059 172 OFFCURVE",
"942 25 CURVE SMOOTH",
"865 -73 OFFCURVE",
"796 -160 OFFCURVE",
"734 -235 CURVE",
"157 -474 OFFCURVE",
"0 -610 OFFCURVE",
"0 -720 CURVE SMOOTH",
"0 -751 OFFCURVE",
"30 -787 OFFCURVE",
"89 -787 CURVE SMOOTH"
);
},
{
closed = 1;
nodes = (
"49 -760 OFFCURVE",
"33 -735 OFFCURVE",
"33 -720 CURVE SMOOTH",
"33 -605 OFFCURVE",
"218 -481 OFFCURVE",
"699 -277 CURVE",
"352 -696 OFFCURVE",
"234 -759 OFFCURVE",
"91 -760 CURVE SMOOTH"
);
}
);
width = 1666;
}
);
unicode = 0237;
},
{
color = 4;
glyphname = k;
lastChange = "2022-05-08 19:57:35 +0000";
layers = (
{
anchors = (
{
name = bottom;
position = "{294, 0}";
},
{
name = top;
position = "{1306, 1211}";
}
);
layerId = master01;
paths = (
{
closed = 1;
nodes = (
"15 18 OFFCURVE",
"54 24 OFFCURVE",
"71 24 CURVE SMOOTH",
"90 24 OFFCURVE",
"115 22 OFFCURVE",
"129 19 CURVE {name = hr00;}",
"237 184 OFFCURVE",
"366 373 OFFCURVE",
"551 630 CURVE SMOOTH",
"1245 1595 LINE",
"1228 1593 OFFCURVE",
"1213 1591 OFFCURVE",
"1203 1591 CURVE SMOOTH",
"1149 1589 OFFCURVE",
"1123 1593 OFFCURVE",
"1107 1595 CURVE",
"0 14 LINE"
);
},
{
closed = 1;
nodes = (
"846 -2 OFFCURVE",
"1141 375 OFFCURVE",
"1157 389 CURVE",
"1137 407 LINE",
"1124 393 OFFCURVE",
"843 26 OFFCURVE",
"638 26 CURVE SMOOTH",
"602 26 OFFCURVE",
"591 38 OFFCURVE",
"591 57 CURVE SMOOTH",
"591 72 OFFCURVE",
"607 91 OFFCURVE",
"629 112 CURVE SMOOTH",
"751 223 OFFCURVE",
"766 279 OFFCURVE",
"766 332 CURVE SMOOTH",
"766 385 OFFCURVE",
"731 434 OFFCURVE",
"671 462 CURVE",
"696 480 OFFCURVE",
"722 503 OFFCURVE",
"748 534 CURVE",
"857 673 OFFCURVE",
"914 714 OFFCURVE",
"974 714 CURVE SMOOTH",
"991 714 OFFCURVE",
"1003 710 OFFCURVE",
"1013 702 CURVE",
"992 695 OFFCURVE",
"974 677 OFFCURVE",
"973 652 CURVE",
"970 617 OFFCURVE",
"1001 592 OFFCURVE",
"1030 592 CURVE SMOOTH",
"1067 592 OFFCURVE",
"1100 612 OFFCURVE",
"1101 661 CURVE SMOOTH",
"1102 705 OFFCURVE",
"1059 744 OFFCURVE",
"995 744 CURVE SMOOTH",
"874 744 OFFCURVE",
"792 627 OFFCURVE",
"721 545 CURVE SMOOTH",
"685 505 OFFCURVE",
"669 490 OFFCURVE",
"638 475 CURVE",
"614 482 OFFCURVE",
"586 486 OFFCURVE",
"556 486 CURVE SMOOTH",
"504 486 OFFCURVE",
"460 464 OFFCURVE",
"460 440 CURVE SMOOTH",
"460 424 OFFCURVE",
"480 409 OFFCURVE",
"517 409 CURVE SMOOTH",
"540 409 OFFCURVE",
"585 412 OFFCURVE",
"639 442 CURVE",
"674 430 OFFCURVE",
"698 407 OFFCURVE",
"698 384 CURVE SMOOTH",
"698 369 OFFCURVE",
"688 353 OFFCURVE",
"649 313 CURVE",
"553 219 OFFCURVE",
"527 156 OFFCURVE",
"527 105 CURVE SMOOTH",
"527 49 OFFCURVE",
"554 -2 OFFCURVE",
"627 -2 CURVE SMOOTH"
);
}
);
width = 1245;
}
);
unicode = 006B;
},
{
color = 4;
glyphname = kgreenlandic;
lastChange = "2022-05-08 20:28:46 +0000";
layers = (
{
layerId = master01;
paths = (
{
closed = 1;
nodes = (
"846 -2 OFFCURVE",
"1142 375 OFFCURVE",
"1157 389 CURVE",
"1136 407 LINE",
"1124 393 OFFCURVE",
"842 26 OFFCURVE",
"639 26 CURVE SMOOTH",
"602 26 OFFCURVE",
"590 38 OFFCURVE",
"590 57 CURVE SMOOTH",
"590 72 OFFCURVE",
"606 91 OFFCURVE",
"630 112 CURVE SMOOTH",
"751 218 OFFCURVE",
"766 271 OFFCURVE",
"766 321 CURVE SMOOTH",
"766 375 OFFCURVE",
"731 424 OFFCURVE",
"671 451 CURVE",
"696 469 OFFCURVE",
"722 492 OFFCURVE",
"748 523 CURVE",
"857 670 OFFCURVE",
"914 714 OFFCURVE",
"973 714 CURVE SMOOTH",
"991 714 OFFCURVE",
"1003 711 OFFCURVE",
"1013 702 CURVE",
"993 695 OFFCURVE",
"974 677 OFFCURVE",
"972 652 CURVE SMOOTH",
"970 617 OFFCURVE",
"1001 592 OFFCURVE",
"1030 592 CURVE SMOOTH {name = hr04;}",
"1067 592 OFFCURVE",
"1101 612 OFFCURVE",
"1102 661 CURVE SMOOTH",
"1102 705 OFFCURVE",
"1060 744 OFFCURVE",
"995 744 CURVE SMOOTH",
"875 744 OFFCURVE",
"792 621 OFFCURVE",
"721 535 CURVE",
"685 495 OFFCURVE",
"669 480 OFFCURVE",
"637 464 CURVE",
"613 471 OFFCURVE",
"585 475 OFFCURVE",
"556 475 CURVE SMOOTH",
"504 475 OFFCURVE",
"459 454 OFFCURVE",
"459 430 CURVE SMOOTH",
"459 413 OFFCURVE",
"480 399 OFFCURVE",
"517 399 CURVE SMOOTH",
"540 399 OFFCURVE",
"586 402 OFFCURVE",
"640 432 CURVE",
"674 420 OFFCURVE",
"697 397 OFFCURVE",
"697 374 CURVE SMOOTH",
"697 359 OFFCURVE",
"687 343 OFFCURVE",
"650 303 CURVE",
"553 213 OFFCURVE",
"528 154 OFFCURVE",
"528 105 CURVE SMOOTH",
"528 49 OFFCURVE",
"554 -2 OFFCURVE",
"627 -2 CURVE SMOOTH"
);
},
{
closed = 1;
nodes = (
"15 18 OFFCURVE",
"53 24 OFFCURVE",
"71 24 CURVE SMOOTH",
"90 24 OFFCURVE",
"116 22 OFFCURVE",
"129 19 CURVE {name = hr01;}",
"237 184 OFFCURVE",
"412 442 OFFCURVE",
"597 700 CURVE",
"639 747 LINE",
"621 746 OFFCURVE",
"607 746 OFFCURVE",
"596 744 CURVE {name = hr02;}",
"573 743 OFFCURVE",
"530 746 OFFCURVE",
"514 747 CURVE {name = hr03;}",
"0 14 LINE"
);
}
);
width = 1157;
}
);
unicode = 0138;
},
{
color = 4;
glyphname = l;
lastChange = "2022-05-08 20:24:34 +0000";
layers = (
{
anchors = (
{
name = bottom;
position = "{-24, 0}";
},
{
name = center;
position = "{627, 971}";
},
{
name = top;
position = "{1070, 1596}";
},
{
name = topright;
position = "{1155, 1137}";
}
);
layerId = master01;
paths = (
{
closed = 1;
nodes = (
"320 -2 OFFCURVE",
"604 347 OFFCURVE",
"647 389 CURVE",
"627 406 LINE",
"587 368 OFFCURVE",
"311 26 OFFCURVE",
"114 26 CURVE SMOOTH {name = hr00;}",
"86 26 OFFCURVE",
"67 39 OFFCURVE",
"67 59 CURVE SMOOTH",
"67 90 OFFCURVE",
"79 119 OFFCURVE",
"319 454 CURVE",
"1141 1595 LINE",
"1124 1593 OFFCURVE",
"1109 1591 OFFCURVE",
"1099 1591 CURVE SMOOTH",
"1046 1589 OFFCURVE",
"1020 1593 OFFCURVE",
"1002 1595 CURVE",
"229 490 LINE",
"19 187 OFFCURVE",
"0 150 OFFCURVE",
"0 79 CURVE SMOOTH",
"0 33 OFFCURVE",
"41 -2 OFFCURVE",
"97 -2 CURVE SMOOTH"
);
}
);
width = 1141;
}
);
unicode = 006C;
},
{
color = 1;
glyphname = ldot;
lastChange = "2022-05-08 20:30:17 +0000";
layers = (
{
layerId = master01;
paths = (
{
closed = 1;
nodes = (
"336 -2 OFFCURVE",
"626 347 OFFCURVE",
"670 389 CURVE",
"650 406 LINE",
"609 368 OFFCURVE",
"327 26 OFFCURVE",
"125 26 CURVE SMOOTH {name = hr00;}",
"91 26 OFFCURVE",
"67 39 OFFCURVE",
"67 59 CURVE SMOOTH",
"67 90 OFFCURVE",
"79 119 OFFCURVE",
"319 454 CURVE",
"1141 1595 LINE",
"1124 1593 OFFCURVE",
"1109 1591 OFFCURVE",
"1099 1591 CURVE SMOOTH",
"1046 1589 OFFCURVE",
"1020 1593 OFFCURVE",
"1002 1595 CURVE",
"229 490 LINE",
"19 187 OFFCURVE",
"0 150 OFFCURVE",
"0 79 CURVE SMOOTH",
"0 33 OFFCURVE",
"45 -2 OFFCURVE",
"108 -2 CURVE SMOOTH"
);
},
{
closed = 1;
nodes = (
"782 772 OFFCURVE",
"821 805 OFFCURVE",
"821 840 CURVE SMOOTH",
"821 866 OFFCURVE",
"804 887 OFFCURVE",
"776 887 CURVE SMOOTH",
"735 887 OFFCURVE",
"700 853 OFFCURVE",
"700 817 CURVE SMOOTH",
"700 792 OFFCURVE",
"720 772 OFFCURVE",
"747 772 CURVE SMOOTH"
);
}
);
width = 1141;
}
);
unicode = 0140;
},
{
color = 1;
glyphname = lslash;
lastChange = "2022-05-08 20:30:17 +0000";
layers = (
{
layerId = master01;
paths = (
{
closed = 1;
nodes = (
"320 -2 OFFCURVE",
"604 347 OFFCURVE",
"647 389 CURVE",
"627 406 LINE",
"587 368 OFFCURVE",
"311 26 OFFCURVE",
"114 26 CURVE SMOOTH {name = hr00;}",
"86 26 OFFCURVE",
"67 39 OFFCURVE",
"67 59 CURVE SMOOTH",
"67 90 OFFCURVE",
"79 119 OFFCURVE",
"319 454 CURVE SMOOTH",
"633 891 LINE",
"927 1032 LINE",
"929 1050 OFFCURVE",
"940 1072 OFFCURVE",
"946 1084 CURVE",
"680 955 LINE",
"1141 1595 LINE",
"1124 1593 OFFCURVE",
"1109 1591 OFFCURVE",
"1099 1591 CURVE SMOOTH",
"1046 1589 OFFCURVE",
"1020 1593 OFFCURVE",
"1002 1595 CURVE",
"490 864 LINE",
"237 741 LINE",
"235 725 OFFCURVE",
"226 707 OFFCURVE",
"215 690 CURVE",
"447 801 LINE",
"229 490 LINE",
"19 187 OFFCURVE",
"0 150 OFFCURVE",
"0 79 CURVE SMOOTH",
"0 33 OFFCURVE",
"41 -2 OFFCURVE",
"97 -2 CURVE SMOOTH"
);
}
);
width = 1141;
}
);
unicode = 0142;
},
{
color = 4;
glyphname = m;
lastChange = "2022-05-08 20:25:15 +0000";
layers = (
{
anchors = (
{
name = bottom;
position = "{510, 0}";
},
{
name = top;
position = "{990, 760}";
}
);
layerId = master01;
paths = (
{
closed = 1;
nodes = (
"1270 -5 OFFCURVE",
"1541 347 OFFCURVE",
"1580 389 CURVE",
"1559 406 LINE",
"1525 368 OFFCURVE",
"1258 24 OFFCURVE",
"1095 24 CURVE SMOOTH",
"1045 24 OFFCURVE",
"1022 34 OFFCURVE",
"1022 48 CURVE",
"1029 49 LINE",
"1029 66 OFFCURVE",
"1032 75 OFFCURVE",
"1101 147 CURVE",
"1323 388 OFFCURVE",
"1384 504 OFFCURVE",
"1387 584 CURVE",
"1388 634 OFFCURVE",
"1356 685 OFFCURVE",
"1270 685 CURVE SMOOTH",
"1215 685 OFFCURVE",
"1159 665 OFFCURVE",
"1059 584 CURVE SMOOTH",
"1015 548 OFFCURVE",
"963 500 OFFCURVE",
"903 439 CURVE {name = hr05;}",
"947 507 OFFCURVE",
"953 536 OFFCURVE",
"956 584 CURVE SMOOTH",
"959 634 OFFCURVE",
"924 685 OFFCURVE",
"839 685 CURVE SMOOTH",
"786 685 OFFCURVE",
"731 668 OFFCURVE",
"654 609 CURVE",
"573 551 OFFCURVE",
"446 423 OFFCURVE",
"259 207 CURVE",
"254 218 LINE",
"464 510 LINE SMOOTH",
"500 561 OFFCURVE",
"508 592 OFFCURVE",
"510 613 CURVE SMOOTH {name = hr06;}",
"516 675 OFFCURVE",
"468 685 OFFCURVE",
"429 685 CURVE SMOOTH",
"324 685 OFFCURVE",
"201 489 OFFCURVE",
"124 406 CURVE SMOOTH",
"119 401 OFFCURVE",
"124 398 OFFCURVE",
"127 394 CURVE",
"133 389 OFFCURVE",
"143 388 OFFCURVE",
"145 389 CURVE",
"216 478 OFFCURVE",
"355 651 OFFCURVE",
"393 651 CURVE SMOOTH",
"413 651 OFFCURVE",
"416 638 OFFCURVE",
"415 622 CURVE SMOOTH",
"412 593 OFFCURVE",
"375 554 OFFCURVE",
"0 14 CURVE",
"13 18 OFFCURVE",
"47 24 OFFCURVE",
"95 24 CURVE SMOOTH {name = hr01;}",
"114 24 OFFCURVE",
"133 23 OFFCURVE",
"152 19 CURVE",
"245 141 LINE",
"424 359 OFFCURVE",
"565 502 OFFCURVE",
"657 576 CURVE SMOOTH",
"739 641 OFFCURVE",
"794 660 OFFCURVE",
"828 660 CURVE SMOOTH {name = hr03;}",
"857 660 OFFCURVE",
"877 650 OFFCURVE",
"877 629 CURVE SMOOTH",
"877 603 OFFCURVE",
"857 560 OFFCURVE",
"742 408 CURVE SMOOTH",
"566 176 OFFCURVE",
"629 255 OFFCURVE",
"432 14 CURVE",
"446 18 OFFCURVE",
"480 24 OFFCURVE",
"527 24 CURVE SMOOTH",
"547 24 OFFCURVE",
"565 23 OFFCURVE",
"584 19 CURVE",
"677 141 LINE",
"848 357 OFFCURVE",
"990 498 OFFCURVE",
"1094 577 CURVE SMOOTH",
"1181 642 OFFCURVE",
"1225 660 OFFCURVE",
"1257 660 CURVE SMOOTH",
"1296 660 OFFCURVE",
"1308 643 OFFCURVE",
"1308 624 CURVE SMOOTH",
"1308 592 OFFCURVE",
"1272 531 OFFCURVE",
"1168 413 CURVE",
"971 193 OFFCURVE",
"949 127 OFFCURVE",
"949 73 CURVE SMOOTH {name = hr04;}",
"949 26 OFFCURVE",
"1011 -5 OFFCURVE",
"1083 -5 CURVE SMOOTH"
);
}
);
width = 1580;
}
);
unicode = 006D;
},
{
color = 4;
glyphname = n;
lastChange = "2022-05-08 20:29:12 +0000";
layers = (
{
anchors = (
{
name = bottom;
position = "{335, 0}";
},
{
name = top;
position = "{792, 760}";
}
);
layerId = master01;
paths = (
{
closed = 1;
nodes = (
"898 -2 OFFCURVE",
"1148 347 OFFCURVE",
"1187 389 CURVE",
"1166 406 LINE",
"1132 368 OFFCURVE",
"883 26 OFFCURVE",
"679 26 CURVE SMOOTH",
"637 26 OFFCURVE",
"607 36 OFFCURVE",
"607 49 CURVE SMOOTH",
"607 66 OFFCURVE",
"611 75 OFFCURVE",
"679 147 CURVE",
"901 388 OFFCURVE",
"962 504 OFFCURVE",
"965 584 CURVE",
"966 634 OFFCURVE",
"934 685 OFFCURVE",
"848 685 CURVE SMOOTH",
"807 685 OFFCURVE",
"760 674 OFFCURVE",
"696 632 CURVE SMOOTH",
"600 568 OFFCURVE",
"467 441 OFFCURVE",
"259 207 CURVE",
"254 218 LINE",
"464 510 LINE SMOOTH {name = hr04;}",
"500 561 OFFCURVE",
"508 592 OFFCURVE",
"510 613 CURVE SMOOTH",
"516 675 OFFCURVE",
"468 685 OFFCURVE",
"429 685 CURVE SMOOTH",
"324 685 OFFCURVE",
"201 489 OFFCURVE",
"124 406 CURVE SMOOTH",
"119 401 OFFCURVE",
"124 398 OFFCURVE",
"127 394 CURVE",
"133 389 OFFCURVE",
"143 388 OFFCURVE",
"145 389 CURVE",
"216 478 OFFCURVE",
"355 651 OFFCURVE",
"393 651 CURVE SMOOTH",
"413 651 OFFCURVE",
"416 638 OFFCURVE",
"415 622 CURVE SMOOTH",
"412 593 OFFCURVE",
"375 554 OFFCURVE",
"0 14 CURVE",
"16 18 OFFCURVE",
"47 24 OFFCURVE",
"95 24 CURVE SMOOTH {name = hr01;}",
"115 24 OFFCURVE",
"132 23 OFFCURVE",
"153 19 CURVE",
"246 141 LINE",
"445 385 OFFCURVE",
"599 531 OFFCURVE",
"704 603 CURVE SMOOTH",
"765 644 OFFCURVE",
"810 660 OFFCURVE",
"837 660 CURVE SMOOTH",
"874 660 OFFCURVE",
"885 643 OFFCURVE",
"885 624 CURVE SMOOTH",
"885 592 OFFCURVE",
"851 531 OFFCURVE",
"746 413 CURVE SMOOTH",
"549 193 OFFCURVE",
"533 129 OFFCURVE",
"533 75 CURVE SMOOTH {name = hr03;}",
"533 28 OFFCURVE",
"595 -2 OFFCURVE",
"669 -2 CURVE SMOOTH"
);
}
);
width = 1187;
}
);
unicode = 006E;
},
{
color = 1;
glyphname = eng;
lastChange = "2022-05-08 20:39:48 +0000";
layers = (
{
anchors = (
{
name = bottom;
position = "{335, 0}";
}
);
layerId = master01;
paths = (
{
closed = 1;
nodes = (
"905 111 OFFCURVE",
"753 -1 OFFCURVE",
"421 -160 CURVE",
"678 148 LINE",
"873 358 OFFCURVE",
"961 488 OFFCURVE",
"965 584 CURVE SMOOTH",
"966 634 OFFCURVE",
"934 685 OFFCURVE",
"848 685 CURVE SMOOTH",
"807 685 OFFCURVE",
"760 674 OFFCURVE",
"696 632 CURVE SMOOTH",
"600 568 OFFCURVE",
"467 441 OFFCURVE",
"259 207 CURVE",
"254 218 LINE",
"464 510 LINE SMOOTH {name = hr04;}",
"500 561 OFFCURVE",
"508 592 OFFCURVE",
"510 613 CURVE SMOOTH",
"516 675 OFFCURVE",
"468 685 OFFCURVE",
"429 685 CURVE SMOOTH",
"324 685 OFFCURVE",
"201 489 OFFCURVE",
"124 406 CURVE SMOOTH",
"119 401 OFFCURVE",
"124 398 OFFCURVE",
"127 394 CURVE",
"133 389 OFFCURVE",
"143 388 OFFCURVE",
"145 389 CURVE",
"216 478 OFFCURVE",
"355 651 OFFCURVE",
"393 651 CURVE SMOOTH",
"413 651 OFFCURVE",
"416 638 OFFCURVE",
"415 622 CURVE SMOOTH",
"412 593 OFFCURVE",
"375 554 OFFCURVE",
"0 14 CURVE",
"16 18 OFFCURVE",
"47 24 OFFCURVE",
"95 24 CURVE SMOOTH {name = hr01;}",
"115 24 OFFCURVE",
"132 23 OFFCURVE",
"153 19 CURVE",
"246 141 LINE",
"445 385 OFFCURVE",
"599 531 OFFCURVE",
"704 603 CURVE SMOOTH",
"765 644 OFFCURVE",
"810 660 OFFCURVE",
"837 660 CURVE SMOOTH",
"874 660 OFFCURVE",
"885 643 OFFCURVE",
"885 624 CURVE SMOOTH",
"885 592 OFFCURVE",
"851 531 OFFCURVE",
"746 413 CURVE",
"738 403 OFFCURVE",
"429 26 OFFCURVE",
"429 25 CURVE SMOOTH",
"346 -72 OFFCURVE",
"289 -160 OFFCURVE",
"226 -236 CURVE",
"-350 -475 OFFCURVE",
"-510 -610 OFFCURVE",
"-510 -720 CURVE SMOOTH",
"-510 -751 OFFCURVE",
"-479 -787 OFFCURVE",
"-421 -787 CURVE SMOOTH",
"-196 -787 OFFCURVE",
"-36 -710 OFFCURVE",
"384 -205 CURVE",
"747 -34 OFFCURVE",
"905 74 OFFCURVE",
"1159 389 CURVE",
"1139 406 LINE"
);
},
{
closed = 1;
nodes = (
"-441 -760 OFFCURVE",
"-457 -735 OFFCURVE",
"-457 -720 CURVE SMOOTH",
"-457 -605 OFFCURVE",
"-269 -481 OFFCURVE",
"212 -277 CURVE",
"-136 -696 OFFCURVE",
"-255 -759 OFFCURVE",
"-398 -760 CURVE SMOOTH"
);
}
);
width = 1255;
}
);
rightMetricsKey = j;
unicode = 014B;
},
{
color = 4;
glyphname = o;
lastChange = "2022-05-08 20:09:41 +0000";
layers = (
{
anchors = (
{
name = bottom;
position = "{143, 0}";
},
{
name = center;
position = "{380, 340}";
},
{
name = ogonek;
position = "{508, 10}";
},
{
name = top;
position = "{610, 760}";
},
{
name = topright;
position = "{865, 760}";
}
);
layerId = master01;
paths = (
{
closed = 1;
nodes = (
"289 -2 OFFCURVE",
"419 79 OFFCURVE",
"518 191 CURVE",
"530 170 OFFCURVE",
"553 161 OFFCURVE",
"583 161 CURVE SMOOTH",
"686 161 OFFCURVE",
"834 340 OFFCURVE",
"885 389 CURVE",
"863 406 LINE",
"837 380 OFFCURVE",
"684 189 OFFCURVE",
"585 189 CURVE SMOOTH",
"559 189 OFFCURVE",
"544 201 OFFCURVE",
"540 218 CURVE",
"626 325 OFFCURVE",
"682 456 OFFCURVE",
"676 570 CURVE SMOOTH",
"671 650 OFFCURVE",
"612 685 OFFCURVE",
"542 685 CURVE SMOOTH",
"366 685 OFFCURVE",
"195 546 OFFCURVE",
"98 408 CURVE SMOOTH",
"49 337 OFFCURVE",
"-3 222 OFFCURVE",
"1 131 CURVE",
"7 56 OFFCURVE",
"58 -2 OFFCURVE",
"170 -2 CURVE SMOOTH {name = hr00;}"
);
},
{
closed = 1;
nodes = (
"135 28 OFFCURVE",
"113 79 OFFCURVE",
"113 115 CURVE",
"108 178 OFFCURVE",
"143 259 OFFCURVE",
"242 383 CURVE SMOOTH",
"380 555 OFFCURVE",
"496 649 OFFCURVE",
"573 649 CURVE SMOOTH",
"609 649 OFFCURVE",
"644 627 OFFCURVE",
"648 562 CURVE SMOOTH",
"651 510 OFFCURVE",
"636 446 OFFCURVE",
"604 379 CURVE",
"563 366 OFFCURVE",
"508 317 OFFCURVE",
"508 234 CURVE SMOOTH",
"508 230 LINE",
"468 182 OFFCURVE",
"421 138 OFFCURVE",
"369 101 CURVE SMOOTH",
"308 57 OFFCURVE",
"243 28 OFFCURVE",
"196 28 CURVE SMOOTH"
);
}
);
width = 885;
}
);
unicode = 006F;
},
{
color = 4;
glyphname = oslash;
lastChange = "2022-05-08 20:32:19 +0000";
layers = (
{
anchors = (
{
name = top;
position = "{540, 760}";
}
);
layerId = master01;
paths = (
{
closed = 1;
nodes = (
"5 -168 OFFCURVE",
"10 -168 OFFCURVE",
"16 -168 CURVE SMOOTH",
"23 -168 OFFCURVE",
"29 -168 OFFCURVE",
"38 -169 CURVE",
"164 -1 LINE",
"168 -1 OFFCURVE",
"173 -2 OFFCURVE",
"178 -2 CURVE SMOOTH",
"297 -2 OFFCURVE",
"427 79 OFFCURVE",
"526 191 CURVE",
"538 170 OFFCURVE",
"561 161 OFFCURVE",
"591 161 CURVE SMOOTH",
"694 161 OFFCURVE",
"842 340 OFFCURVE",
"893 389 CURVE",
"871 406 LINE",
"845 380 OFFCURVE",
"692 189 OFFCURVE",
"593 189 CURVE SMOOTH",
"567 189 OFFCURVE",
"552 201 OFFCURVE",
"548 218 CURVE",
"634 325 OFFCURVE",
"690 456 OFFCURVE",
"684 570 CURVE SMOOTH",
"682 603 OFFCURVE",
"670 628 OFFCURVE",
"653 647 CURVE",
"827 878 LINE",
"811 878 LINE SMOOTH",
"801 878 OFFCURVE",
"790 878 OFFCURVE",
"784 880 CURVE",
"625 668 LINE",
"604 679 OFFCURVE",
"577 685 OFFCURVE",
"550 685 CURVE SMOOTH",
"374 685 OFFCURVE",
"203 546 OFFCURVE",
"106 408 CURVE SMOOTH",
"57 337 OFFCURVE",
"5 222 OFFCURVE",
"9 131 CURVE",
"14 68 OFFCURVE",
"51 17 OFFCURVE",
"128 2 CURVE {name = hr00;}",
"0 -169 LINE"
);
},
{
closed = 1;
nodes = (
"131 59 OFFCURVE",
"121 90 OFFCURVE",
"121 115 CURVE",
"116 178 OFFCURVE",
"151 259 OFFCURVE",
"250 383 CURVE SMOOTH",
"388 555 OFFCURVE",
"504 649 OFFCURVE",
"581 649 CURVE SMOOTH",
"590 649 OFFCURVE",
"599 647 OFFCURVE",
"608 644 CURVE",
"157 41 LINE"
);
},
{
closed = 1;
nodes = (
"198 28 OFFCURVE",
"192 28 OFFCURVE",
"187 29 CURVE",
"635 624 LINE",
"646 610 OFFCURVE",
"654 590 OFFCURVE",
"656 562 CURVE SMOOTH",
"659 510 OFFCURVE",
"644 446 OFFCURVE",
"612 379 CURVE",
"571 366 OFFCURVE",
"516 317 OFFCURVE",
"516 234 CURVE SMOOTH",
"516 230 LINE",
"476 182 OFFCURVE",
"429 138 OFFCURVE",
"377 101 CURVE SMOOTH",
"316 57 OFFCURVE",
"251 28 OFFCURVE",
"204 28 CURVE SMOOTH"
);
}
);
width = 893;
}
);
unicode = 00F8;
},
{
color = 4;
glyphname = oe;
lastChange = "2022-05-08 19:36:00 +0000";
layers = (
{
layerId = master01;
paths = (
{
closed = 1;
nodes = (
"1060 -6 OFFCURVE",
"1287 344 OFFCURVE",
"1338 389 CURVE",
"1317 406 LINE",
"1279 373 OFFCURVE",
"1052 23 OFFCURVE",
"740 23 CURVE SMOOTH",
"682 23 OFFCURVE",
"633 59 OFFCURVE",
"633 122 CURVE SMOOTH",
"633 165 OFFCURVE",
"645 216 OFFCURVE",
"691 291 CURVE",
"1091 422 OFFCURVE",
"1205 541 OFFCURVE",
"1199 619 CURVE SMOOTH",
"1197 654 OFFCURVE",
"1169 685 OFFCURVE",
"1088 685 CURVE SMOOTH",
"974 685 OFFCURVE",
"803 614 OFFCURVE",
"662 452 CURVE",
"672 492 OFFCURVE",
"677 532 OFFCURVE",
"675 570 CURVE SMOOTH",
"671 650 OFFCURVE",
"611 685 OFFCURVE",
"540 685 CURVE SMOOTH",
"365 685 OFFCURVE",
"195 546 OFFCURVE",
"97 408 CURVE",
"48 337 OFFCURVE",
"-5 222 OFFCURVE",
"1 131 CURVE SMOOTH",
"6 56 OFFCURVE",
"57 -2 OFFCURVE",
"169 -2 CURVE SMOOTH {name = hr01;}",
"302 -2 OFFCURVE",
"449 99 OFFCURVE",
"550 231 CURVE",
"546 209 OFFCURVE",
"543 189 OFFCURVE",
"544 170 CURVE SMOOTH",
"547 71 OFFCURVE",
"599 -6 OFFCURVE",
"728 -6 CURVE SMOOTH {name = hr02;}"
);
},
{
closed = 1;
nodes = (
"135 28 OFFCURVE",
"113 79 OFFCURVE",
"112 115 CURVE",
"107 178 OFFCURVE",
"141 259 OFFCURVE",
"241 383 CURVE SMOOTH",
"380 555 OFFCURVE",
"496 649 OFFCURVE",
"572 649 CURVE SMOOTH",
"609 649 OFFCURVE",
"643 627 OFFCURVE",
"648 562 CURVE",
"656 432 OFFCURVE",
"546 226 OFFCURVE",
"368 101 CURVE",
"307 57 OFFCURVE",
"242 28 OFFCURVE",
"196 28 CURVE SMOOTH"
);
},
{
closed = 1;
nodes = (
"726 343 OFFCURVE",
"739 361 OFFCURVE",
"754 380 CURVE SMOOTH",
"894 562 OFFCURVE",
"991 661 OFFCURVE",
"1082 661 CURVE SMOOTH",
"1114 661 OFFCURVE",
"1133 644 OFFCURVE",
"1133 605 CURVE SMOOTH",
"1133 517 OFFCURVE",
"974 416 OFFCURVE",
"714 326 CURVE"
);
}
);
width = 1338;
}
);
unicode = 0153;
},
{
color = 4;
glyphname = p;
lastChange = "2022-05-08 19:36:00 +0000";
layers = (
{
layerId = master01;
paths = (
{
closed = 1;
nodes = (
"124 -709 OFFCURVE",
"153 -705 OFFCURVE",
"167 -701 CURVE",
"182 -674 OFFCURVE",
"480 -202 OFFCURVE",
"646 19 CURVE {name = hr00;}",
"829 237 OFFCURVE",
"1106 498 OFFCURVE",
"1278 597 CURVE",
"1347 638 OFFCURVE",
"1404 660 OFFCURVE",
"1467 660 CURVE SMOOTH",
"1493 660 OFFCURVE",
"1508 644 OFFCURVE",
"1508 628 CURVE SMOOTH",
"1508 604 OFFCURVE",
"1497 573 OFFCURVE",
"1379 488 CURVE",
"1140 311 OFFCURVE",
"1050 187 OFFCURVE",
"1050 97 CURVE SMOOTH",
"1050 36 OFFCURVE",
"1087 -2 OFFCURVE",
"1166 -2 CURVE SMOOTH",
"1369 -2 OFFCURVE",
"1607 299 OFFCURVE",
"1686 389 CURVE",
"1664 406 LINE",
"1580 309 OFFCURVE",
"1358 26 OFFCURVE",
"1172 26 CURVE SMOOTH",
"1126 26 OFFCURVE",
"1101 43 OFFCURVE",
"1101 71 CURVE SMOOTH",
"1101 100 OFFCURVE",
"1128 132 OFFCURVE",
"1261 227 CURVE SMOOTH",
"1485 385 OFFCURVE",
"1562 500 OFFCURVE",
"1562 602 CURVE SMOOTH",
"1562 651 OFFCURVE",
"1534 685 OFFCURVE",
"1467 685 CURVE SMOOTH",
"1386 685 OFFCURVE",
"1348 666 OFFCURVE",
"1286 634 CURVE SMOOTH",
"1184 581 OFFCURVE",
"1036 459 OFFCURVE",
"827 258 CURVE",
"820 266 LINE",
"1062 592 OFFCURVE",
"1026 551 OFFCURVE",
"1380 978 CURVE",
"1361 972 OFFCURVE",
"1342 971 OFFCURVE",
"1323 971 CURVE SMOOTH",
"1303 971 OFFCURVE",
"1277 972 OFFCURVE",
"1229 977 CURVE",
"946 592 OFFCURVE",
"945 604 OFFCURVE",
"753 337 CURVE",
"544 33 OFFCURVE",
"204 -424 OFFCURVE",
"0 -700 CURVE",
"18 -706 OFFCURVE",
"57 -709 OFFCURVE",
"73 -709 CURVE SMOOTH"
);
}
);
width = 1686;
}
);
unicode = 0070;
},
{
color = 4;
glyphname = thorn;
lastChange = "2022-05-08 19:36:00 +0000";
layers = (
{
layerId = master01;
paths = (
{
closed = 1;
nodes = (
"124 -709 OFFCURVE",
"152 -705 OFFCURVE",
"167 -701 CURVE",
"181 -674 OFFCURVE",
"521 -202 OFFCURVE",
"708 19 CURVE {name = hr00;}",
"889 237 OFFCURVE",
"1166 498 OFFCURVE",
"1338 597 CURVE SMOOTH",
"1409 638 OFFCURVE",
"1465 660 OFFCURVE",
"1527 660 CURVE SMOOTH",
"1554 660 OFFCURVE",
"1570 644 OFFCURVE",
"1570 628 CURVE SMOOTH",
"1570 604 OFFCURVE",
"1557 573 OFFCURVE",
"1440 488 CURVE",
"1201 311 OFFCURVE",
"1111 187 OFFCURVE",
"1111 97 CURVE SMOOTH",
"1111 36 OFFCURVE",
"1149 -2 OFFCURVE",
"1227 -2 CURVE SMOOTH",
"1429 -2 OFFCURVE",
"1668 299 OFFCURVE",
"1747 389 CURVE",
"1726 406 LINE",
"1641 309 OFFCURVE",
"1419 26 OFFCURVE",
"1233 26 CURVE SMOOTH",
"1187 26 OFFCURVE",
"1163 43 OFFCURVE",
"1163 71 CURVE SMOOTH",
"1163 100 OFFCURVE",
"1189 132 OFFCURVE",
"1321 227 CURVE",
"1546 385 OFFCURVE",
"1623 500 OFFCURVE",
"1623 602 CURVE SMOOTH",
"1623 651 OFFCURVE",
"1595 685 OFFCURVE",
"1529 685 CURVE SMOOTH",
"1448 685 OFFCURVE",
"1409 666 OFFCURVE",
"1347 634 CURVE SMOOTH",
"1245 581 OFFCURVE",
"1098 459 OFFCURVE",
"888 258 CURVE",
"880 266 LINE",
"1132 592 OFFCURVE",
"1587 1153 OFFCURVE",
"1954 1580 CURVE",
"1934 1575 OFFCURVE",
"1915 1573 OFFCURVE",
"1897 1573 CURVE SMOOTH",
"1877 1573 OFFCURVE",
"1850 1574 OFFCURVE",
"1802 1579 CURVE",
"1510 1194 OFFCURVE",
"1014 604 OFFCURVE",
"814 337 CURVE SMOOTH",
"587 33 OFFCURVE",
"221 -424 OFFCURVE",
"0 -700 CURVE",
"18 -706 OFFCURVE",
"56 -709 OFFCURVE",
"73 -709 CURVE SMOOTH"
);
}
);
width = 1954;
}
);
unicode = 00FE;
},
{
color = 4;
glyphname = q;
lastChange = "2022-05-08 19:36:00 +0000";
layers = (
{
layerId = master01;
paths = (
{
closed = 1;
nodes = (
"277 -787 OFFCURVE",
"600 -401 OFFCURVE",
"695 31 CURVE",
"713 11 OFFCURVE",
"743 -2 OFFCURVE",
"781 -2 CURVE SMOOTH",
"960 -2 OFFCURVE",
"1212 347 OFFCURVE",
"1248 389 CURVE",
"1226 406 LINE",
"1196 368 OFFCURVE",
"935 24 OFFCURVE",
"779 24 CURVE SMOOTH",
"742 24 OFFCURVE",
"709 43 OFFCURVE",
"703 69 CURVE",
"702 87 OFFCURVE",
"699 103 OFFCURVE",
"694 115 CURVE",
"813 251 LINE SMOOTH",
"950 408 OFFCURVE",
"1023 514 OFFCURVE",
"1134 645 CURVE",
"1117 644 OFFCURVE",
"1078 643 OFFCURVE",
"1061 643 CURVE SMOOTH",
"1039 643 OFFCURVE",
"1014 645 OFFCURVE",
"1002 650 CURVE",
"970 609 OFFCURVE",
"940 568 OFFCURVE",
"887 502 CURVE",
"894 523 OFFCURVE",
"898 546 OFFCURVE",
"898 571 CURVE SMOOTH",
"898 648 OFFCURVE",
"841 670 OFFCURVE",
"775 670 CURVE SMOOTH",
"632 670 OFFCURVE",
"479 617 OFFCURVE",
"303 414 CURVE SMOOTH",
"217 316 OFFCURVE",
"181 213 OFFCURVE",
"181 127 CURVE SMOOTH",
"181 46 OFFCURVE",
"220 -2 OFFCURVE",
"303 -2 CURVE SMOOTH {name = hr00;}",
"357 -2 OFFCURVE",
"459 36 OFFCURVE",
"573 126 CURVE",
"201 -258 OFFCURVE",
"0 -565 OFFCURVE",
"0 -715 CURVE SMOOTH",
"0 -762 OFFCURVE",
"25 -787 OFFCURVE",
"67 -787 CURVE SMOOTH"
);
},
{
closed = 1;
nodes = (
"41 -765 OFFCURVE",
"32 -754 OFFCURVE",
"32 -732 CURVE SMOOTH",
"32 -659 OFFCURVE",
"438 -180 OFFCURVE",
"673 91 CURVE",
"676 83 OFFCURVE",
"676 72 OFFCURVE",
"673 57 CURVE SMOOTH",
"588 -340 OFFCURVE",
"213 -765 OFFCURVE",
"67 -765 CURVE SMOOTH"
);
},
{
closed = 1;
nodes = (
"277 28 OFFCURVE",
"263 42 OFFCURVE",
"263 79 CURVE SMOOTH",
"263 141 OFFCURVE",
"306 229 OFFCURVE",
"403 347 CURVE",
"575 549 OFFCURVE",
"735 641 OFFCURVE",
"799 641 CURVE SMOOTH",
"834 641 OFFCURVE",
"873 620 OFFCURVE",
"873 580 CURVE SMOOTH",
"873 507 OFFCURVE",
"849 460 OFFCURVE",
"822 423 CURVE",
"803 399 OFFCURVE",
"781 373 OFFCURVE",
"757 344 CURVE SMOOTH",
"561 109 OFFCURVE",
"398 28 OFFCURVE",
"308 28 CURVE SMOOTH"
);
}
);
width = 1248;
}
);
unicode = 0071;
},
{
color = 4;
glyphname = r;
lastChange = "2022-05-08 20:37:05 +0000";
layers = (
{
anchors = (
{
name = bottom;
position = "{0, 0}";
},
{
name = top;
position = "{515, 760}";
}
);
layerId = master01;
paths = (
{
closed = 1;
nodes = (
"470 -2 OFFCURVE",
"710 319 OFFCURVE",
"784 389 CURVE",
"764 406 LINE",
"715 353 OFFCURVE",
"446 32 OFFCURVE",
"284 32 CURVE SMOOTH",
"262 32 OFFCURVE",
"246 44 OFFCURVE",
"246 79 CURVE SMOOTH",
"246 174 OFFCURVE",
"433 402 OFFCURVE",
"579 515 CURVE SMOOTH",
"600 532 OFFCURVE",
"608 541 OFFCURVE",
"608 548 CURVE SMOOTH",
"608 552 OFFCURVE",
"605 562 OFFCURVE",
"580 563 CURVE SMOOTH",
"504 568 OFFCURVE",
"284 608 OFFCURVE",
"284 634 CURVE SMOOTH",
"284 653 OFFCURVE",
"291 674 OFFCURVE",
"302 687 CURVE",
"314 707 OFFCURVE",
"329 726 OFFCURVE",
"329 757 CURVE SMOOTH",
"329 784 OFFCURVE",
"308 803 OFFCURVE",
"276 803 CURVE SMOOTH",
"219 803 OFFCURVE",
"176 741 OFFCURVE",
"187 677 CURVE SMOOTH",
"191 657 OFFCURVE",
"205 641 OFFCURVE",
"229 626 CURVE",
"201 569 OFFCURVE",
"147 490 OFFCURVE",
"80 406 CURVE SMOOTH",
"16 326 OFFCURVE",
"2 317 OFFCURVE",
"2 312 CURVE",
"0 306 OFFCURVE",
"1 293 OFFCURVE",
"5 295 CURVE",
"7 298 OFFCURVE",
"21 295 OFFCURVE",
"101 389 CURVE",
"179 478 OFFCURVE",
"229 558 OFFCURVE",
"256 612 CURVE",
"315 585 OFFCURVE",
"413 563 OFFCURVE",
"549 541 CURVE",
"282 362 OFFCURVE",
"115 208 OFFCURVE",
"115 101 CURVE SMOOTH {name = hr00;}",
"115 39 OFFCURVE",
"166 -2 OFFCURVE",
"241 -2 CURVE SMOOTH"
);
}
);
width = 784;
}
);
unicode = 0072;
},
{
color = 4;
glyphname = s;
lastChange = "2022-05-08 20:32:50 +0000";
layers = (
{
anchors = (
{
name = bottom;
position = "{217, 0}";
},
{
name = top;
position = "{647, 841}";
}
);
layerId = master01;
paths = (
{
closed = 1;
nodes = (
"360 -23 OFFCURVE",
"490 21 OFFCURVE",
"553 160 CURVE",
"563 158 OFFCURVE",
"574 158 OFFCURVE",
"586 158 CURVE SMOOTH",
"689 158 OFFCURVE",
"833 342 OFFCURVE",
"879 389 CURVE",
"857 406 LINE",
"830 369 OFFCURVE",
"675 182 OFFCURVE",
"589 182 CURVE SMOOTH",
"579 182 OFFCURVE",
"570 183 OFFCURVE",
"562 184 CURVE",
"576 223 OFFCURVE",
"582 268 OFFCURVE",
"580 321 CURVE {name = hr03;}",
"574 426 OFFCURVE",
"539 562 OFFCURVE",
"541 634 CURVE SMOOTH",
"541 654 OFFCURVE",
"536 657 OFFCURVE",
"572 700 CURVE SMOOTH",
"603 736 OFFCURVE",
"617 755 OFFCURVE",
"618 771 CURVE",
"618 791 OFFCURVE",
"601 804 OFFCURVE",
"578 804 CURVE SMOOTH",
"548 804 OFFCURVE",
"534 766 OFFCURVE",
"526 726 CURVE",
"448 626 OFFCURVE",
"306 458 OFFCURVE",
"261 406 CURVE SMOOTH {name = hr04;}",
"243 384 OFFCURVE",
"224 363 OFFCURVE",
"227 357 CURVE SMOOTH",
"232 348 OFFCURVE",
"243 351 OFFCURVE",
"245 351 CURVE SMOOTH",
"243 351 OFFCURVE",
"255 357 OFFCURVE",
"282 389 CURVE SMOOTH",
"339 458 OFFCURVE",
"442 585 OFFCURVE",
"518 679 CURVE",
"518 676 OFFCURVE",
"518 673 OFFCURVE",
"517 670 CURVE SMOOTH",
"481 566 OFFCURVE",
"482 438 OFFCURVE",
"476 374 CURVE",
"443 101 OFFCURVE",
"267 13 OFFCURVE",
"183 13 CURVE SMOOTH",
"142 13 OFFCURVE",
"26 23 OFFCURVE",
"26 99 CURVE SMOOTH",
"26 144 OFFCURVE",
"67 172 OFFCURVE",
"82 187 CURVE",
"91 182 OFFCURVE",
"108 166 OFFCURVE",
"124 166 CURVE SMOOTH",
"159 166 OFFCURVE",
"192 188 OFFCURVE",
"194 209 CURVE",
"194 234 OFFCURVE",
"179 247 OFFCURVE",
"153 247 CURVE SMOOTH",
"116 247 OFFCURVE",
"0 199 OFFCURVE",
"0 100 CURVE SMOOTH",
"0 -10 OFFCURVE",
"143 -23 OFFCURVE",
"206 -23 CURVE SMOOTH {name = hr01;}"
);
}
);
width = 879;
}
);
unicode = 0073;
},
{
color = 4;
glyphname = germandbls;
lastChange = "2022-05-08 19:36:00 +0000";
layers = (
{
layerId = master01;
paths = (
{
closed = 1;
nodes = (
"128 -502 OFFCURVE",
"138 -497 OFFCURVE",
"154 -494 CURVE",
"168 -466 OFFCURVE",
"337 -214 OFFCURVE",
"659 218 CURVE",
"934 592 OFFCURVE",
"1505 1549 OFFCURVE",
"1681 1549 CURVE SMOOTH",
"1752 1549 OFFCURVE",
"1779 1526 OFFCURVE",
"1782 1471 CURVE SMOOTH",
"1789 1346 OFFCURVE",
"1710 1235 OFFCURVE",
"1406 988 CURVE",
"1277 894 OFFCURVE",
"1235 847 OFFCURVE",
"1244 748 CURVE",
"1289 209 OFFCURVE",
"1154 24 OFFCURVE",
"964 24 CURVE SMOOTH",
"887 24 OFFCURVE",
"812 71 OFFCURVE",
"808 138 CURVE SMOOTH",
"806 164 OFFCURVE",
"813 182 OFFCURVE",
"822 195 CURVE",
"830 191 OFFCURVE",
"849 186 OFFCURVE",
"866 186 CURVE SMOOTH",
"897 186 OFFCURVE",
"935 209 OFFCURVE",
"932 244 CURVE",
"931 267 OFFCURVE",
"914 283 OFFCURVE",
"880 283 CURVE SMOOTH",
"828 283 OFFCURVE",
"775 229 OFFCURVE",
"779 141 CURVE SMOOTH {name = hr00;}",
"784 50 OFFCURVE",
"862 -2 OFFCURVE",
"970 -2 CURVE SMOOTH",
"1026 -2 OFFCURVE",
"1088 7 OFFCURVE",
"1147 32 CURVE",
"1434 34 OFFCURVE",
"1665 347 OFFCURVE",
"1701 389 CURVE",
"1679 406 LINE",
"1650 370 OFFCURVE",
"1442 96 OFFCURVE",
"1205 62 CURVE",
"1302 124 OFFCURVE",
"1375 236 OFFCURVE",
"1366 429 CURVE",
"1360 528 OFFCURVE",
"1343 617 OFFCURVE",
"1326 665 CURVE SMOOTH",
"1309 711 OFFCURVE",
"1297 755 OFFCURVE",
"1295 785 CURVE SMOOTH",
"1292 847 OFFCURVE",
"1314 902 OFFCURVE",
"1546 1050 CURVE",
"1794 1219 OFFCURVE",
"1878 1328 OFFCURVE",
"1871 1455 CURVE SMOOTH",
"1867 1526 OFFCURVE",
"1803 1579 OFFCURVE",
"1695 1579 CURVE SMOOTH",
"1463 1579 OFFCURVE",
"1155 1134 OFFCURVE",
"609 337 CURVE",
"394 28 OFFCURVE",
"214 -218 OFFCURVE",
"0 -492 CURVE",
"17 -498 OFFCURVE",
"59 -502 OFFCURVE",
"76 -502 CURVE SMOOTH"
);
}
);
width = 1872;
}
);
unicode = 00DF;
},
{
color = 4;
glyphname = t;
lastChange = "2022-05-08 20:22:21 +0000";
layers = (
{
anchors = (
{
name = bottom;
position = "{20, 0}";
},
{
name = center;
position = "{357, 569}";
},
{
name = top;
position = "{726, 1091}";
},
{
name = topright;
position = "{1032, 996}";
}
);
layerId = master01;
paths = (
{
closed = 1;
nodes = (
"314 -2 OFFCURVE",
"553 299 OFFCURVE",
"631 389 CURVE",
"609 406 LINE",
"528 309 OFFCURVE",
"303 28 OFFCURVE",
"119 26 CURVE {name = hr00;}",
"88 27 OFFCURVE",
"69 38 OFFCURVE",
"69 58 CURVE SMOOTH",
"69 87 OFFCURVE",
"107 160 OFFCURVE",
"357 497 CURVE SMOOTH",
"621 853 LINE",
"904 853 LINE SMOOTH",
"921 853 OFFCURVE",
"929 858 OFFCURVE",
"929 868 CURVE SMOOTH",
"929 877 OFFCURVE",
"921 882 OFFCURVE",
"901 882 CURVE SMOOTH",
"643 882 LINE",
"836 1142 LINE",
"819 1139 OFFCURVE",
"804 1138 OFFCURVE",
"793 1138 CURVE SMOOTH",
"739 1137 OFFCURVE",
"714 1139 OFFCURVE",
"697 1142 CURVE",
"512 882 LINE",
"421 882 LINE SMOOTH",
"398 882 OFFCURVE",
"383 880 OFFCURVE",
"383 866 CURVE SMOOTH",
"383 855 OFFCURVE",
"392 853 OFFCURVE",
"413 853 CURVE SMOOTH",
"492 853 LINE",
"234 490 LINE SMOOTH",
"20 189 OFFCURVE",
"0 148 OFFCURVE",
"0 76 CURVE SMOOTH",
"0 31 OFFCURVE",
"37 -2 OFFCURVE",
"110 -2 CURVE SMOOTH"
);
}
);
width = 929;
}
);
unicode = 0074;
},
{
color = 0;
glyphname = u;
lastChange = "2022-05-08 20:29:56 +0000";
layers = (
{
anchors = (
{
name = bottom;
position = "{94, 0}";
},
{
name = ogonek;
position = "{688, 49}";
},
{
name = top;
position = "{743, 760}";
},
{
name = topright;
position = "{1181, 760}";
}
);
layerId = master01;
paths = (
{
closed = 1;
nodes = (
"164 -2 OFFCURVE",
"221 10 OFFCURVE",
"289 51 CURVE SMOOTH",
"357 92 OFFCURVE",
"427 153 OFFCURVE",
"513 246 CURVE",
"475 180 OFFCURVE",
"461 131 OFFCURVE",
"463 83 CURVE",
"464 30 OFFCURVE",
"504 -2 OFFCURVE",
"558 -2 CURVE SMOOTH",
"751 -2 OFFCURVE",
"1037 347 OFFCURVE",
"1078 389 CURVE",
"1058 406 LINE",
"1021 368 OFFCURVE",
"743 26 OFFCURVE",
"565 26 CURVE SMOOTH",
"517 26 OFFCURVE",
"514 46 OFFCURVE",
"513 62 CURVE",
"513 87 OFFCURVE",
"522 103 OFFCURVE",
"586 178 CURVE",
"698 315 OFFCURVE",
"882 547 OFFCURVE",
"1000 676 CURVE",
"983 674 OFFCURVE",
"959 673 OFFCURVE",
"928 673 CURVE SMOOTH",
"899 673 OFFCURVE",
"890 675 OFFCURVE",
"848 679 CURVE",
"784 603 OFFCURVE",
"729 538 OFFCURVE",
"683 481 CURVE SMOOTH",
"667 462 OFFCURVE",
"650 442 OFFCURVE",
"621 406 CURVE SMOOTH",
"487 241 OFFCURVE",
"373 140 OFFCURVE",
"284 80 CURVE SMOOTH",
"220 38 OFFCURVE",
"158 23 OFFCURVE",
"131 23 CURVE SMOOTH {name = hr00;}",
"94 23 OFFCURVE",
"83 40 OFFCURVE",
"83 59 CURVE",
"80 144 OFFCURVE",
"183 246 OFFCURVE",
"227 301 CURVE SMOOTH",
"316 410 OFFCURVE",
"436 555 OFFCURVE",
"549 676 CURVE",
"538 674 OFFCURVE",
"496 673 OFFCURVE",
"477 673 CURVE SMOOTH",
"452 673 OFFCURVE",
"414 676 OFFCURVE",
"397 679 CURVE",
"335 612 OFFCURVE",
"279 538 OFFCURVE",
"227 477 CURVE SMOOTH",
"79 304 OFFCURVE",
"-4 197 OFFCURVE",
"1 99 CURVE",
"2 49 OFFCURVE",
"36 -2 OFFCURVE",
"123 -2 CURVE SMOOTH"
);
}
);
width = 1078;
}
);
unicode = 0075;
},
{
color = 4;
glyphname = v;
lastChange = "2022-05-08 19:36:00 +0000";
layers = (
{
layerId = master01;
paths = (
{
closed = 1;
nodes = (
"268 -2 OFFCURVE",
"495 149 OFFCURVE",
"643 274 CURVE",
"614 210 OFFCURVE",
"630 168 OFFCURVE",
"695 168 CURVE SMOOTH",
"802 168 OFFCURVE",
"950 316 OFFCURVE",
"1017 389 CURVE",
"996 406 LINE",
"944 347 OFFCURVE",
"794 193 OFFCURVE",
"703 193 CURVE SMOOTH",
"631 193 OFFCURVE",
"652 260 OFFCURVE",
"697 322 CURVE",
"724 347 LINE",
"892 510 OFFCURVE",
"923 598 OFFCURVE",
"923 654 CURVE SMOOTH",
"923 694 OFFCURVE",
"902 709 OFFCURVE",
"867 709 CURVE SMOOTH",
"823 709 OFFCURVE",
"788 674 OFFCURVE",
"788 625 CURVE SMOOTH",
"788 512 OFFCURVE",
"768 424 OFFCURVE",
"623 295 CURVE",
"469 160 OFFCURVE",
"273 24 OFFCURVE",
"126 24 CURVE SMOOTH {name = hr00;}",
"92 24 OFFCURVE",
"70 26 OFFCURVE",
"70 70 CURVE SMOOTH",
"70 141 OFFCURVE",
"266 328 OFFCURVE",
"332 398 CURVE SMOOTH",
"426 498 OFFCURVE",
"461 552 OFFCURVE",
"599 676 CURVE",
"581 674 OFFCURVE",
"558 673 OFFCURVE",
"527 673 CURVE SMOOTH",
"496 673 OFFCURVE",
"484 675 OFFCURVE",
"442 679 CURVE",
"341 578 OFFCURVE",
"252 490 OFFCURVE",
"193 415 CURVE SMOOTH",
"28 209 OFFCURVE",
"0 152 OFFCURVE",
"0 81 CURVE SMOOTH",
"0 30 OFFCURVE",
"38 -2 OFFCURVE",
"112 -2 CURVE SMOOTH"
);
}
);
width = 1017;
}
);
unicode = 0076;
},
{
color = 1;
glyphname = vturned;
lastChange = "2022-05-08 20:16:29 +0000";
layers = (
{
layerId = master01;
paths = (
{
closed = 1;
nodes = (
"406 720 OFFCURVE",
"179 622 OFFCURVE",
"31 457 CURVE",
"-50 371 LINE",
"-218 208 OFFCURVE",
"-239 120 OFFCURVE",
"-239 64 CURVE SMOOTH",
"-239 24 OFFCURVE",
"-218 9 OFFCURVE",
"-183 9 CURVE SMOOTH",
"-139 9 OFFCURVE",
"-104 44 OFFCURVE",
"-104 93 CURVE SMOOTH",
"-104 206 OFFCURVE",
"-94 307 OFFCURVE",
"51 436 CURVE",
"205 611 OFFCURVE",
"401 694 OFFCURVE",
"548 694 CURVE SMOOTH {name = hr00;}",
"582 694 OFFCURVE",
"604 692 OFFCURVE",
"604 648 CURVE SMOOTH",
"604 577 OFFCURVE",
"418 390 OFFCURVE",
"352 320 CURVE SMOOTH",
"258 220 OFFCURVE",
"223 166 OFFCURVE",
"85 42 CURVE",
"103 44 OFFCURVE",
"126 45 OFFCURVE",
"157 45 CURVE SMOOTH",
"188 45 OFFCURVE",
"200 43 OFFCURVE",
"242 39 CURVE",
"343 140 OFFCURVE",
"434 227 OFFCURVE",
"491 303 CURVE SMOOTH",
"646 509 OFFCURVE",
"674 566 OFFCURVE",
"674 637 CURVE SMOOTH",
"674 688 OFFCURVE",
"636 720 OFFCURVE",
"562 720 CURVE SMOOTH"
);
}
);
width = 663;
}
);
rightMetricsKey = "=|o";
unicode = 028C;
},
{
color = 4;
glyphname = w;
lastChange = "2022-05-08 20:13:52 +0000";
layers = (
{
anchors = (
{
name = bottom;
position = "{301, 0}";
},
{
name = top;
position = "{960, 760}";
}
);
layerId = master01;
paths = (
{
closed = 1;
nodes = (
"137 -2 OFFCURVE",
"239 43 OFFCURVE",
"378 147 CURVE SMOOTH",
"422 179 OFFCURVE",
"465 215 OFFCURVE",
"507 253 CURVE",
"458 172 OFFCURVE",
"439 110 OFFCURVE",
"439 63 CURVE SMOOTH",
"439 26 OFFCURVE",
"456 -2 OFFCURVE",
"502 -2 CURVE SMOOTH",
"613 -2 OFFCURVE",
"829 122 OFFCURVE",
"985 244 CURVE",
"975 197 OFFCURVE",
"998 168 OFFCURVE",
"1051 168 CURVE SMOOTH",
"1160 168 OFFCURVE",
"1299 316 OFFCURVE",
"1367 389 CURVE",
"1345 406 LINE",
"1294 347 OFFCURVE",
"1152 193 OFFCURVE",
"1060 193 CURVE SMOOTH",
"1008 193 OFFCURVE",
"1003 229 OFFCURVE",
"1020 273 CURVE",
"1051 298 OFFCURVE",
"1079 324 OFFCURVE",
"1102 347 CURVE SMOOTH",
"1267 512 OFFCURVE",
"1301 598 OFFCURVE",
"1301 654 CURVE SMOOTH",
"1301 694 OFFCURVE",
"1282 719 OFFCURVE",
"1235 719 CURVE SMOOTH",
"1193 719 OFFCURVE",
"1165 674 OFFCURVE",
"1165 625 CURVE SMOOTH",
"1165 512 OFFCURVE",
"1132 459 OFFCURVE",
"999 319 CURVE SMOOTH",
"839 152 OFFCURVE",
"603 26 OFFCURVE",
"513 26 CURVE SMOOTH",
"500 26 OFFCURVE",
"488 31 OFFCURVE",
"488 49 CURVE SMOOTH",
"488 68 OFFCURVE",
"506 103 OFFCURVE",
"569 178 CURVE",
"688 315 OFFCURVE",
"907 547 OFFCURVE",
"1030 676 CURVE",
"1011 674 OFFCURVE",
"989 673 OFFCURVE",
"958 673 CURVE SMOOTH",
"927 673 OFFCURVE",
"919 675 OFFCURVE",
"877 679 CURVE",
"780 586 OFFCURVE",
"703 505 OFFCURVE",
"642 433 CURVE",
"642 434 LINE",
"638 429 LINE",
"615 401 LINE",
"553 330 OFFCURVE",
"467 250 OFFCURVE",
"378 185 CURVE",
"216 64 OFFCURVE",
"123 26 OFFCURVE",
"71 26 CURVE SMOOTH {name = hr00;}",
"48 26 OFFCURVE",
"45 33 OFFCURVE",
"45 48 CURVE SMOOTH",
"45 72 OFFCURVE",
"76 115 OFFCURVE",
"141 194 CURVE SMOOTH",
"226 295 OFFCURVE",
"429 510 OFFCURVE",
"591 676 CURVE",
"578 674 OFFCURVE",
"537 673 OFFCURVE",
"519 673 CURVE SMOOTH",
"494 673 OFFCURVE",
"455 676 OFFCURVE",
"438 679 CURVE",
"162 422 OFFCURVE",
"0 188 OFFCURVE",
"0 62 CURVE SMOOTH",
"0 18 OFFCURVE",
"27 -2 OFFCURVE",
"65 -2 CURVE SMOOTH"
);
}
);
width = 1367;
}
);
unicode = 0077;
},
{
color = 4;
glyphname = x;
lastChange = "2022-05-08 19:36:00 +0000";
layers = (
{
layerId = master01;
paths = (
{
closed = 1;
nodes = (
"175 -2 OFFCURVE",
"341 84 OFFCURVE",
"475 268 CURVE",
"459 217 OFFCURVE",
"451 177 OFFCURVE",
"451 149 CURVE SMOOTH",
"451 39 OFFCURVE",
"522 -2 OFFCURVE",
"595 -2 CURVE SMOOTH",
"815 -2 OFFCURVE",
"1111 375 OFFCURVE",
"1127 389 CURVE",
"1106 407 LINE",
"1094 393 OFFCURVE",
"811 26 OFFCURVE",
"608 26 CURVE SMOOTH",
"570 26 OFFCURVE",
"542 41 OFFCURVE",
"542 82 CURVE SMOOTH",
"542 122 OFFCURVE",
"553 171 OFFCURVE",
"592 254 CURVE",
"604 276 OFFCURVE",
"616 297 OFFCURVE",
"626 318 CURVE",
"732 502 OFFCURVE",
"884 636 OFFCURVE",
"968 636 CURVE SMOOTH {name = hr03;}",
"972 636 OFFCURVE",
"978 636 OFFCURVE",
"985 635 CURVE",
"988 584 OFFCURVE",
"1013 553 OFFCURVE",
"1058 553 CURVE SMOOTH",
"1083 553 OFFCURVE",
"1115 572 OFFCURVE",
"1115 613 CURVE SMOOTH",
"1115 644 OFFCURVE",
"1092 685 OFFCURVE",
"1022 685 CURVE SMOOTH",
"906 685 OFFCURVE",
"771 574 OFFCURVE",
"679 452 CURVE",
"691 493 OFFCURVE",
"697 526 OFFCURVE",
"697 548 CURVE SMOOTH",
"697 634 OFFCURVE",
"650 685 OFFCURVE",
"574 685 CURVE SMOOTH {name = hr04;}",
"488 685 OFFCURVE",
"418 650 OFFCURVE",
"200 406 CURVE",
"198 401 OFFCURVE",
"201 398 OFFCURVE",
"203 396 CURVE SMOOTH",
"211 389 OFFCURVE",
"217 388 OFFCURVE",
"221 389 CURVE",
"426 622 OFFCURVE",
"496 654 OFFCURVE",
"563 654 CURVE SMOOTH",
"597 654 OFFCURVE",
"610 634 OFFCURVE",
"610 602 CURVE SMOOTH",
"610 561 OFFCURVE",
"602 520 OFFCURVE",
"543 435 CURVE",
"427 214 OFFCURVE",
"269 66 OFFCURVE",
"142 66 CURVE SMOOTH {name = hr01;}",
"126 66 OFFCURVE",
"118 71 OFFCURVE",
"102 83 CURVE SMOOTH",
"87 93 OFFCURVE",
"77 98 OFFCURVE",
"61 98 CURVE SMOOTH",
"28 98 OFFCURVE",
"0 74 OFFCURVE",
"0 51 CURVE SMOOTH",
"0 17 OFFCURVE",
"21 -2 OFFCURVE",
"85 -2 CURVE SMOOTH"
);
}
);
width = 1127;
}
);
unicode = 0078;
},
{
color = 4;
glyphname = y;
lastChange = "2022-05-08 20:14:18 +0000";
layers = (
{
anchors = (
{
name = bottom;
position = "{954, -364}";
},
{
name = top;
position = "{1278, 760}";
}
);
layerId = master01;
paths = (
{
closed = 1;
nodes = (
"311 -787 OFFCURVE",
"457 -709 OFFCURVE",
"833 -235 CURVE",
"1235 -46 OFFCURVE",
"1320 56 OFFCURVE",
"1598 389 CURVE",
"1577 406 LINE",
"1321 93 OFFCURVE",
"1237 -14 OFFCURVE",
"868 -191 CURVE",
"962 -71 OFFCURVE",
"1070 72 OFFCURVE",
"1197 244 CURVE",
"1545 673 LINE",
"1528 670 OFFCURVE",
"1490 669 OFFCURVE",
"1473 669 CURVE SMOOTH",
"1450 669 OFFCURVE",
"1425 673 OFFCURVE",
"1411 676 CURVE",
"1357 609 OFFCURVE",
"1282 515 OFFCURVE",
"1146 366 CURVE",
"1012 202 OFFCURVE",
"802 24 OFFCURVE",
"622 24 CURVE SMOOTH {name = hr00;}",
"602 24 OFFCURVE",
"571 26 OFFCURVE",
"571 70 CURVE SMOOTH",
"571 141 OFFCURVE",
"753 328 OFFCURVE",
"814 398 CURVE",
"907 498 OFFCURVE",
"941 552 OFFCURVE",
"1080 676 CURVE",
"1062 674 OFFCURVE",
"1039 673 OFFCURVE",
"1009 673 CURVE SMOOTH",
"978 673 OFFCURVE",
"965 675 OFFCURVE",
"923 679 CURVE",
"823 578 OFFCURVE",
"734 490 OFFCURVE",
"673 415 CURVE",
"527 209 OFFCURVE",
"502 152 OFFCURVE",
"502 81 CURVE SMOOTH",
"502 30 OFFCURVE",
"540 -2 OFFCURVE",
"614 -2 CURVE SMOOTH",
"776 -2 OFFCURVE",
"991 152 OFFCURVE",
"1104 272 CURVE",
"1115 268 LINE",
"950 56 OFFCURVE",
"818 -113 OFFCURVE",
"708 -248 CURVE",
"159 -479 OFFCURVE",
"0 -612 OFFCURVE",
"0 -720 CURVE SMOOTH",
"0 -751 OFFCURVE",
"30 -787 OFFCURVE",
"87 -787 CURVE SMOOTH"
);
},
{
closed = 1;
nodes = (
"49 -760 OFFCURVE",
"32 -735 OFFCURVE",
"32 -720 CURVE SMOOTH",
"32 -607 OFFCURVE",
"216 -486 OFFCURVE",
"673 -291 CURVE",
"358 -675 OFFCURVE",
"240 -760 OFFCURVE",
"91 -760 CURVE SMOOTH"
);
}
);
width = 1598;
}
);
unicode = 0079;
},
{
color = 4;
glyphname = z;
lastChange = "2022-05-08 20:37:26 +0000";
layers = (
{
anchors = (
{
name = bottom;
position = "{645, -674}";
},
{
name = center;
position = "{802, 205}";
},
{
name = top;
position = "{1051, 760}";
}
);
layerId = master01;
paths = (
{
closed = 1;
nodes = (
"372 -787 OFFCURVE",
"796 -408 OFFCURVE",
"796 -147 CURVE SMOOTH",
"796 -133 OFFCURVE",
"795 -120 OFFCURVE",
"793 -109 CURVE",
"1029 27 OFFCURVE",
"1179 214 OFFCURVE",
"1321 389 CURVE",
"1300 406 LINE",
"1173 244 OFFCURVE",
"1026 61 OFFCURVE",
"788 -83 CURVE",
"773 -26 OFFCURVE",
"733 2 OFFCURVE",
"673 8 CURVE",
"792 75 OFFCURVE",
"929 183 OFFCURVE",
"1047 473 CURVE",
"1214 490 OFFCURVE",
"1347 586 OFFCURVE",
"1347 650 CURVE SMOOTH",
"1347 682 OFFCURVE",
"1317 708 OFFCURVE",
"1255 708 CURVE SMOOTH",
"1161 708 OFFCURVE",
"1039 641 OFFCURVE",
"924 495 CURVE",
"835 517 OFFCURVE",
"784 581 OFFCURVE",
"784 630 CURVE SMOOTH",
"784 700 OFFCURVE",
"857 700 OFFCURVE",
"857 764 CURVE SMOOTH",
"857 787 OFFCURVE",
"836 803 OFFCURVE",
"804 803 CURVE SMOOTH",
"746 803 OFFCURVE",
"708 748 OFFCURVE",
"708 691 CURVE SMOOTH",
"708 659 OFFCURVE",
"715 627 OFFCURVE",
"730 597 CURVE",
"700 540 OFFCURVE",
"681 496 OFFCURVE",
"604 406 CURVE",
"567 361 OFFCURVE",
"522 307 OFFCURVE",
"522 306 CURVE SMOOTH",
"522 302 OFFCURVE",
"525 301 OFFCURVE",
"529 301 CURVE SMOOTH",
"532 301 OFFCURVE",
"558 311 OFFCURVE",
"625 389 CURVE SMOOTH",
"687 462 OFFCURVE",
"722 525 OFFCURVE",
"747 571 CURVE {name = hr03;}",
"779 527 OFFCURVE",
"832 492 OFFCURVE",
"910 477 CURVE",
"881 438 OFFCURVE",
"852 394 OFFCURVE",
"825 345 CURVE SMOOTH",
"665 48 OFFCURVE",
"631 11 OFFCURVE",
"513 -41 CURVE SMOOTH",
"473 -58 OFFCURVE",
"465 -70 OFFCURVE",
"465 -76 CURVE SMOOTH",
"465 -80 OFFCURVE",
"485 -92 OFFCURVE",
"493 -92 CURVE SMOOTH",
"504 -92 OFFCURVE",
"501 -85 OFFCURVE",
"532 -67 CURVE SMOOTH",
"566 -46 OFFCURVE",
"604 -29 OFFCURVE",
"645 -7 CURVE {name = hr01;}",
"647 -7 LINE SMOOTH",
"671 -7 OFFCURVE",
"696 -33 OFFCURVE",
"696 -90 CURVE SMOOTH",
"696 -103 OFFCURVE",
"695 -117 OFFCURVE",
"693 -131 CURVE",
"275 -365 OFFCURVE",
"0 -566 OFFCURVE",
"0 -705 CURVE SMOOTH",
"0 -749 OFFCURVE",
"25 -787 OFFCURVE",
"87 -787 CURVE SMOOTH"
);
},
{
closed = 1;
nodes = (
"44 -762 OFFCURVE",
"30 -736 OFFCURVE",
"30 -710 CURVE SMOOTH",
"30 -561 OFFCURVE",
"315 -378 OFFCURVE",
"687 -161 CURVE",
"623 -429 OFFCURVE",
"241 -762 OFFCURVE",
"87 -762 CURVE SMOOTH"
);
},
{
closed = 1;
nodes = (
"1115 633 OFFCURVE",
"1194 687 OFFCURVE",
"1254 687 CURVE SMOOTH",
"1291 687 OFFCURVE",
"1313 671 OFFCURVE",
"1313 651 CURVE SMOOTH",
"1313 593 OFFCURVE",
"1196 513 OFFCURVE",
"1055 493 CURVE"
);
}
);
width = 1347;
}
);
unicode = 007A;
},
{
glyphname = f_f;
lastChange = "2022-05-08 19:27:12 +0000";
layers = (
{
layerId = master01;
paths = (
{
closed = 1;
nodes = (
"333 -787 OFFCURVE",
"548 -322 OFFCURVE",
"583 144 CURVE {name = hr00;}",
"624 208 LINE",
"657 184 OFFCURVE",
"698 167 OFFCURVE",
"749 162 CURVE SMOOTH",
"910 145 OFFCURVE",
"1026 211 OFFCURVE",
"1103 277 CURVE",
"1017 147 LINE SMOOTH",
"619 -455 OFFCURVE",
"549 -581 OFFCURVE",
"555 -690 CURVE",
"556 -746 OFFCURVE",
"598 -787 OFFCURVE",
"653 -787 CURVE SMOOTH",
"886 -787 OFFCURVE",
"1101 -322 OFFCURVE",
"1136 144 CURVE",
"1178 208 LINE",
"1211 184 OFFCURVE",
"1252 167 OFFCURVE",
"1303 162 CURVE SMOOTH",
"1580 133 OFFCURVE",
"1722 348 OFFCURVE",
"1765 389 CURVE",
"1742 405 LINE",
"1673 321 OFFCURVE",
"1549 171 OFFCURVE",
"1304 187 CURVE SMOOTH",
"1259 190 OFFCURVE",
"1222 207 OFFCURVE",
"1193 232 CURVE",
"1264 342 LINE",
"1676 601 OFFCURVE",
"2215 1210 OFFCURVE",
"2203 1493 CURVE",
"2202 1541 OFFCURVE",
"2174 1579 OFFCURVE",
"2117 1579 CURVE SMOOTH",
"2015 1579 OFFCURVE",
"1842 1396 OFFCURVE",
"1651 1123 CURVE SMOOTH",
"1605 1057 OFFCURVE",
"1524 919 OFFCURVE",
"1183 399 CURVE",
"1167 379 OFFCURVE",
"1147 356 OFFCURVE",
"1124 333 CURVE",
"1119 345 OFFCURVE",
"1116 357 OFFCURVE",
"1114 368 CURVE",
"1147 385 OFFCURVE",
"1179 435 OFFCURVE",
"1179 465 CURVE SMOOTH",
"1179 504 OFFCURVE",
"1155 526 OFFCURVE",
"1125 526 CURVE SMOOTH",
"1091 526 OFFCURVE",
"1067 496 OFFCURVE",
"1060 453 CURVE SMOOTH",
"1055 420 OFFCURVE",
"1065 361 OFFCURVE",
"1095 305 CURVE",
"1020 238 OFFCURVE",
"911 176 OFFCURVE",
"750 187 CURVE SMOOTH",
"705 190 OFFCURVE",
"668 207 OFFCURVE",
"639 232 CURVE",
"710 342 LINE",
"1122 601 OFFCURVE",
"1661 1210 OFFCURVE",
"1649 1493 CURVE",
"1648 1541 OFFCURVE",
"1620 1579 OFFCURVE",
"1563 1579 CURVE SMOOTH",
"1461 1579 OFFCURVE",
"1288 1396 OFFCURVE",
"1097 1123 CURVE SMOOTH",
"1048 1054 OFFCURVE",
"961 905 OFFCURVE",
"577 319 CURVE",
"569 336 OFFCURVE",
"563 353 OFFCURVE",
"560 368 CURVE",
"593 385 OFFCURVE",
"625 435 OFFCURVE",
"625 465 CURVE SMOOTH",
"625 504 OFFCURVE",
"601 526 OFFCURVE",
"571 526 CURVE SMOOTH",
"537 526 OFFCURVE",
"513 496 OFFCURVE",
"506 453 CURVE SMOOTH",
"501 416 OFFCURVE",
"514 346 OFFCURVE",
"554 284 CURVE",
"463 147 LINE SMOOTH",
"65 -455 OFFCURVE",
"-5 -581 OFFCURVE",
"1 -690 CURVE",
"2 -746 OFFCURVE",
"44 -787 OFFCURVE",
"99 -787 CURVE SMOOTH"
);
},
{
closed = 1;
nodes = (
"79 -762 OFFCURVE",
"61 -742 OFFCURVE",
"61 -720 CURVE SMOOTH",
"61 -634 OFFCURVE",
"303 -282 OFFCURVE",
"550 94 CURVE",
"503 -419 OFFCURVE",
"221 -762 OFFCURVE",
"106 -762 CURVE SMOOTH"
);
},
{
closed = 1;
nodes = (
"633 -762 OFFCURVE",
"615 -742 OFFCURVE",
"615 -720 CURVE SMOOTH",
"615 -634 OFFCURVE",
"857 -282 OFFCURVE",
"1104 94 CURVE",
"1057 -419 OFFCURVE",
"775 -762 OFFCURVE",
"660 -762 CURVE SMOOTH"
);
},
{
closed = 1;
nodes = (
"952 718 OFFCURVE",
"1103 952 OFFCURVE",
"1288 1245 CURVE SMOOTH",
"1447 1496 OFFCURVE",
"1515 1556 OFFCURVE",
"1558 1556 CURVE SMOOTH",
"1583 1556 OFFCURVE",
"1603 1536 OFFCURVE",
"1604 1499 CURVE SMOOTH",
"1613 1240 OFFCURVE",
"1115 648 OFFCURVE",
"746 398 CURVE"
);
},
{
closed = 1;
nodes = (
"1506 718 OFFCURVE",
"1657 952 OFFCURVE",
"1842 1245 CURVE SMOOTH",
"2001 1496 OFFCURVE",
"2069 1556 OFFCURVE",
"2112 1556 CURVE SMOOTH",
"2137 1556 OFFCURVE",
"2157 1536 OFFCURVE",
"2158 1499 CURVE SMOOTH",
"2167 1240 OFFCURVE",
"1669 648 OFFCURVE",
"1300 398 CURVE"
);
}
);
width = 2204;
}
);
},
{
glyphname = fi;
lastChange = "2021-01-19 18:01:45 +0000";
layers = (
{
layerId = master01;
paths = (
{
closed = 1;
nodes = (
"333 -787 OFFCURVE",
"548 -322 OFFCURVE",
"583 144 CURVE {name = hr01;}",
"624 208 LINE",
"657 184 OFFCURVE",
"698 167 OFFCURVE",
"749 162 CURVE SMOOTH",
"884 148 OFFCURVE",
"988 192 OFFCURVE",
"1063 246 CURVE",
"1009 164 OFFCURVE",
"996 119 OFFCURVE",
"996 81 CURVE SMOOTH",
"996 30 OFFCURVE",
"1050 -2 OFFCURVE",
"1132 -2 CURVE SMOOTH",
"1351 -2 OFFCURVE",
"1625 350 OFFCURVE",
"1663 389 CURVE",
"1643 407 LINE",
"1624 386 OFFCURVE",
"1328 26 OFFCURVE",
"1149 26 CURVE SMOOTH",
"1126 26 OFFCURVE",
"1076 25 OFFCURVE",
"1076 60 CURVE SMOOTH",
"1076 115 OFFCURVE",
"1155 218 OFFCURVE",
"1545 677 CURVE",
"1534 676 OFFCURVE",
"1526 675 OFFCURVE",
"1503 675 CURVE SMOOTH",
"1478 675 OFFCURVE",
"1419 676 OFFCURVE",
"1407 678 CURVE",
"1276 525 OFFCURVE",
"1186 415 OFFCURVE",
"1124 332 CURVE",
"1048 256 OFFCURVE",
"933 175 OFFCURVE",
"750 187 CURVE SMOOTH",
"705 190 OFFCURVE",
"668 207 OFFCURVE",
"639 232 CURVE",
"710 342 LINE",
"1122 601 OFFCURVE",
"1661 1210 OFFCURVE",
"1649 1493 CURVE",
"1648 1541 OFFCURVE",
"1620 1579 OFFCURVE",
"1563 1579 CURVE SMOOTH",
"1461 1579 OFFCURVE",
"1288 1396 OFFCURVE",
"1097 1123 CURVE SMOOTH",
"1048 1054 OFFCURVE",
"961 905 OFFCURVE",
"577 319 CURVE",
"569 336 OFFCURVE",
"563 353 OFFCURVE",
"560 368 CURVE",
"593 385 OFFCURVE",
"625 435 OFFCURVE",
"625 465 CURVE SMOOTH",
"625 504 OFFCURVE",
"601 526 OFFCURVE",
"571 526 CURVE SMOOTH",
"537 526 OFFCURVE",
"513 496 OFFCURVE",
"506 453 CURVE SMOOTH",
"501 416 OFFCURVE",
"514 346 OFFCURVE",
"554 284 CURVE",
"463 147 LINE SMOOTH",
"65 -455 OFFCURVE",
"-5 -581 OFFCURVE",
"1 -690 CURVE",
"2 -746 OFFCURVE",
"44 -787 OFFCURVE",
"99 -787 CURVE SMOOTH"
);
},
{
closed = 1;
nodes = (
"79 -762 OFFCURVE",
"61 -742 OFFCURVE",
"61 -720 CURVE SMOOTH",
"61 -634 OFFCURVE",
"303 -282 OFFCURVE",
"550 94 CURVE",
"503 -419 OFFCURVE",
"221 -762 OFFCURVE",
"106 -762 CURVE SMOOTH"
);
},
{
closed = 1;
nodes = (
"952 718 OFFCURVE",
"1103 952 OFFCURVE",
"1288 1245 CURVE SMOOTH",
"1447 1496 OFFCURVE",
"1515 1556 OFFCURVE",
"1558 1556 CURVE SMOOTH",
"1583 1556 OFFCURVE",
"1603 1536 OFFCURVE",
"1604 1499 CURVE SMOOTH",
"1613 1240 OFFCURVE",
"1115 648 OFFCURVE",
"746 398 CURVE"
);
},
{
closed = 1;
nodes = (
"1692 876 OFFCURVE",
"1743 920 OFFCURVE",
"1743 969 CURVE SMOOTH {name = hr02;}",
"1743 1004 OFFCURVE",
"1719 1032 OFFCURVE",
"1682 1032 CURVE SMOOTH",
"1627 1032 OFFCURVE",
"1582 984 OFFCURVE",
"1582 938 CURVE SMOOTH",
"1582 902 OFFCURVE",
"1606 876 OFFCURVE",
"1643 876 CURVE SMOOTH"
);
}
);
width = 1743;
}
);
unicode = FB01;
},
{
glyphname = ordfeminine;
layers = (
{
layerId = master01;
paths = (
{
closed = 1;
nodes = (
"169 869 OFFCURVE",
"265 926 OFFCURVE",
"392 1074 CURVE",
"399 1070 LINE",
"339 999 OFFCURVE",
"308 953 OFFCURVE",
"308 920 CURVE SMOOTH",
"308 890 OFFCURVE",
"330 869 OFFCURVE",
"380 869 CURVE SMOOTH",
"430 869 OFFCURVE",
"499 894 OFFCURVE",
"563 952 CURVE SMOOTH",
"572 961 OFFCURVE",
"575 967 OFFCURVE",
"575 972 CURVE SMOOTH",
"575 978 OFFCURVE",
"570 982 OFFCURVE",
"564 982 CURVE SMOOTH",
"560 982 OFFCURVE",
"554 977 OFFCURVE",
"543 967 CURVE SMOOTH",
"483 915 OFFCURVE",
"432 898 OFFCURVE",
"407 898 CURVE SMOOTH",
"390 898 OFFCURVE",
"382 902 OFFCURVE",
"382 917 CURVE SMOOTH",
"382 935 OFFCURVE",
"404 983 OFFCURVE",
"471 1062 CURVE",
"723 1365 LINE",
"709 1363 OFFCURVE",
"680 1362 OFFCURVE",
"667 1362 CURVE SMOOTH",
"649 1362 OFFCURVE",
"623 1365 OFFCURVE",
"613 1368 CURVE",
"593 1343 OFFCURVE",
"571 1318 OFFCURVE",
"540 1282 CURVE",
"545 1297 OFFCURVE",
"547 1310 OFFCURVE",
"547 1321 CURVE SMOOTH",
"547 1361 OFFCURVE",
"514 1384 OFFCURVE",
"463 1384 CURVE SMOOTH",
"354 1384 OFFCURVE",
"237 1343 OFFCURVE",
"103 1188 CURVE SMOOTH",
"38 1113 OFFCURVE",
"0 1034 OFFCURVE",
"0 968 CURVE SMOOTH",
"0 904 OFFCURVE",
"38 869 OFFCURVE",
"103 869 CURVE SMOOTH {name = hr00;}"
);
},
{
closed = 1;
nodes = (
"87 895 OFFCURVE",
"79 906 OFFCURVE",
"79 938 CURVE SMOOTH",
"79 986 OFFCURVE",
"113 1045 OFFCURVE",
"188 1135 CURVE SMOOTH",
"317 1292 OFFCURVE",
"431 1352 OFFCURVE",
"480 1352 CURVE SMOOTH",
"505 1352 OFFCURVE",
"522 1341 OFFCURVE",
"522 1319 CURVE SMOOTH",
"522 1295 OFFCURVE",
"511 1263 OFFCURVE",
"494 1230 CURVE",
"413 1133 LINE SMOOTH",
"253 942 OFFCURVE",
"157 895 OFFCURVE",
"106 895 CURVE SMOOTH"
);
}
);
width = 723;
}
);
unicode = 00AA;
},
{
glyphname = ordmasculine;
layers = (
{
layerId = master01;
paths = (
{
closed = 1;
nodes = (
"219 869 OFFCURVE",
"338 938 OFFCURVE",
"422 1034 CURVE SMOOTH",
"491 1113 OFFCURVE",
"539 1208 OFFCURVE",
"539 1297 CURVE SMOOTH",
"539 1345 OFFCURVE",
"504 1383 OFFCURVE",
"432 1383 CURVE SMOOTH",
"302 1383 OFFCURVE",
"164 1281 OFFCURVE",
"86 1178 CURVE SMOOTH",
"45 1124 OFFCURVE",
"0 1035 OFFCURVE",
"0 969 CURVE SMOOTH",
"0 912 OFFCURVE",
"38 869 OFFCURVE",
"120 869 CURVE SMOOTH {name = hr00;}"
);
},
{
closed = 1;
nodes = (
"112 901 OFFCURVE",
"98 911 OFFCURVE",
"98 942 CURVE SMOOTH",
"98 1002 OFFCURVE",
"137 1076 OFFCURVE",
"208 1157 CURVE SMOOTH",
"319 1286 OFFCURVE",
"411 1347 OFFCURVE",
"455 1347 CURVE SMOOTH",
"493 1347 OFFCURVE",
"513 1332 OFFCURVE",
"513 1292 CURVE SMOOTH",
"513 1231 OFFCURVE",
"483 1167 OFFCURVE",
"442 1108 CURVE SMOOTH",
"347 971 OFFCURVE",
"225 901 OFFCURVE",
"141 901 CURVE SMOOTH"
);
}
);
width = 539;
}
);
unicode = 00BA;
},
{
glyphname = zero;
lastChange = "2021-01-19 18:01:45 +0000";
layers = (
{
layerId = master01;
paths = (
{
closed = 1;
nodes = (
"658 -5 OFFCURVE",
"1153 610 OFFCURVE",
"1153 1084 CURVE SMOOTH",
"1153 1275 OFFCURVE",
"1082 1408 OFFCURVE",
"921 1408 CURVE SMOOTH",
"521 1408 OFFCURVE",
"0 785 OFFCURVE",
"0 310 CURVE SMOOTH {name = hr00;}",
"0 113 OFFCURVE",
"81 -5 OFFCURVE",
"226 -5 CURVE SMOOTH"
);
},
{
closed = 1;
nodes = (
"160 22 OFFCURVE",
"109 89 OFFCURVE",
"109 225 CURVE SMOOTH",
"109 601 OFFCURVE",
"635 1384 OFFCURVE",
"922 1384 CURVE SMOOTH",
"1026 1384 OFFCURVE",
"1098 1324 OFFCURVE",
"1098 1129 CURVE SMOOTH",
"1098 578 OFFCURVE",
"523 22 OFFCURVE",
"251 22 CURVE SMOOTH"
);
}
);
width = 1153;
}
);
unicode = 0030;
},
{
glyphname = one;
layers = (
{
layerId = master01;
paths = (
{
closed = 1;
nodes = (
"20 19 OFFCURVE",
"55 24 OFFCURVE",
"94 24 CURVE SMOOTH",
"123 24 OFFCURVE",
"181 19 OFFCURVE",
"205 18 CURVE",
"480 565 OFFCURVE",
"836 1195 OFFCURVE",
"951 1344 CURVE SMOOTH",
"977 1378 OFFCURVE",
"989 1398 OFFCURVE",
"989 1410 CURVE SMOOTH",
"989 1419 OFFCURVE",
"982 1424 OFFCURVE",
"974 1424 CURVE SMOOTH",
"962 1424 OFFCURVE",
"954 1416 OFFCURVE",
"927 1373 CURVE",
"819 1192 OFFCURVE",
"369 718 OFFCURVE",
"188 611 CURVE SMOOTH",
"168 600 OFFCURVE",
"155 594 OFFCURVE",
"141 588 CURVE",
"116 580 OFFCURVE",
"107 569 OFFCURVE",
"107 557 CURVE SMOOTH",
"107 545 OFFCURVE",
"116 537 OFFCURVE",
"130 537 CURVE SMOOTH",
"154 537 OFFCURVE",
"187 562 OFFCURVE",
"218 584 CURVE SMOOTH",
"335 668 OFFCURVE",
"460 781 OFFCURVE",
"641 972 CURVE",
"461 690 OFFCURVE",
"182 271 OFFCURVE",
"0 13 CURVE {name = hr00;}"
);
}
);
width = 989;
}
);
unicode = 0031;
},
{
glyphname = two;
lastChange = "2021-01-19 18:01:45 +0000";
layers = (
{
layerId = master01;
paths = (
{
closed = 1;
nodes = (
"15 -58 OFFCURVE",
"32 -55 OFFCURVE",
"36 -47 CURVE SMOOTH",
"40 -36 OFFCURVE",
"40 -28 OFFCURVE",
"43 -23 CURVE SMOOTH",
"97 73 OFFCURVE",
"268 169 OFFCURVE",
"401 169 CURVE SMOOTH",
"459 169 OFFCURVE",
"548 155 OFFCURVE",
"649 72 CURVE SMOOTH",
"715 19 OFFCURVE",
"765 -2 OFFCURVE",
"836 -2 CURVE SMOOTH",
"949 -2 OFFCURVE",
"1016 38 OFFCURVE",
"1088 109 CURVE",
"1143 166 OFFCURVE",
"1199 261 OFFCURVE",
"1199 309 CURVE SMOOTH",
"1199 329 OFFCURVE",
"1192 336 OFFCURVE",
"1184 336 CURVE SMOOTH",
"1173 336 OFFCURVE",
"1178 312 OFFCURVE",
"1170 294 CURVE",
"1127 172 OFFCURVE",
"1031 108 OFFCURVE",
"934 108 CURVE SMOOTH",
"887 108 OFFCURVE",
"845 125 OFFCURVE",
"784 165 CURVE SMOOTH",
"711 213 OFFCURVE",
"640 234 OFFCURVE",
"544 234 CURVE SMOOTH",
"413 234 OFFCURVE",
"308 214 OFFCURVE",
"146 123 CURVE",
"255 226 OFFCURVE",
"342 266 OFFCURVE",
"642 399 CURVE",
"1096 598 OFFCURVE",
"1352 870 OFFCURVE",
"1352 1137 CURVE SMOOTH",
"1352 1289 OFFCURVE",
"1261 1410 OFFCURVE",
"1074 1410 CURVE SMOOTH",
"732 1410 OFFCURVE",
"399 1058 OFFCURVE",
"399 809 CURVE SMOOTH",
"399 749 OFFCURVE",
"421 655 OFFCURVE",
"567 655 CURVE SMOOTH",
"626 655 OFFCURVE",
"701 685 OFFCURVE",
"766 738 CURVE SMOOTH",
"863 816 OFFCURVE",
"924 898 OFFCURVE",
"924 921 CURVE SMOOTH",
"924 926 OFFCURVE",
"920 929 OFFCURVE",
"915 929 CURVE SMOOTH",
"909 929 OFFCURVE",
"903 928 OFFCURVE",
"892 911 CURVE SMOOTH",
"796 773 OFFCURVE",
"668 682 OFFCURVE",
"567 682 CURVE SMOOTH",
"504 682 OFFCURVE",
"471 724 OFFCURVE",
"471 779 CURVE SMOOTH",
"471 953 OFFCURVE",
"789 1383 OFFCURVE",
"1067 1383 CURVE SMOOTH",
"1168 1383 OFFCURVE",
"1221 1343 OFFCURVE",
"1221 1186 CURVE SMOOTH",
"1221 940 OFFCURVE",
"1005 633 OFFCURVE",
"554 409 CURVE",
"334 301 OFFCURVE",
"194 207 OFFCURVE",
"108 129 CURVE SMOOTH",
"35 63 OFFCURVE",
"0 -2 OFFCURVE",
"0 -36 CURVE SMOOTH {name = hr00;}",
"0 -52 OFFCURVE",
"5 -58 OFFCURVE",
"11 -58 CURVE SMOOTH"
);
}
);
width = 1352;
}
);
unicode = 0032;
},
{
glyphname = three;
lastChange = "2021-01-19 18:01:45 +0000";
layers = (
{
layerId = master01;
paths = (
{
closed = 1;
nodes = (
"820 -238 OFFCURVE",
"1218 185 OFFCURVE",
"1218 435 CURVE SMOOTH",
"1218 596 OFFCURVE",
"1096 674 OFFCURVE",
"937 643 CURVE",
"1268 779 OFFCURVE",
"1434 1014 OFFCURVE",
"1434 1159 CURVE SMOOTH",
"1434 1328 OFFCURVE",
"1329 1410 OFFCURVE",
"1140 1410 CURVE SMOOTH",
"854 1410 OFFCURVE",
"511 1066 OFFCURVE",
"511 836 CURVE SMOOTH",
"511 735 OFFCURVE",
"574 683 OFFCURVE",
"657 683 CURVE SMOOTH",
"805 683 OFFCURVE",
"1075 929 OFFCURVE",
"1075 1149 CURVE SMOOTH",
"1075 1167 OFFCURVE",
"1072 1172 OFFCURVE",
"1065 1172 CURVE SMOOTH",
"1058 1172 OFFCURVE",
"1056 1167 OFFCURVE",
"1053 1153 CURVE",
"1034 967 OFFCURVE",
"810 710 OFFCURVE",
"666 710 CURVE SMOOTH",
"610 710 OFFCURVE",
"593 748 OFFCURVE",
"593 797 CURVE SMOOTH",
"593 1000 OFFCURVE",
"908 1383 OFFCURVE",
"1137 1383 CURVE SMOOTH",
"1239 1383 OFFCURVE",
"1301 1341 OFFCURVE",
"1301 1203 CURVE SMOOTH",
"1301 1026 OFFCURVE",
"1207 809 OFFCURVE",
"917 662 CURVE SMOOTH",
"755 580 OFFCURVE",
"698 543 OFFCURVE",
"631 471 CURVE SMOOTH",
"617 456 OFFCURVE",
"603 431 OFFCURVE",
"603 415 CURVE SMOOTH",
"603 401 OFFCURVE",
"609 394 OFFCURVE",
"619 394 CURVE SMOOTH",
"633 394 OFFCURVE",
"640 400 OFFCURVE",
"645 415 CURVE SMOOTH",
"650 429 OFFCURVE",
"652 439 OFFCURVE",
"661 453 CURVE SMOOTH",
"721 541 OFFCURVE",
"856 611 OFFCURVE",
"971 611 CURVE SMOOTH",
"1030 611 OFFCURVE",
"1069 578 OFFCURVE",
"1069 515 CURVE SMOOTH",
"1069 145 OFFCURVE",
"715 -215 OFFCURVE",
"358 -215 CURVE SMOOTH",
"271 -215 OFFCURVE",
"159 -175 OFFCURVE",
"119 -110 CURVE",
"122 -94 OFFCURVE",
"124 -70 OFFCURVE",
"124 -57 CURVE SMOOTH",
"124 -8 OFFCURVE",
"99 18 OFFCURVE",
"63 18 CURVE SMOOTH {name = hr00;}",
"26 18 OFFCURVE",
"0 -10 OFFCURVE",
"0 -49 CURVE SMOOTH",
"0 -131 OFFCURVE",
"173 -238 OFFCURVE",
"363 -238 CURVE SMOOTH"
);
}
);
width = 1434;
}
);
unicode = 0033;
},
{
glyphname = four;
lastChange = "2021-01-19 18:01:45 +0000";
layers = (
{
layerId = master01;
paths = (
{
closed = 1;
nodes = (
"669 48 OFFCURVE",
"803 259 OFFCURVE",
"945 453 CURVE {name = hr03;}",
"990 446 OFFCURVE",
"1023 446 OFFCURVE",
"1073 446 CURVE SMOOTH",
"1148 446 OFFCURVE",
"1321 459 OFFCURVE",
"1416 536 CURVE SMOOTH",
"1435 552 OFFCURVE",
"1448 562 OFFCURVE",
"1448 569 CURVE SMOOTH",
"1448 572 OFFCURVE",
"1444 577 OFFCURVE",
"1438 577 CURVE SMOOTH",
"1425 577 OFFCURVE",
"1402 553 OFFCURVE",
"1368 535 CURVE SMOOTH",
"1314 506 OFFCURVE",
"1212 480 OFFCURVE",
"1107 480 CURVE SMOOTH",
"1063 480 OFFCURVE",
"1022 484 OFFCURVE",
"975 494 CURVE",
"1140 716 OFFCURVE",
"1311 910 OFFCURVE",
"1408 976 CURVE SMOOTH",
"1428 990 OFFCURVE",
"1430 993 OFFCURVE",
"1430 999 CURVE SMOOTH",
"1430 1003 OFFCURVE",
"1428 1008 OFFCURVE",
"1420 1008 CURVE SMOOTH",
"1410 1008 OFFCURVE",
"1387 996 OFFCURVE",
"1375 991 CURVE",
"1254 930 OFFCURVE",
"1061 737 OFFCURVE",
"875 518 CURVE",
"720 562 LINE SMOOTH",
"629 588 OFFCURVE",
"560 607 OFFCURVE",
"504 621 CURVE",
"532 643 LINE SMOOTH",
"735 803 OFFCURVE",
"1038 1167 OFFCURVE",
"1110 1239 CURVE SMOOTH",
"1192 1321 OFFCURVE",
"1224 1354 OFFCURVE",
"1281 1378 CURVE SMOOTH",
"1318 1393 OFFCURVE",
"1322 1395 OFFCURVE",
"1322 1402 CURVE SMOOTH",
"1322 1411 OFFCURVE",
"1315 1414 OFFCURVE",
"1287 1414 CURVE SMOOTH",
"1215 1414 OFFCURVE",
"1151 1399 OFFCURVE",
"1039 1386 CURVE",
"905 1169 OFFCURVE",
"636 823 OFFCURVE",
"425 640 CURVE",
"348 656 OFFCURVE",
"301 659 OFFCURVE",
"239 659 CURVE SMOOTH",
"126 659 OFFCURVE",
"0 634 OFFCURVE",
"0 562 CURVE SMOOTH",
"0 521 OFFCURVE",
"64 491 OFFCURVE",
"159 491 CURVE SMOOTH {name = hr04;}",
"235 491 OFFCURVE",
"326 498 OFFCURVE",
"467 595 CURVE",
"537 574 OFFCURVE",
"612 547 OFFCURVE",
"691 522 CURVE SMOOTH",
"754 502 OFFCURVE",
"802 488 OFFCURVE",
"841 477 CURVE",
"691 297 OFFCURVE",
"549 105 OFFCURVE",
"457 -43 CURVE {name = hr01;}",
"593 -115 LINE"
);
},
{
closed = 1;
nodes = (
"130 516 OFFCURVE",
"64 522 OFFCURVE",
"64 557 CURVE SMOOTH",
"64 602 OFFCURVE",
"119 635 OFFCURVE",
"247 635 CURVE SMOOTH",
"294 635 OFFCURVE",
"343 627 OFFCURVE",
"395 615 CURVE",
"377 600 OFFCURVE",
"359 587 OFFCURVE",
"342 575 CURVE SMOOTH",
"272 526 OFFCURVE",
"219 516 OFFCURVE",
"171 516 CURVE SMOOTH"
);
}
);
width = 1448;
}
);
unicode = 0034;
},
{
glyphname = five;
lastChange = "2021-01-19 18:01:45 +0000";
layers = (
{
layerId = master01;
paths = (
{
closed = 1;
nodes = (
"807 -317 OFFCURVE",
"1282 111 OFFCURVE",
"1298 507 CURVE SMOOTH",
"1306 720 OFFCURVE",
"1186 836 OFFCURVE",
"981 836 CURVE SMOOTH",
"921 836 OFFCURVE",
"845 818 OFFCURVE",
"794 789 CURVE",
"823 835 OFFCURVE",
"1000 1146 OFFCURVE",
"1043 1231 CURVE",
"1079 1269 OFFCURVE",
"1136 1295 OFFCURVE",
"1183 1295 CURVE SMOOTH",
"1217 1295 OFFCURVE",
"1246 1286 OFFCURVE",
"1292 1271 CURVE SMOOTH",
"1332 1259 OFFCURVE",
"1363 1255 OFFCURVE",
"1395 1255 CURVE SMOOTH {name = hr03;}",
"1558 1255 OFFCURVE",
"1679 1344 OFFCURVE",
"1738 1465 CURVE SMOOTH",
"1742 1472 OFFCURVE",
"1746 1485 OFFCURVE",
"1746 1490 CURVE SMOOTH",
"1746 1498 OFFCURVE",
"1742 1500 OFFCURVE",
"1737 1500 CURVE SMOOTH",
"1731 1500 OFFCURVE",
"1727 1497 OFFCURVE",
"1723 1489 CURVE SMOOTH",
"1720 1481 OFFCURVE",
"1714 1471 OFFCURVE",
"1710 1465 CURVE SMOOTH",
"1650 1382 OFFCURVE",
"1593 1370 OFFCURVE",
"1529 1370 CURVE SMOOTH",
"1500 1370 OFFCURVE",
"1466 1377 OFFCURVE",
"1426 1391 CURVE",
"1395 1400 OFFCURVE",
"1356 1410 OFFCURVE",
"1322 1410 CURVE SMOOTH",
"1241 1410 OFFCURVE",
"1147 1364 OFFCURVE",
"1076 1297 CURVE",
"1101 1344 OFFCURVE",
"1123 1391 OFFCURVE",
"1127 1400 CURVE {name = hr04;}",
"1044 1396 LINE",
"954 1204 OFFCURVE",
"791 911 OFFCURVE",
"686 730 CURVE",
"618 677 OFFCURVE",
"551 598 OFFCURVE",
"542 562 CURVE SMOOTH",
"540 553 OFFCURVE",
"546 551 OFFCURVE",
"552 551 CURVE",
"558 549 OFFCURVE",
"567 552 OFFCURVE",
"581 575 CURVE SMOOTH",
"656 695 OFFCURVE",
"811 795 OFFCURVE",
"956 795 CURVE SMOOTH",
"1083 795 OFFCURVE",
"1161 736 OFFCURVE",
"1161 581 CURVE SMOOTH",
"1161 231 OFFCURVE",
"773 -288 OFFCURVE",
"344 -288 CURVE SMOOTH",
"213 -288 OFFCURVE",
"118 -258 OFFCURVE",
"81 -204 CURVE SMOOTH",
"71 -190 OFFCURVE",
"61 -172 OFFCURVE",
"57 -161 CURVE SMOOTH {name = hr01;}",
"51 -145 OFFCURVE",
"45 -135 OFFCURVE",
"27 -135 CURVE SMOOTH",
"12 -135 OFFCURVE",
"0 -146 OFFCURVE",
"0 -165 CURVE SMOOTH",
"0 -193 OFFCURVE",
"24 -229 OFFCURVE",
"71 -258 CURVE",
"131 -292 OFFCURVE",
"220 -317 OFFCURVE",
"338 -317 CURVE SMOOTH"
);
}
);
width = 1746;
}
);
unicode = 0035;
},
{
glyphname = six;
lastChange = "2021-01-19 18:01:45 +0000";
layers = (
{
layerId = master01;
paths = (
{
closed = 1;
nodes = (
"518 -5 OFFCURVE",
"933 316 OFFCURVE",
"943 711 CURVE",
"944 841 OFFCURVE",
"878 917 OFFCURVE",
"757 917 CURVE SMOOTH",
"545 917 OFFCURVE",
"334 684 OFFCURVE",
"329 481 CURVE SMOOTH",
"329 470 OFFCURVE",
"335 461 OFFCURVE",
"341 461 CURVE SMOOTH",
"349 461 OFFCURVE",
"353 466 OFFCURVE",
"357 488 CURVE SMOOTH",
"391 685 OFFCURVE",
"642 891 OFFCURVE",
"748 891 CURVE SMOOTH",
"808 891 OFFCURVE",
"840 853 OFFCURVE",
"839 776 CURVE SMOOTH",
"837 662 OFFCURVE",
"770 505 OFFCURVE",
"674 366 CURVE",
"491 105 OFFCURVE",
"358 24 OFFCURVE",
"243 24 CURVE SMOOTH",
"155 24 OFFCURVE",
"116 98 OFFCURVE",
"118 223 CURVE SMOOTH",
"125 581 OFFCURVE",
"540 1383 OFFCURVE",
"993 1383 CURVE SMOOTH",
"1074 1383 OFFCURVE",
"1122 1354 OFFCURVE",
"1120 1319 CURVE",
"1120 1302 OFFCURVE",
"1112 1292 OFFCURVE",
"1087 1279 CURVE",
"1055 1260 OFFCURVE",
"1039 1236 OFFCURVE",
"1038 1207 CURVE SMOOTH",
"1038 1178 OFFCURVE",
"1062 1147 OFFCURVE",
"1107 1147 CURVE SMOOTH",
"1158 1147 OFFCURVE",
"1205 1200 OFFCURVE",
"1206 1270 CURVE",
"1208 1332 OFFCURVE",
"1140 1410 OFFCURVE",
"986 1410 CURVE SMOOTH",
"533 1410 OFFCURVE",
"10 768 OFFCURVE",
"1 341 CURVE SMOOTH {name = hr00;}",
"-3 141 OFFCURVE",
"68 -5 OFFCURVE",
"249 -5 CURVE SMOOTH"
);
}
);
width = 1207;
}
);
unicode = 0036;
},
{
glyphname = seven;
lastChange = "2021-01-19 18:01:45 +0000";
layers = (
{
layerId = master01;
paths = (
{
closed = 1;
nodes = (
"382 -545 OFFCURVE",
"390 -543 OFFCURVE",
"390 -537 CURVE SMOOTH",
"390 -529 OFFCURVE",
"372 -515 OFFCURVE",
"355 -490 CURVE SMOOTH",
"309 -424 OFFCURVE",
"259 -274 OFFCURVE",
"259 -89 CURVE SMOOTH {name = hr04;}",
"259 278 OFFCURVE",
"455 705 OFFCURVE",
"890 1134 CURVE",
"1009 1253 OFFCURVE",
"1114 1338 OFFCURVE",
"1132 1352 CURVE",
"1162 1373 OFFCURVE",
"1169 1378 OFFCURVE",
"1169 1390 CURVE SMOOTH",
"1169 1400 OFFCURVE",
"1162 1406 OFFCURVE",
"1147 1406 CURVE SMOOTH",
"1142 1406 OFFCURVE",
"1126 1404 OFFCURVE",
"1108 1389 CURVE",
"1029 1316 OFFCURVE",
"997 1281 OFFCURVE",
"909 1281 CURVE SMOOTH",
"854 1281 OFFCURVE",
"810 1295 OFFCURVE",
"765 1325 CURVE SMOOTH",
"690 1376 OFFCURVE",
"642 1410 OFFCURVE",
"550 1410 CURVE SMOOTH {name = hr05;}",
"442 1410 OFFCURVE",
"344 1364 OFFCURVE",
"265 1267 CURVE",
"275 1304 OFFCURVE",
"285 1355 OFFCURVE",
"285 1377 CURVE SMOOTH",
"285 1401 OFFCURVE",
"275 1404 OFFCURVE",
"267 1404 CURVE SMOOTH",
"252 1404 OFFCURVE",
"249 1393 OFFCURVE",
"247 1366 CURVE",
"224 1186 OFFCURVE",
"89 1016 OFFCURVE",
"28 948 CURVE",
"6 925 OFFCURVE",
"0 920 OFFCURVE",
"0 914 CURVE SMOOTH",
"0 909 OFFCURVE",
"6 905 OFFCURVE",
"12 905 CURVE SMOOTH",
"41 905 OFFCURVE",
"141 1021 OFFCURVE",
"249 1202 CURVE",
"322 1303 OFFCURVE",
"416 1306 OFFCURVE",
"467 1305 CURVE SMOOTH",
"528 1304 OFFCURVE",
"559 1285 OFFCURVE",
"610 1249 CURVE",
"671 1208 OFFCURVE",
"704 1192 OFFCURVE",
"769 1192 CURVE SMOOTH {name = hr06;}",
"837 1192 OFFCURVE",
"903 1211 OFFCURVE",
"968 1251 CURVE",
"922 1209 OFFCURVE",
"874 1162 OFFCURVE",
"858 1147 CURVE SMOOTH",
"389 694 OFFCURVE",
"143 260 OFFCURVE",
"143 -81 CURVE SMOOTH {name = hr01;}",
"143 -312 OFFCURVE",
"258 -477 OFFCURVE",
"352 -532 CURVE SMOOTH",
"364 -539 OFFCURVE",
"374 -545 OFFCURVE",
"379 -545 CURVE SMOOTH {name = hr03;}"
);
}
);
width = 1169;
}
);
unicode = 0037;
},
{
glyphname = eight;
lastChange = "2021-01-19 18:01:45 +0000";
layers = (
{
layerId = master01;
paths = (
{
closed = 1;
nodes = (
"577 -5 OFFCURVE",
"817 168 OFFCURVE",
"817 393 CURVE SMOOTH",
"817 526 OFFCURVE",
"733 661 OFFCURVE",
"661 767 CURVE",
"658 770 LINE",
"881 832 OFFCURVE",
"1066 1007 OFFCURVE",
"1066 1192 CURVE SMOOTH",
"1066 1303 OFFCURVE",
"991 1410 OFFCURVE",
"797 1410 CURVE SMOOTH",
"553 1410 OFFCURVE",
"378 1225 OFFCURVE",
"378 1059 CURVE SMOOTH",
"378 979 OFFCURVE",
"407 902 OFFCURVE",
"470 791 CURVE",
"212 701 OFFCURVE",
"0 512 OFFCURVE",
"0 301 CURVE SMOOTH {name = hr00;}",
"0 133 OFFCURVE",
"102 -5 OFFCURVE",
"348 -5 CURVE SMOOTH"
);
},
{
closed = 1;
nodes = (
"213 23 OFFCURVE",
"100 129 OFFCURVE",
"100 327 CURVE SMOOTH",
"100 516 OFFCURVE",
"257 687 OFFCURVE",
"485 765 CURVE",
"504 733 OFFCURVE",
"524 699 OFFCURVE",
"548 661 CURVE SMOOTH",
"651 494 OFFCURVE",
"673 432 OFFCURVE",
"673 337 CURVE SMOOTH",
"673 153 OFFCURVE",
"511 23 OFFCURVE",
"369 23 CURVE SMOOTH"
);
},
{
closed = 1;
nodes = (
"550 933 OFFCURVE",
"516 1029 OFFCURVE",
"516 1108 CURVE SMOOTH",
"516 1288 OFFCURVE",
"687 1383 OFFCURVE",
"800 1383 CURVE SMOOTH",
"946 1383 OFFCURVE",
"996 1289 OFFCURVE",
"996 1198 CURVE SMOOTH",
"996 1022 OFFCURVE",
"823 842 OFFCURVE",
"643 793 CURVE"
);
}
);
width = 1066;
}
);
unicode = 0038;
},
{
glyphname = nine;
lastChange = "2021-01-19 18:01:45 +0000";
layers = (
{
layerId = master01;
paths = (
{
closed = 1;
nodes = (
"362 -2 OFFCURVE",
"447 14 OFFCURVE",
"533 56 CURVE SMOOTH",
"891 231 OFFCURVE",
"1144 677 OFFCURVE",
"1176 1025 CURVE SMOOTH",
"1198 1264 OFFCURVE",
"1093 1408 OFFCURVE",
"872 1408 CURVE SMOOTH",
"598 1408 OFFCURVE",
"338 1145 OFFCURVE",
"308 856 CURVE",
"287 677 OFFCURVE",
"410 569 OFFCURVE",
"574 569 CURVE SMOOTH",
"697 569 OFFCURVE",
"835 645 OFFCURVE",
"996 830 CURVE",
"831 340 OFFCURVE",
"563 24 OFFCURVE",
"287 24 CURVE SMOOTH",
"204 24 OFFCURVE",
"119 82 OFFCURVE",
"121 131 CURVE SMOOTH",
"121 147 OFFCURVE",
"125 161 OFFCURVE",
"132 171 CURVE SMOOTH",
"142 187 OFFCURVE",
"148 195 OFFCURVE",
"148 211 CURVE SMOOTH",
"149 236 OFFCURVE",
"129 270 OFFCURVE",
"85 270 CURVE SMOOTH",
"35 270 OFFCURVE",
"3 234 OFFCURVE",
"1 185 CURVE {name = hr00;}",
"0 96 OFFCURVE",
"110 -2 OFFCURVE",
"282 -2 CURVE SMOOTH"
);
},
{
closed = 1;
nodes = (
"456 593 OFFCURVE",
"402 662 OFFCURVE",
"404 754 CURVE SMOOTH",
"410 984 OFFCURVE",
"676 1378 OFFCURVE",
"892 1378 CURVE SMOOTH",
"1016 1378 OFFCURVE",
"1075 1332 OFFCURVE",
"1070 1173 CURVE",
"1065 921 OFFCURVE",
"791 593 OFFCURVE",
"572 593 CURVE SMOOTH"
);
}
);
width = 1179;
}
);
unicode = 0039;
},
{
glyphname = five.lf;
lastChange = "2022-05-08 19:42:34 +0000";
layers = (
{
layerId = master01;
paths = (
{
closed = 1;
nodes = (
"974 -40 OFFCURVE",
"1298 224 OFFCURVE",
"1298 507 CURVE SMOOTH",
"1298 720 OFFCURVE",
"1186 836 OFFCURVE",
"981 836 CURVE SMOOTH",
"921 836 OFFCURVE",
"845 818 OFFCURVE",
"794 789 CURVE",
"823 835 OFFCURVE",
"1000 1146 OFFCURVE",
"1043 1231 CURVE",
"1079 1269 OFFCURVE",
"1136 1295 OFFCURVE",
"1183 1295 CURVE SMOOTH",
"1217 1295 OFFCURVE",
"1246 1286 OFFCURVE",
"1292 1271 CURVE SMOOTH",
"1332 1259 OFFCURVE",
"1363 1255 OFFCURVE",
"1395 1255 CURVE SMOOTH {name = hr03;}",
"1558 1255 OFFCURVE",
"1679 1344 OFFCURVE",
"1738 1465 CURVE SMOOTH",
"1742 1472 OFFCURVE",
"1746 1485 OFFCURVE",
"1746 1490 CURVE SMOOTH",
"1746 1498 OFFCURVE",
"1742 1500 OFFCURVE",
"1737 1500 CURVE SMOOTH",
"1731 1500 OFFCURVE",
"1727 1497 OFFCURVE",
"1723 1489 CURVE SMOOTH",
"1720 1481 OFFCURVE",
"1714 1471 OFFCURVE",
"1710 1465 CURVE SMOOTH",
"1650 1382 OFFCURVE",
"1593 1370 OFFCURVE",
"1529 1370 CURVE SMOOTH",
"1500 1370 OFFCURVE",
"1466 1377 OFFCURVE",
"1426 1391 CURVE",
"1395 1400 OFFCURVE",
"1356 1410 OFFCURVE",
"1322 1410 CURVE SMOOTH",
"1241 1410 OFFCURVE",
"1147 1364 OFFCURVE",
"1076 1297 CURVE",
"1101 1344 OFFCURVE",
"1123 1391 OFFCURVE",
"1127 1400 CURVE {name = hr04;}",
"1044 1396 LINE",
"954 1204 OFFCURVE",
"791 911 OFFCURVE",
"686 730 CURVE",
"618 677 OFFCURVE",
"551 598 OFFCURVE",
"542 562 CURVE SMOOTH",
"540 553 OFFCURVE",
"546 551 OFFCURVE",
"552 551 CURVE",
"558 549 OFFCURVE",
"567 552 OFFCURVE",
"581 575 CURVE SMOOTH",
"656 695 OFFCURVE",
"811 795 OFFCURVE",
"956 795 CURVE SMOOTH",
"1083 795 OFFCURVE",
"1161 736 OFFCURVE",
"1161 581 CURVE SMOOTH",
"1161 327 OFFCURVE",
"940 -11 OFFCURVE",
"551 -11 CURVE SMOOTH",
"420 -11 OFFCURVE",
"325 19 OFFCURVE",
"288 73 CURVE SMOOTH",
"278 87 OFFCURVE",
"268 105 OFFCURVE",
"264 116 CURVE SMOOTH {name = hr01;}",
"258 132 OFFCURVE",
"252 142 OFFCURVE",
"234 142 CURVE SMOOTH",
"219 142 OFFCURVE",
"207 131 OFFCURVE",
"207 112 CURVE SMOOTH",
"207 84 OFFCURVE",
"231 48 OFFCURVE",
"278 19 CURVE",
"338 -15 OFFCURVE",
"427 -40 OFFCURVE",
"545 -40 CURVE SMOOTH"
);
}
);
width = 1746;
}
);
},
